;TYPE=PLATED
;Layer: PTH_Through
;EasyEDA Pro v2.2.46.11, 2026-03-15 17:02:37
;Gerber Generator version 0.3
M48
METRIC,LZ,0000.00000
;Hole size 1 = 0.30500 METRIC
T01C0.30500
;Hole size 2 = 0.50002 METRIC
T02C0.50002
;Hole size 3 = 1.50002 METRIC
T03C1.50002
;Hole size 4 = 2.70000 METRIC
T04C2.70000
%
G05
G90
T01
X12.5Y18.0
X12.5725Y16.00001
X12.5725Y14.00001
X12.57746Y12.00001
X14.51397Y17.0
X20.50001Y12.42254
X3.5Y17.74993
X4.22502Y17.74993
X3.5Y12.24994
X4.21654Y12.24994
T02
X5.42504Y19.31996G85X4.72507Y19.31996
X5.42504Y10.67999G85X4.72507Y10.67999
X1.62505Y19.31996G85X0.92508Y19.31996
X1.62505Y10.67999G85X0.92508Y10.67999
T03
X26.1Y12.46
X26.1Y17.54
T04
X5.0Y5.0
X25.0Y5.0
X25.0Y25.0
X5.0Y25.0
M30