G04 Layer: TopSilkscreenLayer*
G04 EasyEDA Pro v2.2.46.11, 2026-03-15 17:02:37*
G04 Gerber Generator version 0.3*
G04 Scale: 100 percent, Rotated: No, Reflected: No*
G04 Dimensions in millimeters*
G04 Leading zeros omitted, absolute positions, 4 integers and 5 decimals*
G04 Generated by one-click*
%FSLAX45Y45*%
%MOMM*%
%ADD10C,0.153*%
%ADD11C,0.5*%
%ADD12C,0.3*%
%ADD13C,0.1524*%
%ADD14C,0.254*%
%ADD15C,0.2544*%
%ADD16C,0.25*%
G75*


G04 Image Start*
G36*
G01X1234384Y74739D02*
G01X843263Y74739D01*
G01X843263Y78526D01*
G01X843741Y85054D01*
G01X843953Y86110D01*
G01X853817Y86110D01*
G01X854167Y85406D01*
G01X856512Y84329D01*
G01X861004Y83559D01*
G01X861004Y83559D01*
G01X873428Y82943D01*
G01X885436Y83558D01*
G01X889407Y84327D01*
G01X890557Y84827D01*
G01X891024Y85404D01*
G01X890355Y86189D01*
G01X888467Y87163D01*
G01X882892Y88883D01*
G01X877730Y89651D01*
G01X872375Y89998D01*
G01X862371Y89583D01*
G01X858363Y88899D01*
G01X855446Y87949D01*
G01X853940Y86771D01*
G01X853817Y86110D01*
G01X843953Y86110D01*
G01X845261Y92596D01*
G01X846962Y99494D01*
G01X856098Y99494D01*
G01X856128Y98767D01*
G01X856750Y98038D01*
G01X858010Y97325D01*
G01X862617Y96003D01*
G01X867342Y95541D01*
G01X867342Y95541D01*
G01X874493Y95365D01*
G01X881170Y95613D01*
G01X886445Y96282D01*
G01X890203Y97260D01*
G01X892031Y98272D01*
G01X904858Y98272D01*
G01X905224Y97868D01*
G01X907295Y97118D01*
G01X916800Y95853D01*
G01X933460Y94904D01*
G01X957278Y94277D01*
G01X977355Y93777D01*
G01X960748Y92103D01*
G01X921349Y87902D01*
G01X910563Y86312D01*
G01X906468Y85157D01*
G01X908535Y84666D01*
G01X915857Y84248D01*
G01X949048Y83601D01*
G01X1109092Y82838D01*
G01X1109092Y82838D01*
G01X1248264Y82519D01*
G01X1248259Y114466D01*
G01X1248111Y141220D01*
G01X1247577Y161685D01*
G01X1246683Y176515D01*
G01X1260006Y176515D01*
G01X1263214Y86115D01*
G01X1263384Y84918D01*
G01X1274785Y83831D01*
G01X1274785Y83831D01*
G01X1288101Y82710D01*
G01X1290015Y82676D01*
G01X1289717Y89000D01*
G01X1289341Y99318D01*
G01X1301802Y99318D01*
G01X1302251Y97742D01*
G01X1303462Y96269D01*
G01X1305228Y94978D01*
G01X1307344Y93950D01*
G01X1307344Y93950D01*
G01X1309604Y93267D01*
G01X1311802Y93007D01*
G01X1313731Y93253D01*
G01X1315186Y94084D01*
G01X1315886Y95052D01*
G01X1316233Y96154D01*
G01X1315944Y98544D01*
G01X1314480Y100824D01*
G01X1312003Y102567D01*
G01X1308344Y103530D01*
G01X1305067Y103196D01*
G01X1303739Y102595D01*
G01X1302708Y101735D01*
G01X1302040Y100635D01*
G01X1301802Y99318D01*
G01X1289341Y99318D01*
G01X1289161Y104252D01*
G01X1288661Y120634D01*
G01X1301802Y120634D01*
G01X1302267Y118871D01*
G01X1303499Y117171D01*
G01X1305248Y115655D01*
G01X1307269Y114444D01*
G01X1307269Y114444D01*
G01X1309314Y113660D01*
G01X1311135Y113425D01*
G01X1312485Y113859D01*
G01X1313117Y115084D01*
G01X1312884Y116644D01*
G01X1311980Y118419D01*
G01X1310568Y120162D01*
G01X1308807Y121628D01*
G01X1306130Y122944D01*
G01X1303898Y123193D01*
G01X1302369Y122410D01*
G01X1301802Y120634D01*
G01X1288661Y120634D01*
G01X1288024Y141484D01*
G01X1302298Y141484D01*
G01X1302773Y139347D01*
G01X1304070Y137151D01*
G01X1305998Y135146D01*
G01X1305998Y135146D01*
G01X1308366Y133581D01*
G01X1311212Y132157D01*
G01X1312456Y132972D01*
G01X1313137Y133696D01*
G01X1313430Y134669D01*
G01X1312955Y137114D01*
G01X1311240Y139816D01*
G01X1308494Y142284D01*
G01X1305963Y143654D01*
G01X1304007Y143967D01*
G01X1302745Y143238D01*
G01X1302298Y141484D01*
G01X1288024Y141484D01*
G01X1287704Y151980D01*
G01X1287473Y156554D01*
G01X1301768Y156554D01*
G01X1302225Y155191D01*
G01X1303327Y153897D01*
G01X1303327Y153897D01*
G01X1304991Y153040D01*
G01X1307180Y152596D01*
G01X1309425Y152609D01*
G01X1311253Y153126D01*
G01X1311883Y153678D01*
G01X1312160Y154426D01*
G01X1311764Y156293D01*
G01X1310276Y158294D01*
G01X1307907Y159993D01*
G01X1306242Y160537D01*
G01X1304723Y160487D01*
G01X1303432Y159952D01*
G01X1302455Y159045D01*
G01X1301872Y157875D01*
G01X1301768Y156554D01*
G01X1287473Y156554D01*
G01X1287104Y163890D01*
G01X1325460Y163890D01*
G01X1326337Y149885D01*
G01X1327350Y134526D01*
G01X1327793Y119456D01*
G01X1327649Y106276D01*
G01X1326901Y96584D01*
G01X1326323Y92055D01*
G01X1326177Y88618D01*
G01X1326656Y86129D01*
G01X1327952Y84442D01*
G01X1330261Y83409D01*
G01X1330261Y83409D01*
G01X1333774Y82887D01*
G01X1345188Y82787D01*
G01X1353605Y82924D01*
G01X1354707Y100284D01*
G01X1355526Y116492D01*
G01X1355974Y132885D01*
G01X1355827Y163809D01*
G01X1355265Y177132D01*
G01X1354402Y188221D01*
G01X1353253Y196474D01*
G01X1351836Y201284D01*
G01X1351143Y202170D01*
G01X1350371Y201944D01*
G01X1347650Y197253D01*
G01X1344921Y192594D01*
G01X1341649Y188467D01*
G01X1337848Y184886D01*
G01X1333528Y181864D01*
G01X1330763Y180011D01*
G01X1328636Y178013D01*
G01X1327094Y175634D01*
G01X1326086Y172643D01*
G01X1325559Y168806D01*
G01X1325460Y163890D01*
G01X1287104Y163890D01*
G01X1287020Y165549D01*
G01X1279743Y168724D01*
G01X1266493Y174235D01*
G01X1260006Y176515D01*
G01X1246683Y176515D01*
G01X1246508Y179424D01*
G01X1244753Y197998D01*
G01X1244207Y203412D01*
G01X1265067Y203412D01*
G01X1266069Y197909D01*
G01X1268090Y192644D01*
G01X1271103Y187939D01*
G01X1275080Y184114D01*
G01X1278068Y182327D01*
G01X1281454Y181030D01*
G01X1285171Y180200D01*
G01X1285171Y180200D01*
G01X1289153Y179818D01*
G01X1293332Y179862D01*
G01X1297643Y180311D01*
G01X1306393Y182340D01*
G01X1314868Y185738D01*
G01X1318836Y187898D01*
G01X1322536Y190336D01*
G01X1325900Y193033D01*
G01X1328864Y195968D01*
G01X1331359Y199118D01*
G01X1333319Y202464D01*
G01X1334747Y206062D01*
G01X1335470Y209515D01*
G01X1335488Y212812D01*
G01X1334807Y215945D01*
G01X1333428Y218904D01*
G01X1331355Y221680D01*
G01X1328592Y224262D01*
G01X1325141Y226642D01*
G01X1322071Y229018D01*
G01X1321160Y230363D01*
G01X1320641Y231945D01*
G01X1320701Y236220D01*
G01X1322100Y242638D01*
G01X1323333Y248426D01*
G01X1323952Y253893D01*
G01X1324255Y259195D01*
G01X1322919Y261927D01*
G01X1321501Y264203D01*
G01X1319937Y265677D01*
G01X1318412Y266369D01*
G01X1316872Y266576D01*
G01X1315326Y266303D01*
G01X1313784Y265558D01*
G01X1310750Y262671D01*
G01X1307845Y257964D01*
G01X1304809Y253526D01*
G01X1300909Y250146D01*
G01X1296487Y247866D01*
G01X1291882Y246726D01*
G01X1287437Y246769D01*
G01X1283493Y248035D01*
G01X1281816Y249140D01*
G01X1280392Y250566D01*
G01X1279264Y252319D01*
G01X1278474Y254404D01*
G01X1276650Y258949D01*
G01X1274293Y261886D01*
G01X1273055Y262637D01*
G01X1271851Y262849D01*
G01X1270739Y262476D01*
G01X1269774Y261473D01*
G01X1269290Y259702D01*
G01X1269561Y256461D01*
G01X1272804Y242881D01*
G01X1275170Y233292D01*
G01X1275838Y227448D01*
G01X1275515Y225492D01*
G01X1274743Y223946D01*
G01X1273515Y222634D01*
G01X1271821Y221382D01*
G01X1269999Y219911D01*
G01X1268463Y218138D01*
G01X1266236Y213847D01*
G01X1265114Y208832D01*
G01X1265067Y203412D01*
G01X1244207Y203412D01*
G01X1243790Y207551D01*
G01X1243268Y210282D01*
G01X1242417Y212020D01*
G01X1241009Y213042D01*
G01X1238815Y213627D01*
G01X1231162Y214596D01*
G01X1217409Y216915D01*
G01X1205485Y220036D01*
G01X1194308Y224303D01*
G01X1182795Y230065D01*
G01X1174155Y234811D01*
G01X1167324Y238242D01*
G01X1160355Y241183D01*
G01X1153780Y243430D01*
G01X1148129Y244779D01*
G01X1142190Y245450D01*
G01X1137498Y245297D01*
G01X1134118Y244329D01*
G01X1132940Y243542D01*
G01X1132115Y242554D01*
G01X1130445Y241175D01*
G01X1127067Y239676D01*
G01X1115660Y236496D01*
G01X1106236Y233871D01*
G01X1103477Y232529D01*
G01X1101522Y230972D01*
G01X1099344Y229674D01*
G01X1095515Y228388D01*
G01X1083965Y226021D01*
G01X1068988Y224207D01*
G01X1052704Y223277D01*
G01X1044125Y223347D01*
G01X1037187Y224445D01*
G01X1029519Y227196D01*
G01X1018747Y232226D01*
G01X1007506Y237375D01*
G01X1002941Y239072D01*
G01X998637Y240287D01*
G01X994259Y241098D01*
G01X989475Y241582D01*
G01X977355Y241884D01*
G01X952238Y241255D01*
G01X942178Y240490D01*
G01X933995Y239458D01*
G01X927848Y238186D01*
G01X923897Y236698D01*
G01X922794Y235882D01*
G01X922299Y235021D01*
G01X922433Y234119D01*
G01X923215Y233180D01*
G01X924324Y232449D01*
G01X925951Y231858D01*
G01X931824Y231003D01*
G01X942962Y230437D01*
G01X961492Y229983D01*
G01X978051Y229515D01*
G01X989189Y228851D01*
G01X995464Y227941D01*
G01X996951Y227379D01*
G01X997431Y226736D01*
G01X996287Y226005D01*
G01X993162Y225297D01*
G01X982807Y224264D01*
G01X976241Y223767D01*
G01X956660Y223492D01*
G01X931380Y222859D01*
G01X924594Y222136D01*
G01X921152Y221105D01*
G01X920491Y219698D01*
G01X920185Y217132D01*
G01X920274Y214333D01*
G01X920793Y212230D01*
G01X921619Y211106D01*
G01X922887Y210114D01*
G01X926881Y208494D01*
G01X933049Y207292D01*
G01X941663Y206434D01*
G01X948107Y205943D01*
G01X971158Y204596D01*
G01X989046Y203302D01*
G01X989035Y203049D01*
G01X987245Y202896D01*
G01X978346Y202734D01*
G01X956824Y202327D01*
G01X938768Y201422D01*
G01X925576Y200117D01*
G01X921242Y199346D01*
G01X918649Y198513D01*
G01X917453Y197398D01*
G01X916981Y194669D01*
G01X916368Y190702D01*
G01X916467Y190273D01*
G01X917075Y189839D01*
G01X919730Y188962D01*
G01X930179Y187252D01*
G01X946305Y185742D01*
G01X966697Y184603D01*
G01X976611Y184117D01*
G01X988239Y183574D01*
G01X996376Y183147D01*
G01X997649Y182958D01*
G01X997037Y182783D01*
G01X975372Y182187D01*
G01X942664Y181486D01*
G01X931743Y180968D01*
G01X923833Y180260D01*
G01X918477Y179306D01*
G01X915218Y178049D01*
G01X913597Y176431D01*
G01X913159Y174395D01*
G01X913559Y172640D01*
G01X914851Y171285D01*
G01X917174Y170314D01*
G01X920666Y169714D01*
G01X931712Y169571D01*
G01X949099Y170743D01*
G01X971900Y171801D01*
G01X981885Y171888D01*
G01X986030Y171570D01*
G01X985399Y170963D01*
G01X983501Y170316D01*
G01X975879Y168895D01*
G01X963108Y167298D01*
G01X945133Y165518D01*
G01X926329Y163569D01*
G01X920231Y162592D01*
G01X915906Y161461D01*
G01X913029Y160064D01*
G01X911278Y158288D01*
G01X910330Y156018D01*
G01X909862Y153141D01*
G01X909713Y150352D01*
G01X910346Y148222D01*
G01X912393Y146635D01*
G01X916487Y145473D01*
G01X923257Y144620D01*
G01X933338Y143959D01*
G01X965953Y142741D01*
G01X991730Y141897D01*
G01X973389Y141530D01*
G01X939268Y140642D01*
G01X919794Y139375D01*
G01X914339Y138454D01*
G01X911093Y137265D01*
G01X909572Y135749D01*
G01X909291Y133847D01*
G01X909807Y132060D01*
G01X911298Y130643D01*
G01X914179Y129543D01*
G01X918865Y128708D01*
G01X935315Y127624D01*
G01X963970Y126976D01*
G01X986277Y126467D01*
G01X961739Y124068D01*
G01X933252Y121029D01*
G01X915086Y118318D01*
G01X909610Y117033D01*
G01X906398Y115768D01*
G01X905608Y115137D01*
G01X905344Y114503D01*
G01X905594Y113863D01*
G01X906343Y113216D01*
G01X908404Y112362D01*
G01X911805Y111649D01*
G01X922868Y110635D01*
G01X940012Y110146D01*
G01X963722Y110158D01*
G01X991730Y110419D01*
G01X966944Y107999D01*
G01X940738Y105235D01*
G01X921665Y102759D01*
G01X909731Y100577D01*
G01X906443Y99598D01*
G01X904940Y98695D01*
G01X904858Y98272D01*
G01X892031Y98272D01*
G01X892334Y98440D01*
G01X892753Y99070D01*
G01X892723Y99710D01*
G01X891259Y100962D01*
G01X887829Y102086D01*
G01X882320Y102973D01*
G01X875253Y103424D01*
G01X868797Y103248D01*
G01X863304Y102570D01*
G01X859127Y101514D01*
G01X856618Y100205D01*
G01X856098Y99494D01*
G01X846962Y99494D01*
G01X849721Y110679D01*
G01X860534Y110679D01*
G01X860735Y109477D01*
G01X861587Y108654D01*
G01X863223Y108140D01*
G01X865777Y107861D01*
G01X865777Y107861D01*
G01X874173Y107724D01*
G01X883274Y107978D01*
G01X889002Y108863D01*
G01X890796Y109600D01*
G01X891981Y110564D01*
G01X892634Y111778D01*
G01X892833Y113266D01*
G01X892194Y115907D01*
G01X890246Y117878D01*
G01X886927Y119218D01*
G01X882177Y119964D01*
G01X874245Y121199D01*
G01X869309Y122151D01*
G01X867464Y122067D01*
G01X865936Y121558D01*
G01X864654Y120586D01*
G01X863544Y119113D01*
G01X861550Y114510D01*
G01X860534Y110679D01*
G01X849721Y110679D01*
G01X849726Y110700D01*
G01X854095Y127599D01*
G01X855646Y132914D01*
G01X868011Y132914D01*
G01X868177Y131472D01*
G01X869123Y130270D01*
G01X870836Y129318D01*
G01X870836Y129318D01*
G01X873301Y128627D01*
G01X880442Y128068D01*
G01X884694Y128355D01*
G01X888169Y129134D01*
G01X890789Y130308D01*
G01X892481Y131777D01*
G01X893168Y133443D01*
G01X892777Y135205D01*
G01X891231Y136966D01*
G01X888455Y138626D01*
G01X886029Y139526D01*
G01X883477Y140072D01*
G01X878321Y140145D01*
G01X873635Y138920D01*
G01X871671Y137845D01*
G01X870068Y136474D01*
G01X868637Y134585D01*
G01X868011Y132914D01*
G01X855646Y132914D01*
G01X858488Y142650D01*
G01X861208Y150711D01*
G01X876209Y150711D01*
G01X876365Y149055D01*
G01X876885Y147563D01*
G01X877802Y146286D01*
G01X879148Y145276D01*
G01X882075Y144583D01*
G01X882075Y144583D01*
G01X886446Y144358D01*
G01X890749Y144600D01*
G01X893469Y145304D01*
G01X895244Y147071D01*
G01X896367Y149456D01*
G01X896865Y152238D01*
G01X896768Y155195D01*
G01X896104Y158105D01*
G01X894902Y160748D01*
G01X893191Y162901D01*
G01X890999Y164343D01*
G01X889305Y164793D01*
G01X887587Y164781D01*
G01X884208Y163580D01*
G01X881121Y161155D01*
G01X878587Y157924D01*
G01X876863Y154304D01*
G01X876209Y150711D01*
G01X861208Y150711D01*
G01X863088Y156285D01*
G01X868082Y168936D01*
G01X869414Y171830D01*
G01X885162Y171830D01*
G01X885456Y170265D01*
G01X886579Y169410D01*
G01X888518Y169053D01*
G01X888518Y169053D01*
G01X891259Y168981D01*
G01X894811Y169452D01*
G01X897655Y170706D01*
G01X899711Y172500D01*
G01X900898Y174594D01*
G01X901135Y176746D01*
G01X900341Y178716D01*
G01X898435Y180261D01*
G01X895336Y181141D01*
G01X893624Y181416D01*
G01X893050Y181845D01*
G01X893609Y182697D01*
G01X895300Y184237D01*
G01X896890Y185999D01*
G01X898515Y188450D01*
G01X901562Y194680D01*
G01X903837Y201446D01*
G01X904731Y207268D01*
G01X904550Y208601D01*
G01X904001Y208937D01*
G01X903076Y208267D01*
G01X901768Y206580D01*
G01X897969Y200106D01*
G01X892545Y189427D01*
G01X887115Y177937D01*
G01X885710Y174316D01*
G01X885162Y171830D01*
G01X869414Y171830D01*
G01X873652Y181037D01*
G01X879984Y193019D01*
G01X887263Y205314D01*
G01X895672Y218356D01*
G01X901236Y227609D01*
G01X905783Y237412D01*
G01X909719Y248780D01*
G01X911642Y255966D01*
G01X929528Y255966D01*
G01X929870Y255079D01*
G01X932143Y253368D01*
G01X935532Y252368D01*
G01X941032Y251389D01*
G01X941032Y251389D01*
G01X955208Y249763D01*
G01X968348Y249034D01*
G01X972555Y249176D01*
G01X974132Y249747D01*
G01X971741Y251454D01*
G01X965797Y254391D01*
G01X958149Y257708D01*
G01X950644Y260555D01*
G01X946364Y261487D01*
G01X941898Y261605D01*
G01X937620Y261055D01*
G01X933904Y259982D01*
G01X931124Y258532D01*
G01X929655Y256849D01*
G01X929528Y255966D01*
G01X911642Y255966D01*
G01X913451Y262727D01*
G01X914360Y266294D01*
G01X973389Y266294D01*
G01X977317Y263659D01*
G01X983708Y260589D01*
G01X991875Y257312D01*
G01X1001132Y254056D01*
G01X1010792Y251048D01*
G01X1020169Y248514D01*
G01X1028576Y246683D01*
G01X1035327Y245782D01*
G01X1043245Y244948D01*
G01X1043469Y244723D01*
G01X1043027Y244477D01*
G01X1040214Y243896D01*
G01X1034199Y242449D01*
G01X1030663Y240573D01*
G01X1029905Y239547D01*
G01X1029863Y238503D01*
G01X1030571Y237469D01*
G01X1032059Y236475D01*
G01X1035287Y235335D01*
G01X1039517Y234658D01*
G01X1039517Y234658D01*
G01X1044653Y234439D01*
G01X1050594Y234670D01*
G01X1064505Y236454D01*
G01X1080464Y239953D01*
G01X1106241Y246567D01*
G01X1117920Y249800D01*
G01X1127096Y253084D01*
G01X1134059Y256761D01*
G01X1136802Y258854D01*
G01X1139101Y261173D01*
G01X1140993Y263760D01*
G01X1142514Y266659D01*
G01X1143700Y269912D01*
G01X1144589Y273562D01*
G01X1145617Y282223D01*
G01X1145891Y292983D01*
G01X1145700Y303166D01*
G01X1145103Y311589D01*
G01X1144044Y318393D01*
G01X1143650Y319724D01*
G01X1158465Y319724D01*
G01X1158672Y295565D01*
G01X1158954Y277924D01*
G01X1159292Y272189D01*
G01X1159878Y267935D01*
G01X1160799Y264730D01*
G01X1162141Y262144D01*
G01X1166442Y257097D01*
G01X1173460Y250226D01*
G01X1180554Y244327D01*
G01X1187906Y239313D01*
G01X1195697Y235099D01*
G01X1204108Y231599D01*
G01X1213322Y228725D01*
G01X1223519Y226392D01*
G01X1234880Y224513D01*
G01X1242190Y223731D01*
G01X1242190Y223731D01*
G01X1248305Y223583D01*
G01X1253183Y224049D01*
G01X1256782Y225110D01*
G01X1259061Y226748D01*
G01X1259978Y228944D01*
G01X1259493Y231677D01*
G01X1257563Y234931D01*
G01X1254032Y239852D01*
G01X1252091Y243633D01*
G01X1251337Y247403D01*
G01X1251367Y252290D01*
G01X1251966Y257959D01*
G01X1253154Y264843D01*
G01X1253377Y265841D01*
G01X1287073Y265841D01*
G01X1287717Y263451D01*
G01X1288750Y261984D01*
G01X1290241Y260786D01*
G01X1290241Y260786D01*
G01X1294008Y259314D01*
G01X1295990Y259100D01*
G01X1297841Y259271D01*
G01X1299414Y259858D01*
G01X1300561Y260891D01*
G01X1301071Y262017D01*
G01X1301272Y263421D01*
G01X1300844Y266718D01*
G01X1299464Y270092D01*
G01X1297318Y272856D01*
G01X1295379Y273979D01*
G01X1293336Y274135D01*
G01X1291345Y273481D01*
G01X1289566Y272169D01*
G01X1288155Y270355D01*
G01X1287271Y268195D01*
G01X1287073Y265841D01*
G01X1253377Y265841D01*
G01X1254714Y271841D01*
G01X1255665Y275177D01*
G01X1268977Y275177D01*
G01X1269599Y273098D01*
G01X1269599Y273098D01*
G01X1270275Y272411D01*
G01X1271065Y272151D01*
G01X1273189Y272964D01*
G01X1275236Y274840D01*
G01X1276502Y276935D01*
G01X1276622Y277801D01*
G01X1276282Y278405D01*
G01X1274021Y279178D01*
G01X1271657Y278723D01*
G01X1269780Y277303D01*
G01X1269207Y276312D01*
G01X1268977Y275177D01*
G01X1255665Y275177D01*
G01X1256428Y277855D01*
G01X1257113Y280332D01*
G01X1257229Y282340D01*
G01X1256608Y283986D01*
G01X1255084Y285376D01*
G01X1253174Y286290D01*
G01X1289905Y286290D01*
G01X1290816Y285515D01*
G01X1293225Y284503D01*
G01X1300594Y282271D01*
G01X1308126Y280611D01*
G01X1308126Y280611D01*
G01X1310739Y280312D01*
G01X1311936Y280537D01*
G01X1311565Y281617D01*
G01X1309726Y283062D01*
G01X1306830Y284612D01*
G01X1303289Y286007D01*
G01X1299097Y286961D01*
G01X1294730Y287342D01*
G01X1291296Y287126D01*
G01X1290276Y286787D01*
G01X1289905Y286290D01*
G01X1253174Y286290D01*
G01X1252491Y286616D01*
G01X1248664Y287812D01*
G01X1236639Y290498D01*
G01X1229791Y292065D01*
G01X1322895Y292065D01*
G01X1323098Y290674D01*
G01X1323908Y288838D01*
G01X1327294Y283168D01*
G01X1330651Y276913D01*
G01X1332912Y270457D01*
G01X1334299Y262951D01*
G01X1335033Y253550D01*
G01X1335878Y243477D01*
G01X1337786Y235032D01*
G01X1341379Y226262D01*
G01X1341379Y226262D01*
G01X1347281Y215217D01*
G01X1351207Y208826D01*
G01X1350100Y217398D01*
G01X1349306Y223657D01*
G01X1363434Y223657D01*
G01X1364499Y212134D01*
G01X1365495Y199982D01*
G01X1365999Y191301D01*
G01X1366651Y172106D01*
G01X1366994Y142970D01*
G01X1366966Y114874D01*
G01X1366507Y98796D01*
G01X1366017Y93704D01*
G01X1365688Y90101D01*
G01X1367105Y88683D01*
G01X1368872Y87516D01*
G01X1372025Y86576D01*
G01X1377218Y85828D01*
G01X1385106Y85235D01*
G01X1411589Y84367D01*
G01X1456714Y83680D01*
G01X1456714Y83680D01*
G01X1504105Y82994D01*
G01X1509856Y82824D01*
G01X1510152Y96762D01*
G01X1510591Y106450D01*
G01X1511480Y116823D01*
G01X1514398Y138818D01*
G01X1518491Y161128D01*
G01X1523344Y182135D01*
G01X1528540Y200224D01*
G01X1531137Y207668D01*
G01X1533664Y213775D01*
G01X1536069Y218345D01*
G01X1538300Y221173D01*
G01X1539334Y221871D01*
G01X1540305Y222059D01*
G01X1541207Y221710D01*
G01X1542033Y220799D01*
G01X1542472Y218734D01*
G01X1542036Y214157D01*
G01X1537764Y192293D01*
G01X1533304Y169620D01*
G01X1532185Y162559D01*
G01X1531908Y158932D01*
G01X1532063Y157325D01*
G01X1534632Y160777D01*
G01X1541543Y171441D01*
G01X1547469Y180756D01*
G01X1551419Y185303D01*
G01X1553304Y186959D01*
G01X1554005Y186030D01*
G01X1554641Y183832D01*
G01X1554342Y180289D01*
G01X1553159Y175534D01*
G01X1551141Y169697D01*
G01X1544803Y155305D01*
G01X1535730Y138166D01*
G01X1529105Y125649D01*
G01X1526818Y120385D01*
G01X1525116Y115445D01*
G01X1523922Y110574D01*
G01X1523163Y105518D01*
G01X1522645Y93836D01*
G01X1522644Y82924D01*
G01X1558088Y82961D01*
G01X1577946Y83030D01*
G01X1592706Y83408D01*
G01X1602940Y84419D01*
G01X1606538Y85264D01*
G01X1609219Y86389D01*
G01X1611054Y87836D01*
G01X1612115Y89644D01*
G01X1612473Y91855D01*
G01X1612200Y94510D01*
G01X1610045Y101311D01*
G01X1606222Y110374D01*
G01X1601112Y123829D01*
G01X1597003Y138550D01*
G01X1593712Y155323D01*
G01X1591053Y174933D01*
G01X1588167Y199170D01*
G01X1585455Y218147D01*
G01X1582318Y235605D01*
G01X1578156Y255286D01*
G01X1574397Y271534D01*
G01X1571411Y282599D01*
G01X1568962Y289255D01*
G01X1567864Y291171D01*
G01X1566812Y292274D01*
G01X1565156Y293036D01*
G01X1563288Y292557D01*
G01X1560500Y290443D01*
G01X1556082Y286300D01*
G01X1550161Y281069D01*
G01X1543801Y276384D01*
G01X1537039Y272252D01*
G01X1529910Y268675D01*
G01X1522450Y265658D01*
G01X1514695Y263206D01*
G01X1506681Y261324D01*
G01X1498442Y260014D01*
G01X1490017Y259283D01*
G01X1481439Y259134D01*
G01X1472745Y259571D01*
G01X1463970Y260600D01*
G01X1455151Y262224D01*
G01X1446323Y264448D01*
G01X1437522Y267276D01*
G01X1428784Y270712D01*
G01X1415864Y276119D01*
G01X1408102Y267329D01*
G01X1398390Y256359D01*
G01X1390005Y248311D01*
G01X1381931Y242318D01*
G01X1373150Y237511D01*
G01X1367020Y234178D01*
G01X1365178Y232436D01*
G01X1364028Y230282D01*
G01X1363478Y227446D01*
G01X1363434Y223657D01*
G01X1349306Y223657D01*
G01X1348629Y228990D01*
G01X1348673Y232926D01*
G01X1349391Y236010D01*
G01X1350896Y238530D01*
G01X1353305Y240778D01*
G01X1356733Y243042D01*
G01X1361293Y245614D01*
G01X1366604Y248893D01*
G01X1372733Y253281D01*
G01X1385778Y263927D01*
G01X1397092Y274626D01*
G01X1401056Y279082D01*
G01X1403336Y282455D01*
G01X1404115Y284079D01*
G01X1402736Y286919D01*
G01X1397244Y296599D01*
G01X1389238Y309021D01*
G01X1380882Y320961D01*
G01X1374341Y329196D01*
G01X1372039Y331180D01*
G01X1370957Y331391D01*
G01X1369741Y330980D01*
G01X1366375Y327991D01*
G01X1360871Y321610D01*
G01X1354140Y314223D01*
G01X1347123Y308065D01*
G01X1338875Y302400D01*
G01X1328447Y296497D01*
G01X1324370Y294176D01*
G01X1323314Y293177D01*
G01X1322895Y292065D01*
G01X1229791Y292065D01*
G01X1226421Y292836D01*
G01X1215943Y295748D01*
G01X1205371Y299186D01*
G01X1194872Y303099D01*
G01X1173250Y312769D01*
G01X1158465Y319724D01*
G01X1143650Y319724D01*
G01X1142467Y323716D01*
G01X1140318Y327697D01*
G01X1137540Y330475D01*
G01X1134077Y332188D01*
G01X1129875Y332976D01*
G01X1125326Y333409D01*
G01X1123385Y333615D01*
G01X1122828Y333746D01*
G01X1123270Y334014D01*
G01X1127095Y334939D01*
G01X1131141Y336023D01*
G01X1134137Y337361D01*
G01X1136070Y338879D01*
G01X1136926Y340503D01*
G01X1136690Y342157D01*
G01X1135349Y343766D01*
G01X1132887Y345256D01*
G01X1129292Y346553D01*
G01X1123887Y347566D01*
G01X1118116Y347881D01*
G01X1113130Y347506D01*
G01X1111292Y347062D01*
G01X1110083Y346447D01*
G01X1109430Y345138D01*
G01X1109753Y343266D01*
G01X1110981Y341024D01*
G01X1113040Y338603D01*
G01X1114324Y336855D01*
G01X1115082Y334734D01*
G01X1115299Y332319D01*
G01X1114958Y329685D01*
G01X1114433Y324888D01*
G01X1114718Y322459D01*
G01X1115209Y321626D01*
G01X1116043Y320988D01*
G01X1119069Y320120D01*
G01X1124459Y319497D01*
G01X1127805Y318777D01*
G01X1124459Y317249D01*
G01X1120217Y315224D01*
G01X1118895Y314030D01*
G01X1118111Y312730D01*
G01X1117869Y311336D01*
G01X1118175Y309860D01*
G01X1119031Y308312D01*
G01X1120444Y306706D01*
G01X1121898Y304969D01*
G01X1123109Y302796D01*
G01X1124804Y297148D01*
G01X1125528Y289777D01*
G01X1125276Y280700D01*
G01X1124298Y273188D01*
G01X1123450Y270387D01*
G01X1122245Y268045D01*
G01X1120594Y266025D01*
G01X1118410Y264193D01*
G01X1112089Y260553D01*
G01X1102885Y256483D01*
G01X1093842Y253528D01*
G01X1085001Y251691D01*
G01X1076400Y250970D01*
G01X1068079Y251368D01*
G01X1060077Y252884D01*
G01X1052432Y255520D01*
G01X1045186Y259277D01*
G01X1041393Y261366D01*
G01X1037419Y263081D01*
G01X1033198Y264445D01*
G01X1028661Y265486D01*
G01X1017622Y266170D01*
G01X998640Y266622D01*
G01X980851Y266707D01*
G01X973389Y266294D01*
G01X914360Y266294D01*
G01X916887Y276211D01*
G01X929518Y276211D01*
G01X929901Y275744D01*
G01X931026Y275292D01*
G01X935368Y274437D01*
G01X951438Y272988D01*
G01X975509Y271998D01*
G01X975509Y271998D01*
G01X1005363Y271602D01*
G01X1020137Y271724D01*
G01X1029053Y272288D01*
G01X1031804Y272801D01*
G01X1033678Y273501D01*
G01X1034871Y274414D01*
G01X1035578Y275566D01*
G01X1036012Y277325D01*
G01X1035666Y278790D01*
G01X1034448Y279992D01*
G01X1032266Y280959D01*
G01X1024642Y282307D01*
G01X1012055Y283070D01*
G01X977027Y283670D01*
G01X962886Y283373D01*
G01X951114Y282687D01*
G01X941801Y281621D01*
G01X935037Y280181D01*
G01X930913Y278375D01*
G01X929868Y277337D01*
G01X929518Y276211D01*
G01X916887Y276211D01*
G01X917701Y279406D01*
G01X919107Y283243D01*
G01X920888Y286849D01*
G01X923659Y291772D01*
G01X940545Y291772D01*
G01X941023Y290738D01*
G01X942121Y289883D01*
G01X943894Y289193D01*
G01X949688Y288239D01*
G01X958849Y287750D01*
G01X958849Y287750D01*
G01X989048Y287649D01*
G01X1012413Y287895D01*
G01X1024656Y288550D01*
G01X1027578Y289155D01*
G01X1028883Y290011D01*
G01X1028962Y291169D01*
G01X1028201Y292678D01*
G01X1026613Y294532D01*
G01X1024199Y296058D01*
G01X1020722Y297293D01*
G01X1015943Y298275D01*
G01X1001530Y299631D01*
G01X979057Y300423D01*
G01X958076Y300941D01*
G01X956491Y301122D01*
G01X957378Y301409D01*
G01X979314Y303720D01*
G01X999910Y305933D01*
G01X994690Y308131D01*
G01X982560Y312414D01*
G01X972704Y315069D01*
G01X969173Y315533D01*
G01X1008096Y315533D01*
G01X1008614Y314265D01*
G01X1009887Y312622D01*
G01X1012879Y310328D01*
G01X1017242Y308431D01*
G01X1022595Y306975D01*
G01X1022595Y306975D01*
G01X1028555Y306006D01*
G01X1034741Y305566D01*
G01X1040773Y305701D01*
G01X1046268Y306454D01*
G01X1050845Y307870D01*
G01X1052733Y309065D01*
G01X1053080Y310271D01*
G01X1051944Y311467D01*
G01X1049389Y312630D01*
G01X1040260Y314774D01*
G01X1026183Y316531D01*
G01X1015479Y317305D01*
G01X1009705Y317033D01*
G01X1008428Y316448D01*
G01X1008096Y315533D01*
G01X969173Y315533D01*
G01X968862Y315574D01*
G01X965696Y315547D01*
G01X962816Y314946D01*
G01X959829Y313731D01*
G01X957149Y311911D01*
G01X953549Y308750D01*
G01X945503Y300206D01*
G01X942272Y296116D01*
G01X940631Y293003D01*
G01X940545Y291772D01*
G01X923659Y291772D01*
G01X925064Y294268D01*
G01X929384Y300731D01*
G01X933934Y306311D01*
G01X938799Y311082D01*
G01X944065Y315120D01*
G01X949817Y318498D01*
G01X956142Y321291D01*
G01X963124Y323574D01*
G01X966349Y324365D01*
G01X969520Y324752D01*
G01X980324Y324582D01*
G01X982797Y324480D01*
G01X983625Y326216D01*
G01X985039Y329190D01*
G01X997563Y329190D01*
G01X998200Y327635D01*
G01X1000311Y326328D01*
G01X1004088Y325190D01*
G01X1009723Y324140D01*
G01X1027336Y321989D01*
G01X1035946Y321474D01*
G01X1039343Y321665D01*
G01X1042274Y322189D01*
G01X1044845Y323075D01*
G01X1047159Y324349D01*
G01X1051436Y328169D01*
G01X1054268Y330929D01*
G01X1056381Y331864D01*
G01X1057279Y331649D01*
G01X1058130Y330980D01*
G01X1059872Y328280D01*
G01X1061090Y326344D01*
G01X1062582Y324676D01*
G01X1066187Y322139D01*
G01X1070300Y320661D01*
G01X1070300Y320661D01*
G01X1074529Y320233D01*
G01X1078485Y320846D01*
G01X1081779Y322490D01*
G01X1083055Y323697D01*
G01X1084020Y325159D01*
G01X1084625Y326874D01*
G01X1084820Y328842D01*
G01X1084601Y330683D01*
G01X1083905Y332185D01*
G01X1082601Y333394D01*
G01X1080558Y334356D01*
G01X1073729Y335718D01*
G01X1062370Y336636D01*
G01X1037934Y337602D01*
G01X1019023Y337361D01*
G01X1011808Y336796D01*
G01X1006178Y335939D01*
G01X1002199Y334795D01*
G01X999940Y333367D01*
G01X998207Y331074D01*
G01X997563Y329190D01*
G01X985039Y329190D01*
G01X986711Y332708D01*
G01X988961Y336840D01*
G01X991529Y340367D01*
G01X994463Y343319D01*
G01X995981Y344409D01*
G01X1044215Y344409D01*
G01X1045310Y343138D01*
G01X1048136Y342037D01*
G01X1048136Y342037D01*
G01X1052526Y341205D01*
G01X1058317Y340741D01*
G01X1065344Y340745D01*
G01X1074634Y341622D01*
G01X1077784Y342359D01*
G01X1079853Y343241D01*
G01X1080776Y344228D01*
G01X1080488Y345281D01*
G01X1078926Y346358D01*
G01X1076025Y347420D01*
G01X1071810Y347918D01*
G01X1064685Y348287D01*
G01X1052952Y348242D01*
G01X1047871Y347060D01*
G01X1045013Y345750D01*
G01X1044367Y345077D01*
G01X1044215Y344409D01*
G01X995981Y344409D01*
G01X997814Y345726D01*
G01X1001634Y347619D01*
G01X1005971Y349027D01*
G01X1010878Y349981D01*
G01X1016403Y350512D01*
G01X1023725Y350923D01*
G01X1028796Y353790D01*
G01X1030516Y354786D01*
G01X1047040Y354786D01*
G01X1053701Y353768D01*
G01X1063820Y353319D01*
G01X1074245Y353482D01*
G01X1081823Y354301D01*
G01X1085583Y355383D01*
G01X1088527Y356698D01*
G01X1090627Y358185D01*
G01X1091856Y359788D01*
G01X1092186Y361446D01*
G01X1091587Y363101D01*
G01X1090033Y364694D01*
G01X1088835Y365389D01*
G01X1106511Y365389D01*
G01X1107838Y359819D01*
G01X1109711Y353989D01*
G01X1111446Y353497D01*
G01X1111446Y353497D01*
G01X1114785Y353062D01*
G01X1119405Y352989D01*
G01X1123842Y353248D01*
G01X1126632Y353809D01*
G01X1128641Y355297D01*
G01X1129549Y357196D01*
G01X1129455Y359347D01*
G01X1128460Y361592D01*
G01X1126662Y363775D01*
G01X1124161Y365736D01*
G01X1121057Y367319D01*
G01X1117449Y368366D01*
G01X1110833Y369234D01*
G01X1108730Y369051D01*
G01X1107348Y368385D01*
G01X1106629Y367182D01*
G01X1106511Y365389D01*
G01X1088835Y365389D01*
G01X1087494Y366167D01*
G01X1083213Y367420D01*
G01X1078105Y367703D01*
G01X1072372Y367023D01*
G01X1066216Y365387D01*
G01X1060942Y363083D01*
G01X1054297Y359613D01*
G01X1048816Y356379D01*
G01X1047306Y355290D01*
G01X1047040Y354786D01*
G01X1047040Y354786D01*
G01X1030516Y354786D01*
G01X1044029Y362603D01*
G01X1058157Y370749D01*
G01X1067080Y376190D01*
G01X1069958Y377990D01*
G01X1134682Y377990D01*
G01X1135254Y377096D01*
G01X1136566Y376179D01*
G01X1141491Y373898D01*
G01X1145854Y371903D01*
G01X1147858Y370566D01*
G01X1148016Y370095D01*
G01X1147633Y369729D01*
G01X1145307Y369235D01*
G01X1143876Y368897D01*
G01X1142728Y368267D01*
G01X1141232Y366303D01*
G01X1140723Y363689D01*
G01X1141109Y360772D01*
G01X1142295Y357898D01*
G01X1144188Y355413D01*
G01X1146693Y353663D01*
G01X1149716Y352993D01*
G01X1152238Y352802D01*
G01X1153350Y352206D01*
G01X1153091Y351128D01*
G01X1151498Y349495D01*
G01X1149413Y347699D01*
G01X1150061Y345513D01*
G01X1151517Y342423D01*
G01X1154051Y339154D01*
G01X1157567Y335751D01*
G01X1161970Y332258D01*
G01X1173056Y325180D01*
G01X1186544Y318274D01*
G01X1201672Y311894D01*
G01X1217675Y306395D01*
G01X1233791Y302131D01*
G01X1241653Y300574D01*
G01X1249256Y299458D01*
G01X1255700Y298691D01*
G01X1255700Y298691D01*
G01X1265342Y297931D01*
G01X1275366Y297886D01*
G01X1285519Y298516D01*
G01X1295546Y299780D01*
G01X1305194Y301639D01*
G01X1314207Y304052D01*
G01X1322333Y306978D01*
G01X1329317Y310377D01*
G01X1336512Y315102D01*
G01X1343117Y320572D01*
G01X1348910Y326474D01*
G01X1353674Y332497D01*
G01X1357191Y338325D01*
G01X1359241Y343648D01*
G01X1359647Y346022D01*
G01X1359605Y348151D01*
G01X1359087Y349998D01*
G01X1358066Y351523D01*
G01X1356001Y353266D01*
G01X1353947Y354222D01*
G01X1351986Y354430D01*
G01X1350198Y353931D01*
G01X1348666Y352766D01*
G01X1347471Y350977D01*
G01X1346694Y348603D01*
G01X1346417Y345685D01*
G01X1345931Y343160D01*
G01X1344796Y342008D01*
G01X1344138Y341995D01*
G01X1343501Y342384D01*
G01X1342530Y344444D01*
G01X1341524Y350701D01*
G01X1340693Y359563D01*
G01X1339492Y385985D01*
G01X1338934Y403717D01*
G01X1350992Y403717D01*
G01X1351180Y384993D01*
G01X1352423Y380966D01*
G01X1353884Y377070D01*
G01X1355897Y373143D01*
G01X1358550Y369036D01*
G01X1361930Y364600D01*
G01X1379731Y342351D01*
G01X1394685Y322763D01*
G01X1405231Y309051D01*
G01X1414454Y298055D01*
G01X1422793Y289463D01*
G01X1430689Y282961D01*
G01X1438580Y278237D01*
G01X1446908Y274979D01*
G01X1456110Y272873D01*
G01X1456110Y272873D01*
G01X1466628Y271608D01*
G01X1478368Y271108D01*
G01X1489607Y271622D01*
G01X1500355Y273154D01*
G01X1510621Y275706D01*
G01X1520417Y279281D01*
G01X1529751Y283882D01*
G01X1538635Y289513D01*
G01X1547077Y296177D01*
G01X1554688Y302636D01*
G01X1560134Y306756D01*
G01X1564024Y308947D01*
G01X1566963Y309619D01*
G01X1569136Y310037D01*
G01X1570433Y311508D01*
G01X1571061Y314510D01*
G01X1571225Y319520D01*
G01X1570850Y325752D01*
G01X1570267Y327976D01*
G01X1569317Y329744D01*
G01X1567924Y331161D01*
G01X1566012Y332332D01*
G01X1560319Y334350D01*
G01X1555641Y335926D01*
G01X1551137Y338002D01*
G01X1546667Y340692D01*
G01X1542089Y344110D01*
G01X1537264Y348372D01*
G01X1532051Y353592D01*
G01X1519900Y367365D01*
G01X1513206Y375027D01*
G01X1510732Y377362D01*
G01X1508572Y378842D01*
G01X1506524Y379571D01*
G01X1504388Y379656D01*
G01X1499048Y378311D01*
G01X1494907Y376827D01*
G01X1491756Y375338D01*
G01X1489506Y373647D01*
G01X1488067Y371556D01*
G01X1487351Y368867D01*
G01X1487268Y365381D01*
G01X1488645Y355232D01*
G01X1489935Y347164D01*
G01X1478159Y360084D01*
G01X1469464Y369548D01*
G01X1462384Y376668D01*
G01X1456886Y381457D01*
G01X1452936Y383928D01*
G01X1451531Y384299D01*
G01X1450500Y384096D01*
G01X1449840Y383321D01*
G01X1449545Y381975D01*
G01X1450038Y377578D01*
G01X1451943Y370920D01*
G01X1455713Y361276D01*
G01X1457679Y357752D01*
G01X1459848Y354933D01*
G01X1462329Y352698D01*
G01X1465232Y350929D01*
G01X1468668Y349506D01*
G01X1472748Y348308D01*
G01X1479602Y346221D01*
G01X1486260Y343496D01*
G01X1492663Y340160D01*
G01X1498751Y336240D01*
G01X1505324Y331878D01*
G01X1507787Y330740D01*
G01X1510006Y330279D01*
G01X1512209Y330482D01*
G01X1514623Y331335D01*
G01X1521001Y334939D01*
G01X1525594Y337476D01*
G01X1529156Y338852D01*
G01X1531646Y339129D01*
G01X1533023Y338369D01*
G01X1533249Y336636D01*
G01X1532282Y333991D01*
G01X1530082Y330497D01*
G01X1526611Y326216D01*
G01X1522669Y321290D01*
G01X1519639Y316459D01*
G01X1517553Y311781D01*
G01X1516440Y307311D01*
G01X1515856Y304824D01*
G01X1514833Y302382D01*
G01X1511585Y297696D01*
G01X1506929Y293381D01*
G01X1501094Y289566D01*
G01X1494312Y286379D01*
G01X1486814Y283948D01*
G01X1478831Y282402D01*
G01X1470594Y281869D01*
G01X1463972Y282033D01*
G01X1458611Y282786D01*
G01X1454083Y284562D01*
G01X1449956Y287796D01*
G01X1445801Y292921D01*
G01X1441189Y300371D01*
G01X1428869Y323984D01*
G01X1417995Y345098D01*
G01X1408301Y362749D01*
G01X1399475Y377350D01*
G01X1391206Y389317D01*
G01X1383182Y399064D01*
G01X1375092Y407008D01*
G01X1373231Y408449D01*
G01X1395531Y408449D01*
G01X1396956Y405649D01*
G01X1414925Y376313D01*
G01X1423134Y362627D01*
G01X1427978Y353329D01*
G01X1429428Y350997D01*
G01X1429428Y350997D01*
G01X1431713Y349449D01*
G01X1434782Y348707D01*
G01X1438581Y348794D01*
G01X1441336Y349483D01*
G01X1443149Y350871D01*
G01X1443992Y353130D01*
G01X1443834Y356430D01*
G01X1442646Y360941D01*
G01X1440399Y366835D01*
G01X1432610Y383449D01*
G01X1426977Y394356D01*
G01X1422645Y401637D01*
G01X1419047Y406135D01*
G01X1415617Y408690D01*
G01X1411962Y409599D01*
G01X1406528Y409966D01*
G01X1400954Y409767D01*
G01X1396875Y408977D01*
G01X1395531Y408449D01*
G01X1373231Y408449D01*
G01X1366624Y413563D01*
G01X1357467Y419145D01*
G01X1351110Y422441D01*
G01X1350992Y403717D01*
G01X1338934Y403717D01*
G01X1338343Y422477D01*
G01X1337569Y438314D01*
G01X1337224Y441042D01*
G01X1334922Y440926D01*
G01X1325019Y438804D01*
G01X1310051Y435001D01*
G01X1301058Y433396D01*
G01X1289715Y432166D01*
G01X1276818Y431438D01*
G01X1262930Y431195D01*
G01X1248614Y431418D01*
G01X1234430Y432090D01*
G01X1220941Y433193D01*
G01X1208709Y434710D01*
G01X1198297Y436623D01*
G01X1194929Y437749D01*
G01X1194698Y438155D01*
G01X1195658Y438314D01*
G01X1196942Y438579D01*
G01X1197432Y439296D01*
G01X1197118Y440346D01*
G01X1195986Y441613D01*
G01X1191266Y444755D01*
G01X1185058Y447165D01*
G01X1176997Y448951D01*
G01X1166719Y450218D01*
G01X1154419Y450699D01*
G01X1144687Y449941D01*
G01X1141269Y449175D01*
G01X1139074Y448194D01*
G01X1138297Y447030D01*
G01X1139132Y445714D01*
G01X1141359Y444633D01*
G01X1145155Y443796D01*
G01X1158069Y442756D01*
G01X1168003Y442152D01*
G01X1175661Y441254D01*
G01X1180590Y440135D01*
G01X1181888Y439516D01*
G01X1182334Y438868D01*
G01X1181769Y438225D01*
G01X1179796Y437858D01*
G01X1169941Y437814D01*
G01X1154519Y438058D01*
G01X1145075Y437838D01*
G01X1140179Y437053D01*
G01X1138990Y436417D01*
G01X1138400Y435602D01*
G01X1138376Y434417D01*
G01X1139388Y433426D01*
G01X1141583Y432608D01*
G01X1145105Y431941D01*
G01X1156718Y430982D01*
G01X1175394Y430384D01*
G01X1191417Y429904D01*
G01X1202506Y429219D01*
G01X1209050Y428293D01*
G01X1210740Y427728D01*
G01X1211440Y427091D01*
G01X1211250Y426458D01*
G01X1210157Y425941D01*
G01X1204844Y425219D01*
G01X1194666Y424868D01*
G01X1178788Y424829D01*
G01X1158624Y424718D01*
G01X1146654Y424086D01*
G01X1143556Y423553D01*
G01X1142284Y422866D01*
G01X1142764Y422014D01*
G01X1144922Y420991D01*
G01X1149818Y419610D01*
G01X1157142Y418344D01*
G01X1182086Y415729D01*
G01X1204900Y413571D01*
G01X1214418Y412215D01*
G01X1214707Y412006D01*
G01X1214156Y411850D01*
G01X1210527Y411700D01*
G01X1193113Y412064D01*
G01X1167310Y412760D01*
G01X1150932Y412702D01*
G01X1145673Y412367D01*
G01X1142043Y411816D01*
G01X1139801Y411040D01*
G01X1138705Y410031D01*
G01X1138146Y408597D01*
G01X1137982Y407210D01*
G01X1138699Y404793D01*
G01X1140573Y403220D01*
G01X1141854Y402887D01*
G01X1143317Y402929D01*
G01X1149567Y403329D01*
G01X1159128Y403045D01*
G01X1172025Y402075D01*
G01X1188283Y400418D01*
G01X1194991Y399566D01*
G01X1196149Y399268D01*
G01X1195715Y399032D01*
G01X1176137Y398410D01*
G01X1159349Y397872D01*
G01X1147664Y396872D01*
G01X1140759Y395365D01*
G01X1138996Y394407D01*
G01X1138306Y393307D01*
G01X1138547Y392082D01*
G01X1139440Y390917D01*
G01X1140732Y390047D01*
G01X1142174Y389705D01*
G01X1143909Y389273D01*
G01X1144159Y388743D01*
G01X1144000Y388014D01*
G01X1142470Y385982D01*
G01X1139344Y383233D01*
G01X1135666Y380089D01*
G01X1134826Y378957D01*
G01X1134682Y377990D01*
G01X1069958Y377990D01*
G01X1071866Y379184D01*
G01X1075794Y381227D01*
G01X1079745Y382715D01*
G01X1084600Y384042D01*
G01X1089828Y385512D01*
G01X1092007Y386591D01*
G01X1095024Y391193D01*
G01X1095230Y391468D01*
G01X1106597Y391468D01*
G01X1106620Y390666D01*
G01X1107298Y390152D01*
G01X1107298Y390152D01*
G01X1108665Y389863D01*
G01X1113594Y389708D01*
G01X1117738Y389815D01*
G01X1120589Y390198D01*
G01X1122566Y390957D01*
G01X1124092Y392190D01*
G01X1124880Y393368D01*
G01X1125428Y394920D01*
G01X1125812Y398647D01*
G01X1125267Y402375D01*
G01X1124652Y403928D01*
G01X1123813Y405107D01*
G01X1122913Y405647D01*
G01X1121774Y405711D01*
G01X1118792Y404417D01*
G01X1114898Y401246D01*
G01X1110122Y396217D01*
G01X1107195Y392618D01*
G01X1106597Y391468D01*
G01X1095230Y391468D01*
G01X1099561Y397255D01*
G01X1105649Y403955D01*
G01X1112543Y410530D01*
G01X1119496Y416216D01*
G01X1126012Y421216D01*
G01X1127441Y422448D01*
G01X1127112Y430753D01*
G01X1125997Y455426D01*
G01X1125860Y461667D01*
G01X1137777Y461667D01*
G01X1138072Y459814D01*
G01X1139397Y457918D01*
G01X1141370Y456905D01*
G01X1144724Y456107D01*
G01X1144724Y456107D01*
G01X1153551Y455231D01*
G01X1161821Y455447D01*
G01X1164481Y456013D01*
G01X1165219Y456419D01*
G01X1165480Y456911D01*
G01X1165056Y457829D01*
G01X1163893Y459020D01*
G01X1159990Y461823D01*
G01X1155052Y464521D01*
G01X1150363Y466317D01*
G01X1147205Y466808D01*
G01X1144298Y466661D01*
G01X1141772Y465974D01*
G01X1139757Y464846D01*
G01X1138382Y463377D01*
G01X1137777Y461667D01*
G01X1125860Y461667D01*
G01X1125505Y477851D01*
G01X1125800Y483908D01*
G01X1120234Y488813D01*
G01X1110991Y497618D01*
G01X1102464Y507153D01*
G01X1094575Y517553D01*
G01X1087242Y528955D01*
G01X1080386Y541492D01*
G01X1073927Y555301D01*
G01X1067783Y570517D01*
G01X1061876Y587274D01*
G01X1059717Y593594D01*
G01X1058047Y596564D01*
G01X1057068Y597089D01*
G01X1055820Y597132D01*
G01X1051990Y596248D01*
G01X1045271Y594935D01*
G01X1038911Y594625D01*
G01X1032811Y595358D01*
G01X1026872Y597175D01*
G01X1020993Y600114D01*
G01X1015076Y604216D01*
G01X1009022Y609521D01*
G01X1002732Y616069D01*
G01X995277Y624596D01*
G01X990091Y631241D01*
G01X986061Y637571D01*
G01X982076Y645149D01*
G01X981272Y646711D01*
G01X995138Y646711D01*
G01X995269Y644207D01*
G01X996458Y641444D01*
G01X998820Y638587D01*
G01X1001372Y636540D01*
G01X1004426Y634697D01*
G01X1011186Y631887D01*
G01X1011186Y631887D01*
G01X1014462Y631053D01*
G01X1017382Y630688D01*
G01X1019732Y630859D01*
G01X1021297Y631633D01*
G01X1021550Y632881D01*
G01X1020823Y634868D01*
G01X1017182Y640152D01*
G01X1011878Y645667D01*
G01X1009072Y647945D01*
G01X1006415Y649599D01*
G01X1002947Y650853D01*
G01X999972Y651027D01*
G01X997603Y650285D01*
G01X995954Y648792D01*
G01X995138Y646711D01*
G01X981272Y646711D01*
G01X978115Y652837D01*
G01X976443Y656295D01*
G01X974370Y662370D01*
G01X972316Y669692D01*
G01X972219Y670126D01*
G01X984542Y670126D01*
G01X985284Y666042D01*
G01X987277Y662411D01*
G01X990178Y659401D01*
G01X993642Y657180D01*
G01X993642Y657180D01*
G01X997324Y655916D01*
G01X1000879Y655778D01*
G01X1002501Y656184D01*
G01X1003963Y656934D01*
G01X1005220Y658049D01*
G01X1006230Y659551D01*
G01X1006985Y661538D01*
G01X1007224Y663489D01*
G01X1006969Y665364D01*
G01X1006243Y667124D01*
G01X1005068Y668730D01*
G01X1003465Y670141D01*
G01X1001458Y671319D01*
G01X999069Y672224D01*
G01X993298Y673435D01*
G01X988693Y673452D01*
G01X986950Y673030D01*
G01X985645Y672330D01*
G01X984826Y671360D01*
G01X984542Y670126D01*
G01X972219Y670126D01*
G01X970704Y676894D01*
G01X968082Y694807D01*
G01X967377Y703387D01*
G01X967275Y706139D01*
G01X979133Y706139D01*
G01X979612Y698844D01*
G01X980663Y690534D01*
G01X981709Y686897D01*
G01X983613Y684061D01*
G01X986370Y682025D01*
G01X986370Y682025D01*
G01X989977Y680792D01*
G01X994427Y680363D01*
G01X999717Y680737D01*
G01X1005842Y681917D01*
G01X1012798Y683902D01*
G01X1019539Y686371D01*
G01X1024137Y688677D01*
G01X1026611Y690768D01*
G01X1027058Y691718D01*
G01X1026982Y692595D01*
G01X1026385Y693393D01*
G01X1025270Y694107D01*
G01X1021496Y695252D01*
G01X1015680Y695982D01*
G01X1007841Y696245D01*
G01X995965Y696705D01*
G01X988756Y697751D01*
G01X987269Y698344D01*
G01X988893Y699034D01*
G01X994513Y700225D01*
G01X1006035Y701173D01*
G01X1011960Y701738D01*
G01X1016618Y702686D01*
G01X1020052Y704074D01*
G01X1022309Y705958D01*
G01X1023432Y708398D01*
G01X1023466Y711449D01*
G01X1022456Y715169D01*
G01X1020448Y719615D01*
G01X1018864Y721793D01*
G01X1016758Y723336D01*
G01X1014235Y724246D01*
G01X1011399Y724524D01*
G01X1008353Y724172D01*
G01X1005202Y723190D01*
G01X1002050Y721581D01*
G01X999002Y719345D01*
G01X996646Y717589D01*
G01X994888Y717015D01*
G01X993508Y717627D01*
G01X992288Y719426D01*
G01X990236Y722492D01*
G01X987391Y724244D01*
G01X984767Y724671D01*
G01X982621Y723617D01*
G01X980970Y721159D01*
G01X979828Y717375D01*
G01X979210Y712342D01*
G01X979133Y706139D01*
G01X967275Y706139D01*
G01X967071Y711690D01*
G01X967160Y719699D01*
G01X967641Y727396D01*
G01X968207Y732197D01*
G01X979681Y732197D01*
G01X980525Y730198D01*
G01X980525Y730198D01*
G01X981326Y729658D01*
G01X982372Y729471D01*
G01X984439Y729899D01*
G01X986358Y731066D01*
G01X987919Y732674D01*
G01X1003367Y732674D01*
G01X1003758Y731512D01*
G01X1005085Y730291D01*
G01X1006780Y729523D01*
G01X1006780Y729523D01*
G01X1008676Y729185D01*
G01X1010604Y729253D01*
G01X1012396Y729705D01*
G01X1013885Y730516D01*
G01X1014901Y731663D01*
G01X1015277Y733123D01*
G01X1014865Y734281D01*
G01X1013856Y735519D01*
G01X1012587Y736509D01*
G01X1011397Y736917D01*
G01X1009576Y737156D01*
G01X1006602Y736661D01*
G01X1004508Y735926D01*
G01X1003824Y735367D01*
G01X1003416Y734121D01*
G01X1003367Y732674D01*
G01X987919Y732674D01*
G01X988037Y732796D01*
G01X989387Y734913D01*
G01X990317Y737240D01*
G01X990736Y739600D01*
G01X990554Y741819D01*
G01X989681Y743718D01*
G01X988767Y744638D01*
G01X987760Y745095D01*
G01X986685Y745103D01*
G01X985566Y744676D01*
G01X983295Y742572D01*
G01X981143Y738895D01*
G01X979875Y735188D01*
G01X979681Y732197D01*
G01X968207Y732197D01*
G01X968510Y734762D01*
G01X969762Y741780D01*
G01X971394Y748431D01*
G01X973402Y754696D01*
G01X973807Y755695D01*
G01X986093Y755695D01*
G01X986429Y754627D01*
G01X987139Y753676D01*
G01X989725Y752107D01*
G01X993941Y750953D01*
G01X993941Y750953D01*
G01X999876Y750177D01*
G01X1017260Y749620D01*
G01X1029234Y749809D01*
G01X1035612Y750593D01*
G01X1037117Y751334D01*
G01X1037721Y752375D01*
G01X1037590Y753766D01*
G01X1036889Y755556D01*
G01X1034686Y758705D01*
G01X1031138Y761348D01*
G01X1026070Y763584D01*
G01X1019306Y765514D01*
G01X1013905Y766585D01*
G01X1008844Y767185D01*
G01X1004169Y767318D01*
G01X999929Y766992D01*
G01X996171Y766214D01*
G01X992943Y764989D01*
G01X990293Y763324D01*
G01X988269Y761227D01*
G01X986500Y758200D01*
G01X986093Y755695D01*
G01X973807Y755695D01*
G01X975782Y760559D01*
G01X978531Y766000D01*
G01X981645Y771001D01*
G01X984167Y774300D01*
G01X1003213Y774300D01*
G01X1003362Y773191D01*
G01X1003989Y772158D01*
G01X1005005Y771261D01*
G01X1007856Y770117D01*
G01X1007856Y770117D01*
G01X1009514Y769989D01*
G01X1011212Y770238D01*
G01X1012843Y770864D01*
G01X1014051Y771704D01*
G01X1014828Y772693D01*
G01X1015166Y773766D01*
G01X1015060Y774858D01*
G01X1014502Y775904D01*
G01X1013485Y776841D01*
G01X1012003Y777603D01*
G01X1009677Y778043D01*
G01X1007279Y777768D01*
G01X1005149Y776865D01*
G01X1003630Y775424D01*
G01X1003213Y774300D01*
G01X984167Y774300D01*
G01X985119Y775544D01*
G01X988950Y779612D01*
G01X993134Y783185D01*
G01X994953Y784570D01*
G01X994946Y787649D01*
G01X993952Y799408D01*
G01X992455Y817554D01*
G01X992160Y828475D01*
G01X1001611Y828475D01*
G01X1002305Y825509D01*
G01X1002968Y824291D01*
G01X1003995Y823232D01*
G01X1007603Y821523D01*
G01X1014051Y820260D01*
G01X1024259Y819323D01*
G01X1039149Y818588D01*
G01X1086660Y817242D01*
G01X1109216Y816524D01*
G01X1096823Y816303D01*
G01X1073524Y816028D01*
G01X1047994Y815523D01*
G01X1026493Y814834D01*
G01X1012390Y813654D01*
G01X1007958Y812858D01*
G01X1005189Y811915D01*
G01X1004022Y810815D01*
G01X1004394Y809549D01*
G01X1006263Y808122D01*
G01X1009551Y806772D01*
G01X1014449Y805465D01*
G01X1021150Y804170D01*
G01X1040724Y801482D01*
G01X1069806Y798448D01*
G01X1097151Y795685D01*
G01X1100104Y795207D01*
G01X1096575Y795252D01*
G01X1057905Y796585D01*
G01X1028785Y796845D01*
G01X1018119Y796576D01*
G01X1010216Y796043D01*
G01X1005200Y795247D01*
G01X1003814Y794751D01*
G01X1003197Y794190D01*
G01X1002911Y792368D01*
G01X1003762Y790805D01*
G01X1006040Y789427D01*
G01X1010035Y788162D01*
G01X1024336Y785683D01*
G01X1048986Y782792D01*
G01X1071510Y780097D01*
G01X1071755Y779961D01*
G01X1071478Y779856D01*
G01X1069412Y779718D01*
G01X1059644Y779614D01*
G01X1044726Y779153D01*
G01X1040147Y778576D01*
G01X1037388Y777715D01*
G01X1036668Y777166D01*
G01X1036376Y776530D01*
G01X1037035Y774979D01*
G01X1039291Y773022D01*
G01X1043070Y770620D01*
G01X1047068Y767920D01*
G01X1049413Y765395D01*
G01X1050197Y762899D01*
G01X1049512Y760283D01*
G01X1048437Y756897D01*
G01X1048493Y755384D01*
G01X1048954Y753987D01*
G01X1049827Y752705D01*
G01X1051119Y751533D01*
G01X1054989Y749514D01*
G01X1060619Y747907D01*
G01X1068068Y746690D01*
G01X1077390Y745843D01*
G01X1088643Y745344D01*
G01X1110126Y744215D01*
G01X1115567Y743392D01*
G01X1116937Y742919D01*
G01X1117395Y742406D01*
G01X1116827Y741852D01*
G01X1115002Y741394D01*
G01X1106843Y740732D01*
G01X1067327Y740196D01*
G01X1044744Y740100D01*
G01X1032866Y739799D01*
G01X1027985Y739066D01*
G01X1027010Y738465D01*
G01X1026395Y737670D01*
G01X1026273Y735687D01*
G01X1027065Y732767D01*
G01X1028321Y730125D01*
G01X1029597Y728975D01*
G01X1066884Y726506D01*
G01X1113181Y723007D01*
G01X1136730Y720505D01*
G01X1138389Y720115D01*
G01X1138582Y719949D01*
G01X1138340Y719810D01*
G01X1133038Y719483D01*
G01X1101293Y719926D01*
G01X1040683Y721821D01*
G01X1034011Y721926D01*
G01X1031636Y721654D01*
G01X1033643Y715825D01*
G01X1035397Y711293D01*
G01X1037241Y707879D01*
G01X1039861Y705379D01*
G01X1043943Y703589D01*
G01X1050173Y702304D01*
G01X1059238Y701319D01*
G01X1088612Y699434D01*
G01X1109822Y698029D01*
G01X1092255Y697514D01*
G01X1063551Y696755D01*
G01X1054336Y696205D01*
G01X1047893Y695427D01*
G01X1043734Y694333D01*
G01X1041368Y692837D01*
G01X1040308Y690854D01*
G01X1040063Y688296D01*
G01X1040293Y686372D01*
G01X1041029Y684676D01*
G01X1042339Y683170D01*
G01X1044290Y681815D01*
G01X1050388Y679407D01*
G01X1059867Y677146D01*
G01X1067799Y675304D01*
G01X1069062Y674807D01*
G01X1067998Y674397D01*
G01X1053374Y673204D01*
G01X1034853Y671929D01*
G01X1028892Y671218D01*
G01X1024714Y670335D01*
G01X1022007Y669188D01*
G01X1020460Y667686D01*
G01X1019761Y665737D01*
G01X1019597Y663248D01*
G01X1020236Y660108D01*
G01X1021932Y657728D01*
G01X1024357Y656143D01*
G01X1027180Y655392D01*
G01X1030072Y655510D01*
G01X1032703Y656533D01*
G01X1034744Y658499D01*
G01X1035865Y661444D01*
G01X1036580Y664915D01*
G01X1037626Y666519D01*
G01X1038683Y667306D01*
G01X1039743Y667602D01*
G01X1040766Y667441D01*
G01X1041713Y666858D01*
G01X1043219Y664565D01*
G01X1043946Y660997D01*
G01X1044065Y658916D01*
G01X1044604Y657343D01*
G01X1046237Y656149D01*
G01X1049637Y655205D01*
G01X1064432Y653553D01*
G01X1094381Y651355D01*
G01X1128338Y649059D01*
G01X1130259Y648941D01*
G01X1129540Y648621D01*
G01X1114173Y648169D01*
G01X1080487Y647683D01*
G01X1069134Y647084D01*
G01X1060578Y646106D01*
G01X1054171Y644645D01*
G01X1049267Y642595D01*
G01X1045216Y639850D01*
G01X1041373Y636305D01*
G01X1035991Y630890D01*
G01X1043852Y630554D01*
G01X1103515Y627035D01*
G01X1126737Y625394D01*
G01X1129790Y625042D01*
G01X1130284Y624732D01*
G01X1128911Y624492D01*
G01X1120368Y624555D01*
G01X1055202Y626065D01*
G01X1005995Y627099D01*
G01X1012202Y620087D01*
G01X1020702Y611731D01*
G01X1024122Y609337D01*
G01X1027609Y607485D01*
G01X1031169Y606172D01*
G01X1034808Y605399D01*
G01X1038533Y605164D01*
G01X1042348Y605466D01*
G01X1046262Y606306D01*
G01X1050279Y607681D01*
G01X1054445Y608980D01*
G01X1059824Y610008D01*
G01X1074208Y611248D01*
G01X1093407Y611398D01*
G01X1117395Y610458D01*
G01X1133506Y609679D01*
G01X1142181Y609181D01*
G01X1152458Y608664D01*
G01X1166361Y607906D01*
G01X1165241Y607648D01*
G01X1158539Y607509D01*
G01X1114893Y607026D01*
G01X1087606Y606234D01*
G01X1078964Y605667D01*
G01X1073050Y604955D01*
G01X1069411Y604077D01*
G01X1067594Y603009D01*
G01X1066908Y601590D01*
G01X1066882Y599764D01*
G01X1067418Y597702D01*
G01X1068418Y595574D01*
G01X1069784Y593553D01*
G01X1071419Y591810D01*
G01X1073225Y590514D01*
G01X1075105Y589839D01*
G01X1078902Y589120D01*
G01X1079720Y588539D01*
G01X1078070Y587368D01*
G01X1076615Y586553D01*
G01X1075647Y585460D01*
G01X1075179Y583993D01*
G01X1075225Y582054D01*
G01X1076912Y576373D01*
G01X1080816Y567644D01*
G01X1083668Y562178D01*
G01X1084575Y561256D01*
G01X1085629Y560841D01*
G01X1092580Y559620D01*
G01X1105026Y558034D01*
G01X1139454Y554578D01*
G01X1169429Y551908D01*
G01X1181439Y550589D01*
G01X1181744Y550447D01*
G01X1181000Y550374D01*
G01X1176423Y550421D01*
G01X1155317Y551205D01*
G01X1128624Y552054D01*
G01X1108711Y552126D01*
G01X1095876Y551426D01*
G01X1092206Y550788D01*
G01X1090417Y549959D01*
G01X1089730Y548380D01*
G01X1090663Y546908D01*
G01X1093276Y545527D01*
G01X1097623Y544224D01*
G01X1111752Y541796D01*
G01X1133506Y539515D01*
G01X1163198Y536723D01*
G01X1170825Y535762D01*
G01X1173671Y535052D01*
G01X1171760Y534561D01*
G01X1165115Y534258D01*
G01X1137719Y534097D01*
G01X1104258Y533835D01*
G01X1099560Y533279D01*
G01X1097383Y532664D01*
G01X1097049Y532199D01*
G01X1097116Y531558D01*
G01X1098148Y529531D01*
G01X1100271Y527060D01*
G01X1103709Y524954D01*
G01X1108555Y523200D01*
G01X1114897Y521779D01*
G01X1122828Y520677D01*
G01X1132437Y519878D01*
G01X1157052Y519123D01*
G01X1162793Y518943D01*
G01X1163084Y518754D01*
G01X1161534Y518485D01*
G01X1135117Y516374D01*
G01X1115405Y514848D01*
G01X1108500Y513976D01*
G01X1110899Y511475D01*
G01X1120661Y503101D01*
G01X1133418Y492763D01*
G01X1147003Y483038D01*
G01X1161213Y474034D01*
G01X1175843Y465858D01*
G01X1190688Y458617D01*
G01X1205543Y452418D01*
G01X1220203Y447368D01*
G01X1234464Y443574D01*
G01X1234464Y443574D01*
G01X1244260Y442059D01*
G01X1255928Y441332D01*
G01X1268748Y441339D01*
G01X1281997Y442024D01*
G01X1294953Y443333D01*
G01X1306896Y445210D01*
G01X1317103Y447601D01*
G01X1324853Y450452D01*
G01X1334969Y456193D01*
G01X1345985Y463854D01*
G01X1357426Y472986D01*
G01X1368818Y483145D01*
G01X1379684Y493883D01*
G01X1389549Y504755D01*
G01X1397940Y515314D01*
G01X1404379Y525115D01*
G01X1411778Y538654D01*
G01X1418463Y552213D01*
G01X1424449Y565909D01*
G01X1429755Y579862D01*
G01X1434399Y594190D01*
G01X1438397Y609010D01*
G01X1441768Y624441D01*
G01X1444529Y640601D01*
G01X1446698Y657609D01*
G01X1448292Y675582D01*
G01X1449329Y694639D01*
G01X1449826Y714898D01*
G01X1449801Y736478D01*
G01X1449271Y759496D01*
G01X1448255Y784070D01*
G01X1446769Y810320D01*
G01X1445550Y826388D01*
G01X1443958Y841832D01*
G01X1441983Y856684D01*
G01X1439613Y870974D01*
G01X1436837Y884735D01*
G01X1433644Y897996D01*
G01X1430023Y910788D01*
G01X1425964Y923144D01*
G01X1421455Y935094D01*
G01X1416486Y946670D01*
G01X1411045Y957901D01*
G01X1405121Y968820D01*
G01X1398705Y979457D01*
G01X1391783Y989844D01*
G01X1384347Y1000012D01*
G01X1376384Y1009991D01*
G01X1370880Y1016208D01*
G01X1364835Y1022296D01*
G01X1358295Y1028229D01*
G01X1351308Y1033981D01*
G01X1343922Y1039527D01*
G01X1336184Y1044840D01*
G01X1319842Y1054661D01*
G01X1302663Y1063238D01*
G01X1293878Y1066994D01*
G01X1285027Y1070360D01*
G01X1276157Y1073311D01*
G01X1267315Y1075820D01*
G01X1258549Y1077862D01*
G01X1249906Y1079409D01*
G01X1243205Y1079962D01*
G01X1234927Y1079914D01*
G01X1225491Y1079319D01*
G01X1215317Y1078230D01*
G01X1204822Y1076699D01*
G01X1194425Y1074781D01*
G01X1184545Y1072527D01*
G01X1175601Y1069991D01*
G01X1169284Y1067517D01*
G01X1167790Y1066539D01*
G01X1167393Y1065793D01*
G01X1168081Y1065323D01*
G01X1169844Y1065173D01*
G01X1176553Y1066012D01*
G01X1183375Y1066821D01*
G01X1190038Y1066571D01*
G01X1196696Y1065244D01*
G01X1203507Y1062822D01*
G01X1209351Y1060316D01*
G01X1204889Y1060684D01*
G01X1190931Y1061130D01*
G01X1172512Y1060941D01*
G01X1155348Y1060257D01*
G01X1145155Y1059219D01*
G01X1141640Y1058078D01*
G01X1140235Y1056910D01*
G01X1140302Y1056323D01*
G01X1140869Y1055738D01*
G01X1143470Y1054585D01*
G01X1147966Y1053473D01*
G01X1154284Y1052425D01*
G01X1172098Y1050617D01*
G01X1175814Y1050213D01*
G01X1175868Y1049964D01*
G01X1174688Y1049757D01*
G01X1157479Y1048942D01*
G01X1137752Y1048044D01*
G01X1124630Y1046602D01*
G01X1120132Y1045605D01*
G01X1116789Y1044386D01*
G01X1114435Y1042915D01*
G01X1112904Y1041164D01*
G01X1112232Y1039571D01*
G01X1112695Y1038298D01*
G01X1114720Y1037285D01*
G01X1118735Y1036471D01*
G01X1134445Y1035195D01*
G01X1163249Y1033981D01*
G01X1178757Y1033287D01*
G01X1160415Y1032835D01*
G01X1130906Y1032022D01*
G01X1111801Y1030607D01*
G01X1105265Y1029565D01*
G01X1100268Y1028241D01*
G01X1096456Y1026591D01*
G01X1093476Y1024572D01*
G01X1092026Y1023243D01*
G01X1091434Y1022206D01*
G01X1091928Y1021418D01*
G01X1093734Y1020834D01*
G01X1102194Y1020100D01*
G01X1118634Y1019647D01*
G01X1143278Y1018787D01*
G01X1149768Y1018131D01*
G01X1153797Y1017227D01*
G01X1156100Y1016101D01*
G01X1156396Y1015564D01*
G01X1156138Y1015045D01*
G01X1154003Y1014072D01*
G01X1149786Y1013198D01*
G01X1135472Y1011801D01*
G01X1113925Y1010968D01*
G01X1095388Y1010274D01*
G01X1082686Y1008943D01*
G01X1078105Y1007968D01*
G01X1074484Y1006750D01*
G01X1071654Y1005260D01*
G01X1069449Y1003471D01*
G01X1067704Y1001355D01*
G01X1066789Y999441D01*
G01X1066767Y997954D01*
G01X1067699Y997119D01*
G01X1075982Y995863D01*
G01X1094592Y994583D01*
G01X1150856Y993280D01*
G01X1156309Y993199D01*
G01X1150608Y992843D01*
G01X1135489Y992156D01*
G01X1122104Y991614D01*
G01X1110951Y991118D01*
G01X1085594Y989766D01*
G01X1067647Y988010D01*
G01X1061410Y986976D01*
G01X1056975Y985834D01*
G01X1054326Y984582D01*
G01X1053667Y983914D01*
G01X1053447Y983218D01*
G01X1053886Y982013D01*
G01X1055257Y980959D01*
G01X1057642Y980042D01*
G01X1061124Y979247D01*
G01X1071703Y977962D01*
G01X1087652Y976985D01*
G01X1101780Y976338D01*
G01X1075507Y975004D01*
G01X1063247Y974242D01*
G01X1054484Y973044D01*
G01X1048527Y971274D01*
G01X1046386Y970130D01*
G01X1044688Y968790D01*
G01X1043069Y966953D01*
G01X1042574Y965460D01*
G01X1043395Y964261D01*
G01X1045726Y963303D01*
G01X1049760Y962532D01*
G01X1055692Y961896D01*
G01X1074020Y960821D01*
G01X1087900Y960165D01*
G01X1094840Y959826D01*
G01X1089139Y959497D01*
G01X1069310Y958659D01*
G01X1052716Y957590D01*
G01X1046698Y956708D01*
G01X1041962Y955515D01*
G01X1038332Y953953D01*
G01X1035629Y951964D01*
G01X1033675Y949489D01*
G01X1032292Y946469D01*
G01X1031989Y945153D01*
G01X1032369Y944316D01*
G01X1033667Y943764D01*
G01X1036116Y943301D01*
G01X1051204Y941699D01*
G01X1077404Y939487D01*
G01X1134497Y935508D01*
G01X1142322Y934747D01*
G01X1131523Y934616D01*
G01X1084644Y935105D01*
G01X1053832Y934882D01*
G01X1035991Y933869D01*
G01X1030969Y933042D01*
G01X1028028Y931987D01*
G01X1026063Y929935D01*
G01X1024843Y927025D01*
G01X1024611Y924214D01*
G01X1024942Y923145D01*
G01X1025611Y922459D01*
G01X1031700Y921363D01*
G01X1045880Y919936D01*
G01X1094096Y916475D01*
G01X1113429Y915241D01*
G01X1122600Y914684D01*
G01X1128755Y914173D01*
G01X1091824Y913979D01*
G01X1059378Y913776D01*
G01X1037903Y913094D01*
G01X1025169Y911806D01*
G01X1021383Y910895D01*
G01X1018946Y909783D01*
G01X1017260Y908141D01*
G01X1016147Y906066D01*
G01X1015795Y904081D01*
G01X1016392Y902707D01*
G01X1018260Y902034D01*
G01X1022265Y901317D01*
G01X1037054Y899717D01*
G01X1096283Y895629D01*
G01X1121181Y893995D01*
G01X1078097Y893216D01*
G01X1037353Y892518D01*
G01X1023572Y891630D01*
G01X1017832Y890818D01*
G01X1013866Y889741D01*
G01X1011351Y888271D01*
G01X1009961Y886280D01*
G01X1009651Y884637D01*
G01X1010396Y883329D01*
G01X1012481Y882318D01*
G01X1016191Y881565D01*
G01X1029619Y880673D01*
G01X1052952Y880341D01*
G01X1081050Y879802D01*
G01X1100836Y878621D01*
G01X1107172Y877832D01*
G01X1110901Y876934D01*
G01X1111733Y876448D01*
G01X1111847Y875942D01*
G01X1109835Y874875D01*
G01X1104880Y873835D01*
G01X1096445Y873148D01*
G01X1058900Y872325D01*
G01X1028414Y871747D01*
G01X1011379Y870675D01*
G01X1006771Y869809D01*
G01X1004165Y868646D01*
G01X1003106Y867127D01*
G01X1003141Y865194D01*
G01X1003856Y862970D01*
G01X1005364Y861277D01*
G01X1008210Y860061D01*
G01X1012942Y859265D01*
G01X1020104Y858832D01*
G01X1030241Y858705D01*
G01X1061627Y859148D01*
G01X1081038Y859235D01*
G01X1097779Y858654D01*
G01X1112237Y857381D01*
G01X1124797Y855393D01*
G01X1126503Y854907D01*
G01X1126727Y854678D01*
G01X1126519Y854459D01*
G01X1121199Y853650D01*
G01X1108268Y852920D01*
G01X1087156Y852219D01*
G01X1043937Y850579D01*
G01X1027926Y849590D01*
G01X1015763Y848501D01*
G01X1007536Y847323D01*
G01X1003333Y846064D01*
G01X1002767Y845408D01*
G01X1003240Y844735D01*
G01X1007345Y843345D01*
G01X1014754Y842124D01*
G01X1027918Y840847D01*
G01X1065585Y838960D01*
G01X1105746Y837546D01*
G01X1109570Y837429D01*
G01X1109786Y837295D01*
G01X1108968Y837113D01*
G01X1075259Y836401D01*
G01X1034383Y835774D01*
G01X1021248Y835303D01*
G01X1012083Y834631D01*
G01X1006211Y833685D01*
G01X1002958Y832392D01*
G01X1002103Y831593D01*
G01X1001650Y830680D01*
G01X1001611Y828475D01*
G01X992160Y828475D01*
G01X991961Y835822D01*
G01X992471Y852654D01*
G01X993983Y866492D01*
G01X995832Y874945D01*
G01X1001051Y893153D01*
G01X1005623Y909274D01*
G01X1008368Y918503D01*
G01X1011501Y927604D01*
G01X1015032Y936604D01*
G01X1018974Y945526D01*
G01X1023338Y954396D01*
G01X1028137Y963240D01*
G01X1039082Y980947D01*
G01X1047674Y994587D01*
G01X1051113Y1000371D01*
G01X1055583Y1006550D01*
G01X1060921Y1012957D01*
G01X1066961Y1019427D01*
G01X1073542Y1025792D01*
G01X1080497Y1031885D01*
G01X1087663Y1037539D01*
G01X1094877Y1042589D01*
G01X1112655Y1053901D01*
G01X1128537Y1063315D01*
G01X1142912Y1070996D01*
G01X1156172Y1077107D01*
G01X1168709Y1081812D01*
G01X1180913Y1085275D01*
G01X1193174Y1087660D01*
G01X1205885Y1089131D01*
G01X1215795Y1090056D01*
G01X1225114Y1090440D01*
G01X1235128Y1090051D01*
G01X1251734Y1089077D01*
G01X1264400Y1088195D01*
G01X1275033Y1085873D01*
G01X1288728Y1081864D01*
G01X1301827Y1077029D01*
G01X1314455Y1071297D01*
G01X1326734Y1064592D01*
G01X1338790Y1056842D01*
G01X1350745Y1047973D01*
G01X1362723Y1037913D01*
G01X1374848Y1026586D01*
G01X1381178Y1020106D01*
G01X1387270Y1013294D01*
G01X1393122Y1006153D01*
G01X1398735Y998684D01*
G01X1409237Y982769D01*
G01X1418769Y965559D01*
G01X1427327Y947068D01*
G01X1434903Y927308D01*
G01X1441492Y906289D01*
G01X1447087Y884026D01*
G01X1449267Y874819D01*
G01X1450593Y870662D01*
G01X1452459Y862771D01*
G01X1455458Y846529D01*
G01X1456468Y839088D01*
G01X1456999Y829901D01*
G01X1457379Y811744D01*
G01X1457683Y760532D01*
G01X1457382Y709475D01*
G01X1457003Y691513D01*
G01X1456473Y682598D01*
G01X1455995Y672678D01*
G01X1455212Y653581D01*
G01X1453266Y628723D01*
G01X1450834Y610006D01*
G01X1449298Y602143D01*
G01X1447474Y594847D01*
G01X1442746Y580668D01*
G01X1438287Y568764D01*
G01X1430431Y552092D01*
G01X1420019Y532307D01*
G01X1414676Y522883D01*
G01X1408554Y512526D01*
G01X1402139Y502923D01*
G01X1395341Y493979D01*
G01X1388072Y485596D01*
G01X1380242Y477678D01*
G01X1371762Y470129D01*
G01X1362542Y462854D01*
G01X1352495Y455754D01*
G01X1348528Y452762D01*
G01X1347321Y451301D01*
G01X1346550Y449599D01*
G01X1346156Y447454D01*
G01X1346078Y444668D01*
G01X1346629Y436374D01*
G01X1347078Y432605D01*
G01X1347837Y430500D01*
G01X1349245Y429585D01*
G01X1351643Y429385D01*
G01X1356741Y428951D01*
G01X1362165Y427538D01*
G01X1368394Y424982D01*
G01X1375912Y421119D01*
G01X1382852Y417307D01*
G01X1398715Y416429D01*
G01X1415877Y415358D01*
G01X1421210Y414571D01*
G01X1425062Y413275D01*
G01X1427947Y411214D01*
G01X1430377Y408134D01*
G01X1435925Y397889D01*
G01X1437983Y394171D01*
G01X1439629Y392394D01*
G01X1441634Y392126D01*
G01X1444772Y392934D01*
G01X1447834Y393613D01*
G01X1450867Y393759D01*
G01X1453916Y393357D01*
G01X1457022Y392388D01*
G01X1460230Y390835D01*
G01X1463585Y388680D01*
G01X1470904Y382497D01*
G01X1474927Y378837D01*
G01X1476399Y377838D01*
G01X1477718Y377356D01*
G01X1479037Y377365D01*
G01X1480509Y377836D01*
G01X1484531Y380054D01*
G01X1492605Y384434D01*
G01X1499720Y387285D01*
G01X1506022Y388576D01*
G01X1508912Y388628D01*
G01X1511652Y388279D01*
G01X1514261Y387525D01*
G01X1516756Y386363D01*
G01X1519156Y384789D01*
G01X1521477Y382799D01*
G01X1525958Y377557D01*
G01X1530344Y370608D01*
G01X1532242Y367717D01*
G01X1534653Y364890D01*
G01X1537581Y362125D01*
G01X1541028Y359418D01*
G01X1545738Y355677D01*
G01X1550648Y352113D01*
G01X1554178Y349561D01*
G01X1556754Y347240D01*
G01X1558032Y345921D01*
G01X1559441Y345040D01*
G01X1565420Y343343D01*
G01X1569982Y341924D01*
G01X1573683Y339978D01*
G01X1576596Y337355D01*
G01X1578791Y333907D01*
G01X1580339Y329486D01*
G01X1581310Y323943D01*
G01X1581775Y317130D01*
G01X1581804Y308897D01*
G01X1581635Y299679D01*
G01X1580272Y297261D01*
G01X1579313Y295315D01*
G01X1579003Y293626D01*
G01X1579347Y291601D01*
G01X1580349Y288644D01*
G01X1584286Y274846D01*
G01X1588813Y257271D01*
G01X1592014Y244338D01*
G01X1596201Y225278D01*
G01X1598168Y215469D01*
G01X1599531Y206911D01*
G01X1600482Y198174D01*
G01X1601211Y187829D01*
G01X1602842Y163197D01*
G01X1604450Y146429D01*
G01X1606218Y136043D01*
G01X1607219Y132778D01*
G01X1608330Y130553D01*
G01X1612114Y123696D01*
G01X1615647Y114950D01*
G01X1618881Y104454D01*
G01X1621767Y92348D01*
G01X1624520Y79931D01*
G01X1625506Y75343D01*
G01X1607567Y75049D01*
G01X1545077Y74864D01*
G01X1234384Y74739D01*
G37*
G36*
G01X1061006Y88371D02*
G01X1057907Y88104D01*
G01X1057923Y120323D01*
G01X1076746Y120323D01*
G01X1076923Y117759D01*
G01X1076923Y117759D01*
G01X1077528Y116560D01*
G01X1078675Y116654D01*
G01X1080476Y117969D01*
G01X1082674Y120583D01*
G01X1083988Y123574D01*
G01X1084303Y126526D01*
G01X1083505Y129020D01*
G01X1082515Y129995D01*
G01X1081421Y130194D01*
G01X1080296Y129709D01*
G01X1079212Y128635D01*
G01X1077460Y125095D01*
G01X1076746Y120323D01*
G01X1057923Y120323D01*
G01X1057925Y123706D01*
G01X1057798Y151498D01*
G01X1057318Y171663D01*
G01X1057106Y175076D01*
G01X1070319Y175076D01*
G01X1070987Y171802D01*
G01X1072681Y168353D01*
G01X1074842Y165625D01*
G01X1075922Y164813D01*
G01X1075922Y164813D01*
G01X1076909Y164517D01*
G01X1078258Y165025D01*
G01X1079340Y166396D01*
G01X1080127Y168401D01*
G01X1080594Y170811D01*
G01X1080713Y173396D01*
G01X1080457Y175928D01*
G01X1079799Y178176D01*
G01X1078712Y179911D01*
G01X1077548Y180757D01*
G01X1076224Y181078D01*
G01X1074837Y180929D01*
G01X1073483Y180365D01*
G01X1072257Y179443D01*
G01X1071258Y178217D01*
G01X1070580Y176742D01*
G01X1070319Y175076D01*
G01X1057106Y175076D01*
G01X1056387Y186631D01*
G01X1054909Y198832D01*
G01X1053929Y208770D01*
G01X1054229Y211479D01*
G01X1055058Y212867D01*
G01X1057009Y213757D01*
G01X1058980Y213758D01*
G01X1060907Y212943D01*
G01X1062725Y211382D01*
G01X1064370Y209147D01*
G01X1065775Y206309D01*
G01X1066876Y202940D01*
G01X1067607Y199110D01*
G01X1068835Y192108D01*
G01X1069612Y189685D01*
G01X1070567Y187877D01*
G01X1071755Y186609D01*
G01X1073230Y185803D01*
G01X1075044Y185384D01*
G01X1077251Y185273D01*
G01X1080595Y185734D01*
G01X1083540Y187048D01*
G01X1086060Y189200D01*
G01X1088127Y192171D01*
G01X1089659Y194250D01*
G01X1091580Y195775D01*
G01X1093708Y196736D01*
G01X1095858Y197125D01*
G01X1097849Y196934D01*
G01X1099498Y196153D01*
G01X1100621Y194773D01*
G01X1101036Y192787D01*
G01X1101315Y190983D01*
G01X1102170Y189407D01*
G01X1103626Y188049D01*
G01X1105711Y186897D01*
G01X1111873Y185165D01*
G01X1120865Y184118D01*
G01X1137046Y182717D01*
G01X1126202Y182178D01*
G01X1110998Y181331D01*
G01X1105603Y180604D01*
G01X1101402Y179586D01*
G01X1098183Y178207D01*
G01X1095739Y176401D01*
G01X1093858Y174100D01*
G01X1092332Y171236D01*
G01X1090578Y166887D01*
G01X1090790Y165596D01*
G01X1092155Y164762D01*
G01X1094995Y164284D01*
G01X1099631Y164061D01*
G01X1115571Y163982D01*
G01X1138463Y163743D01*
G01X1120865Y160838D01*
G01X1102641Y157727D01*
G01X1096503Y156390D01*
G01X1091978Y155068D01*
G01X1088788Y153662D01*
G01X1086655Y152075D01*
G01X1085302Y150208D01*
G01X1084451Y147963D01*
G01X1083588Y144048D01*
G01X1083329Y140845D01*
G01X1083595Y138444D01*
G01X1084306Y136934D01*
G01X1085384Y136406D01*
G01X1086750Y136949D01*
G01X1088325Y138653D01*
G01X1090030Y141609D01*
G01X1091574Y144193D01*
G01X1093323Y146143D01*
G01X1095151Y147438D01*
G01X1096932Y148057D01*
G01X1098537Y147981D01*
G01X1099841Y147188D01*
G01X1100716Y145659D01*
G01X1101036Y143374D01*
G01X1101300Y141264D01*
G01X1102211Y139554D01*
G01X1103945Y138197D01*
G01X1106679Y137142D01*
G01X1110591Y136340D01*
G01X1115858Y135740D01*
G01X1131162Y134954D01*
G01X1141549Y134454D01*
G01X1130260Y133537D01*
G01X1115168Y132189D01*
G01X1109817Y131345D01*
G01X1105650Y130300D01*
G01X1102457Y128984D01*
G01X1100030Y127332D01*
G01X1098159Y125276D01*
G01X1096634Y122749D01*
G01X1095639Y120534D01*
G01X1095292Y118801D01*
G01X1095762Y117482D01*
G01X1097213Y116509D01*
G01X1099812Y115813D01*
G01X1103725Y115325D01*
G01X1116156Y114702D01*
G01X1125079Y114375D01*
G01X1116651Y113394D01*
G01X1105175Y111930D01*
G01X1097344Y109951D01*
G01X1094496Y108656D01*
G01X1092197Y107098D01*
G01X1090327Y105232D01*
G01X1088767Y103014D01*
G01X1087454Y100652D01*
G01X1086886Y98846D01*
G01X1087318Y97516D01*
G01X1089006Y96579D01*
G01X1092206Y95953D01*
G01X1097174Y95556D01*
G01X1113436Y95124D01*
G01X1133359Y94341D01*
G01X1136087Y93757D01*
G01X1134087Y93060D01*
G01X1116185Y91379D01*
G01X1080216Y89395D01*
G01X1061006Y88371D01*
G37*
G36*
G01X1302571Y197732D02*
G01X1300177Y197516D01*
G01X1297692Y197810D01*
G01X1295295Y198611D01*
G01X1293167Y199917D01*
G01X1291487Y201725D01*
G01X1290587Y203904D01*
G01X1290406Y206396D01*
G01X1290913Y208739D01*
G01X1292076Y210473D01*
G01X1294063Y211383D01*
G01X1296565Y211397D01*
G01X1299316Y210672D01*
G01X1302048Y209366D01*
G01X1304492Y207635D01*
G01X1306381Y205638D01*
G01X1307446Y203531D01*
G01X1307420Y201470D01*
G01X1306372Y199706D01*
G01X1304696Y198461D01*
G01X1302571Y197732D01*
G37*
G36*
G01X1136708Y202958D02*
G01X1130697Y202494D01*
G01X1113662Y201928D01*
G01X1095372Y201933D01*
G01X1082341Y202612D01*
G01X1075051Y203964D01*
G01X1073364Y204672D01*
G01X1072971Y205372D01*
G01X1073865Y206042D01*
G01X1076036Y206658D01*
G01X1084182Y207646D01*
G01X1093086Y208033D01*
G01X1103018Y208045D01*
G01X1122807Y207181D01*
G01X1131083Y206421D01*
G01X1137227Y205519D01*
G01X1140450Y204535D01*
G01X1140719Y204030D01*
G01X1139962Y203527D01*
G01X1136708Y202958D01*
G37*
G36*
G01X1129199Y226963D02*
G01X1123519Y226724D01*
G01X1117896Y227105D01*
G01X1114508Y227836D01*
G01X1114334Y228248D01*
G01X1115536Y228648D01*
G01X1124861Y228888D01*
G01X1133473Y228553D01*
G01X1134071Y228144D01*
G01X1133611Y227762D01*
G01X1129199Y226963D01*
G37*
G36*
G01X1200659Y471794D02*
G01X1197772Y471793D01*
G01X1193860Y472567D01*
G01X1189905Y474004D01*
G01X1185719Y476524D01*
G01X1184343Y477726D01*
G01X1183821Y478603D01*
G01X1184553Y478989D01*
G01X1186489Y478792D01*
G01X1192413Y477173D01*
G01X1198470Y474787D01*
G01X1200573Y473634D01*
G01X1201539Y472680D01*
G01X1201411Y472119D01*
G01X1200659Y471794D01*
G37*
G36*
G01X1188537Y493402D02*
G01X1184992Y492987D01*
G01X1171180Y492627D01*
G01X1161532Y492805D01*
G01X1155846Y493254D01*
G01X1154750Y493539D01*
G01X1154956Y493842D01*
G01X1159694Y494437D01*
G01X1176751Y494577D01*
G01X1185421Y494326D01*
G01X1189397Y493942D01*
G01X1189324Y493658D01*
G01X1188537Y493402D01*
G37*
G36*
G01X1139428Y570534D02*
G01X1121608Y570252D01*
G01X1103789Y570534D01*
G01X1099520Y570861D01*
G01X1098704Y571064D01*
G01X1098827Y571291D01*
G01X1121608Y571670D01*
G01X1144390Y571291D01*
G01X1144513Y571064D01*
G01X1143697Y570861D01*
G01X1139428Y570534D01*
G37*
G36*
G01X1125326Y583746D02*
G01X1107869Y583391D01*
G01X1099132Y583602D01*
G01X1094528Y584035D01*
G01X1092528Y584918D01*
G01X1091548Y585769D01*
G01X1091555Y586570D01*
G01X1092516Y587306D01*
G01X1097170Y588519D01*
G01X1105250Y589280D01*
G01X1131275Y589271D01*
G01X1164240Y589049D01*
G01X1175536Y588672D01*
G01X1159214Y586814D01*
G01X1125326Y583746D01*
G37*
G36*
G01X1313517Y591538D02*
G01X1307039Y591411D01*
G01X1300994Y591825D01*
G01X1295880Y592848D01*
G01X1292902Y594067D01*
G01X1291015Y595526D01*
G01X1290176Y597120D01*
G01X1290342Y598743D01*
G01X1291469Y600292D01*
G01X1293516Y601660D01*
G01X1296440Y602744D01*
G01X1300197Y603438D01*
G01X1306168Y603875D01*
G01X1312212Y603911D01*
G01X1323450Y602943D01*
G01X1328108Y602022D01*
G01X1331766Y600867D01*
G01X1334158Y599519D01*
G01X1334795Y598785D01*
G01X1335015Y598019D01*
G01X1334707Y597068D01*
G01X1333824Y596163D01*
G01X1330582Y594521D01*
G01X1325785Y593159D01*
G01X1319931Y592143D01*
G01X1313517Y591538D01*
G37*
G36*
G01X1171753Y644468D02*
G01X1166290Y643994D01*
G01X1159556Y643910D01*
G01X1153954Y644324D01*
G01X1152226Y644735D01*
G01X1151697Y645159D01*
G01X1152359Y645537D01*
G01X1154202Y645811D01*
G01X1165323Y645848D01*
G01X1173538Y645220D01*
G01X1173256Y644816D01*
G01X1171753Y644468D01*
G37*
G36*
G01X1328741Y661594D02*
G01X1327179Y661520D01*
G01X1325867Y661931D01*
G01X1324872Y662748D01*
G01X1324256Y663892D01*
G01X1324084Y665287D01*
G01X1324421Y666853D01*
G01X1325330Y668512D01*
G01X1327853Y672626D01*
G01X1329157Y675054D01*
G01X1327929Y677586D01*
G01X1325788Y683853D01*
G01X1323273Y694076D01*
G01X1317936Y721653D01*
G01X1313543Y750843D01*
G01X1312207Y763082D01*
G01X1311717Y772172D01*
G01X1311904Y776524D01*
G01X1312443Y780576D01*
G01X1313297Y784127D01*
G01X1314428Y786979D01*
G01X1315397Y788289D01*
G01X1316311Y788345D01*
G01X1317174Y787128D01*
G01X1317991Y784619D01*
G01X1319506Y775649D01*
G01X1320894Y761286D01*
G01X1322383Y746919D01*
G01X1324653Y731748D01*
G01X1327662Y716015D01*
G01X1331369Y699958D01*
G01X1334933Y683785D01*
G01X1335778Y677744D01*
G01X1335993Y672875D01*
G01X1335575Y669033D01*
G01X1334521Y666074D01*
G01X1332828Y663854D01*
G01X1330492Y662229D01*
G01X1328741Y661594D01*
G37*
G36*
G01X1125326Y673414D02*
G01X1122917Y672938D01*
G01X1118739Y672699D01*
G01X1114230Y672733D01*
G01X1110827Y673072D01*
G01X1109040Y673859D01*
G01X1109192Y674251D01*
G01X1110083Y674560D01*
G01X1117901Y674785D01*
G01X1125326Y674458D01*
G01X1126566Y674105D01*
G01X1125326Y673414D01*
G37*
G36*
G01X1162921Y693216D02*
G01X1158378Y692951D01*
G01X1153870Y693254D01*
G01X1150140Y694068D01*
G01X1149810Y694426D01*
G01X1150393Y694801D01*
G01X1158619Y695194D01*
G01X1166454Y694771D01*
G01X1166707Y694307D01*
G01X1166084Y693880D01*
G01X1162921Y693216D01*
G37*
G36*
G01X1384894Y756061D02*
G01X1378076Y754856D01*
G01X1371615Y754345D01*
G01X1365832Y754600D01*
G01X1361045Y755691D01*
G01X1357553Y757303D01*
G01X1353566Y759686D01*
G01X1345073Y765973D01*
G01X1337487Y772964D01*
G01X1334635Y776227D01*
G01X1332731Y779071D01*
G01X1331707Y782126D01*
G01X1331247Y786054D01*
G01X1331302Y790547D01*
G01X1331624Y793467D01*
G01X1336972Y793467D01*
G01X1337458Y790101D01*
G01X1338827Y786520D01*
G01X1341085Y782730D01*
G01X1344238Y778736D01*
G01X1348290Y774545D01*
G01X1352671Y770980D01*
G01X1357393Y768239D01*
G01X1362381Y766293D01*
G01X1367560Y765113D01*
G01X1367560Y765113D01*
G01X1372855Y764673D01*
G01X1378192Y764943D01*
G01X1383496Y765895D01*
G01X1388692Y767502D01*
G01X1393705Y769735D01*
G01X1398462Y772566D01*
G01X1402886Y775968D01*
G01X1406903Y779911D01*
G01X1410439Y784368D01*
G01X1413419Y789311D01*
G01X1415768Y794712D01*
G01X1417411Y800542D01*
G01X1417593Y803305D01*
G01X1416929Y805784D01*
G01X1415432Y807972D01*
G01X1413111Y809862D01*
G01X1409979Y811446D01*
G01X1406047Y812717D01*
G01X1401326Y813668D01*
G01X1395826Y814292D01*
G01X1388305Y814683D01*
G01X1371412Y813151D01*
G01X1364203Y811975D01*
G01X1357826Y810533D01*
G01X1352288Y808830D01*
G01X1347593Y806873D01*
G01X1343747Y804667D01*
G01X1340757Y802218D01*
G01X1338627Y799531D01*
G01X1337363Y796612D01*
G01X1336972Y793467D01*
G01X1331624Y793467D01*
G01X1331826Y795299D01*
G01X1332770Y800000D01*
G01X1334086Y804342D01*
G01X1335727Y808018D01*
G01X1337644Y810720D01*
G01X1340224Y812784D01*
G01X1343905Y814873D01*
G01X1353780Y818854D01*
G01X1365684Y822136D01*
G01X1378028Y824188D01*
G01X1386392Y824574D01*
G01X1394690Y824056D01*
G01X1402639Y822731D01*
G01X1409955Y820697D01*
G01X1416354Y818050D01*
G01X1421551Y814887D01*
G01X1425264Y811305D01*
G01X1426474Y809387D01*
G01X1427207Y807400D01*
G01X1427793Y802510D01*
G01X1427406Y797168D01*
G01X1426131Y791567D01*
G01X1424051Y785900D01*
G01X1421251Y780359D01*
G01X1417812Y775135D01*
G01X1413821Y770423D01*
G01X1409359Y766413D01*
G01X1404302Y763137D01*
G01X1398326Y760272D01*
G01X1391750Y757890D01*
G01X1384894Y756061D01*
G37*
G36*
G01X1149375Y754488D02*
G01X1144585Y754370D01*
G01X1140570Y754739D01*
G01X1137871Y755662D01*
G01X1137877Y756071D01*
G01X1138835Y756401D01*
G01X1142923Y756719D01*
G01X1148331Y756663D01*
G01X1153050Y756314D01*
G01X1155069Y755752D01*
G01X1154617Y755342D01*
G01X1153387Y754985D01*
G01X1149375Y754488D01*
G37*
G36*
G01X1232923Y756685D02*
G01X1226490Y755418D01*
G01X1219845Y754904D01*
G01X1213080Y755100D01*
G01X1206288Y755964D01*
G01X1199560Y757452D01*
G01X1192991Y759521D01*
G01X1186672Y762129D01*
G01X1180695Y765233D01*
G01X1175154Y768789D01*
G01X1170140Y772754D01*
G01X1165747Y777086D01*
G01X1162066Y781742D01*
G01X1159191Y786678D01*
G01X1157213Y791852D01*
G01X1156353Y796531D01*
G01X1166261Y796531D01*
G01X1166878Y792029D01*
G01X1168598Y787299D01*
G01X1171342Y782653D01*
G01X1175031Y778402D01*
G01X1179587Y774857D01*
G01X1187998Y770687D01*
G01X1198674Y766765D01*
G01X1209247Y763851D01*
G01X1209247Y763851D01*
G01X1213757Y763010D01*
G01X1217354Y762707D01*
G01X1222850Y763414D01*
G01X1229151Y765389D01*
G01X1235872Y768393D01*
G01X1242629Y772189D01*
G01X1249040Y776540D01*
G01X1254719Y781207D01*
G01X1259284Y785955D01*
G01X1262350Y790544D01*
G01X1264112Y794810D01*
G01X1264887Y798510D01*
G01X1264664Y801662D01*
G01X1263429Y804283D01*
G01X1261168Y806391D01*
G01X1257868Y808005D01*
G01X1253516Y809141D01*
G01X1248099Y809819D01*
G01X1240513Y810095D01*
G01X1230475Y810034D01*
G01X1206834Y809115D01*
G01X1184754Y807484D01*
G01X1176668Y806534D01*
G01X1171815Y805564D01*
G01X1170060Y804751D01*
G01X1168651Y803610D01*
G01X1167576Y802178D01*
G01X1166826Y800495D01*
G01X1166261Y796531D01*
G01X1156353Y796531D01*
G01X1156226Y797221D01*
G01X1156238Y799687D01*
G01X1156699Y802029D01*
G01X1157608Y804245D01*
G01X1158962Y806335D01*
G01X1160759Y808297D01*
G01X1162998Y810131D01*
G01X1168792Y813410D01*
G01X1176326Y816165D01*
G01X1185585Y818387D01*
G01X1196552Y820070D01*
G01X1209210Y821206D01*
G01X1218230Y821571D01*
G01X1227500Y821567D01*
G01X1245464Y820574D01*
G01X1253500Y819647D01*
G01X1260465Y818475D01*
G01X1266029Y817088D01*
G01X1269863Y815517D01*
G01X1272559Y813429D01*
G01X1274454Y810807D01*
G01X1275589Y807724D01*
G01X1276003Y804252D01*
G01X1275734Y800465D01*
G01X1274823Y796435D01*
G01X1273309Y792234D01*
G01X1271231Y787936D01*
G01X1268629Y783612D01*
G01X1265542Y779336D01*
G01X1262010Y775181D01*
G01X1258072Y771218D01*
G01X1253768Y767521D01*
G01X1249137Y764162D01*
G01X1244218Y761214D01*
G01X1239051Y758749D01*
G01X1232923Y756685D01*
G37*
G36*
G01X1115030Y758543D02*
G01X1109245Y758493D01*
G01X1104322Y758898D01*
G01X1102852Y759271D01*
G01X1102398Y759675D01*
G01X1102951Y760056D01*
G01X1104506Y760356D01*
G01X1109666Y760667D01*
G01X1115358Y760617D01*
G01X1119962Y760268D01*
G01X1121856Y759685D01*
G01X1121315Y759295D01*
G01X1119844Y758968D01*
G01X1115030Y758543D01*
G37*
G36*
G01X1076624Y762459D02*
G01X1069605Y762429D01*
G01X1063238Y763007D01*
G01X1061735Y763396D01*
G01X1061517Y763782D01*
G01X1064725Y764355D01*
G01X1075522Y764365D01*
G01X1083614Y763933D01*
G01X1083451Y763420D01*
G01X1082044Y762994D01*
G01X1076624Y762459D01*
G37*
G36*
G01X1112686Y775587D02*
G01X1109795Y775125D01*
G01X1104847Y774891D01*
G01X1099635Y774921D01*
G01X1095955Y775250D01*
G01X1094553Y775678D01*
G01X1094182Y776107D01*
G01X1094821Y776475D01*
G01X1096451Y776723D01*
G01X1105264Y776960D01*
G01X1112190Y776640D01*
G01X1114173Y776250D01*
G01X1112686Y775587D01*
G37*
G36*
G01X1235901Y792813D02*
G01X1233952Y791692D01*
G01X1231882Y791363D01*
G01X1229834Y791725D01*
G01X1227953Y792678D01*
G01X1226382Y794124D01*
G01X1225265Y795960D01*
G01X1224746Y798089D01*
G01X1224968Y800409D01*
G01X1225810Y802170D01*
G01X1227243Y803956D01*
G01X1228956Y805443D01*
G01X1230635Y806305D01*
G01X1233138Y806504D01*
G01X1235279Y805742D01*
G01X1236976Y804230D01*
G01X1238145Y802179D01*
G01X1238705Y799800D01*
G01X1238572Y797305D01*
G01X1237665Y794906D01*
G01X1235901Y792813D01*
G37*
G36*
G01X1380291Y794880D02*
G01X1378740Y793743D01*
G01X1377017Y793713D01*
G01X1375139Y794797D01*
G01X1373799Y796232D01*
G01X1372851Y797880D01*
G01X1372294Y799634D01*
G01X1372127Y801389D01*
G01X1372346Y803039D01*
G01X1372952Y804478D01*
G01X1373942Y805600D01*
G01X1375314Y806299D01*
G01X1377392Y806646D01*
G01X1379182Y806450D01*
G01X1380646Y805769D01*
G01X1381743Y804661D01*
G01X1382432Y803183D01*
G01X1382674Y801395D01*
G01X1382428Y799354D01*
G01X1381655Y797117D01*
G01X1380291Y794880D01*
G37*
G36*
G01X1410112Y839647D02*
G01X1383463Y838239D01*
G01X1357171Y837872D01*
G01X1347898Y838204D01*
G01X1343201Y838946D01*
G01X1341037Y840262D01*
G01X1339867Y841504D01*
G01X1339671Y842657D01*
G01X1340430Y843704D01*
G01X1342123Y844631D01*
G01X1344732Y845419D01*
G01X1352613Y846521D01*
G01X1366298Y847510D01*
G01X1376956Y848826D01*
G01X1382852Y849990D01*
G01X1392702Y850518D01*
G01X1405454Y850404D01*
G01X1417284Y849765D01*
G01X1424365Y848718D01*
G01X1427198Y847158D01*
G01X1427965Y846238D01*
G01X1428295Y845274D01*
G01X1428182Y844301D01*
G01X1427624Y843356D01*
G01X1425153Y841694D01*
G01X1419831Y840615D01*
G01X1410112Y839647D01*
G37*
G36*
G01X1244417Y841227D02*
G01X1217667Y839757D01*
G01X1198177Y838799D01*
G01X1181792Y839080D01*
G01X1175464Y839643D01*
G01X1170750Y840465D01*
G01X1167931Y841528D01*
G01X1167319Y842145D01*
G01X1167286Y842816D01*
G01X1167888Y843522D01*
G01X1169135Y844235D01*
G01X1173447Y845667D01*
G01X1179982Y847078D01*
G01X1188501Y848435D01*
G01X1210527Y850850D01*
G01X1237607Y852646D01*
G01X1251866Y852899D01*
G01X1269997Y852747D01*
G01X1285746Y852300D01*
G01X1292857Y851669D01*
G01X1292732Y850819D01*
G01X1291814Y849184D01*
G01X1288518Y844974D01*
G01X1285183Y842151D01*
G01X1283239Y841265D01*
G01X1280886Y840693D01*
G01X1274279Y840384D01*
G01X1264011Y841003D01*
G01X1255491Y841337D01*
G01X1244417Y841227D01*
G37*
G36*
G01X1144933Y873929D02*
G01X1144319Y873457D01*
G01X1142243Y872891D01*
G01X1139574Y872892D01*
G01X1136960Y873536D01*
G01X1135336Y874496D01*
G01X1135529Y874871D01*
G01X1136356Y875282D01*
G01X1138796Y875764D01*
G01X1141702Y875741D01*
G01X1144135Y875297D01*
G01X1145155Y874513D01*
G01X1144933Y873929D01*
G37*
G36*
G01X1161034Y889945D02*
G01X1155954Y889482D01*
G01X1149811Y889409D01*
G01X1144967Y889840D01*
G01X1143635Y890275D01*
G01X1143600Y890701D01*
G01X1147138Y891329D01*
G01X1156459Y891317D01*
G01X1162690Y890687D01*
G01X1162437Y890289D01*
G01X1161034Y889945D01*
G37*
G36*
G01X1161260Y910333D02*
G01X1154326Y909862D01*
G01X1147258Y910380D01*
G01X1145887Y910908D01*
G01X1145885Y911210D01*
G01X1146394Y911525D01*
G01X1154623Y911949D01*
G01X1159791Y911844D01*
G01X1162488Y911527D01*
G01X1162820Y911181D01*
G01X1162706Y910863D01*
G01X1161260Y910333D01*
G37*
G36*
G01X1177275Y930134D02*
G01X1172956Y930053D01*
G01X1169490Y930826D01*
G01X1168760Y931341D01*
G01X1168788Y931744D01*
G01X1171325Y932388D01*
G01X1176446Y932485D01*
G01X1180475Y932000D01*
G01X1180980Y931387D01*
G01X1180449Y930854D01*
G01X1177275Y930134D01*
G37*
G36*
G01X1127404Y955145D02*
G01X1121608Y954658D01*
G01X1117405Y954907D01*
G01X1114253Y955498D01*
G01X1112952Y956201D01*
G01X1114297Y956783D01*
G01X1118764Y957106D01*
G01X1124041Y957057D01*
G01X1128442Y956707D01*
G01X1130284Y956126D01*
G01X1129475Y955619D01*
G01X1127404Y955145D01*
G37*
G36*
G01X1145403Y972161D02*
G01X1143916Y971718D01*
G01X1138328Y971224D01*
G01X1129838Y971293D01*
G01X1122563Y971780D01*
G01X1120666Y972134D01*
G01X1120379Y972332D01*
G01X1120617Y972539D01*
G01X1132232Y972918D01*
G01X1144164Y972537D01*
G01X1145403Y972161D01*
G37*
G36*
G01X1877987Y487215D02*
G01X1868118Y486728D01*
G01X1858559Y486930D01*
G01X1849504Y487835D01*
G01X1841143Y489461D01*
G01X1825290Y494206D01*
G01X1806153Y502085D01*
G01X1798489Y505718D01*
G01X1792067Y509158D01*
G01X1773906Y520888D01*
G01X1769885Y524297D01*
G01X1762631Y531516D01*
G01X1755979Y539428D01*
G01X1751316Y546429D01*
G01X1747230Y553546D01*
G01X1743656Y560967D01*
G01X1740525Y568880D01*
G01X1737772Y577471D01*
G01X1735329Y586928D01*
G01X1733131Y597438D01*
G01X1731110Y609189D01*
G01X1729636Y617869D01*
G01X1728092Y627541D01*
G01X1726572Y636754D01*
G01X1725161Y646922D01*
G01X1723666Y658541D01*
G01X1722129Y668214D01*
G01X1721199Y674982D01*
G01X1718181Y694183D01*
G01X1716484Y702751D01*
G01X1715199Y707708D01*
G01X1712871Y712735D01*
G01X1709976Y717490D01*
G01X1706644Y721851D01*
G01X1703006Y725695D01*
G01X1699190Y728898D01*
G01X1695328Y731339D01*
G01X1691549Y732893D01*
G01X1687983Y733439D01*
G01X1685647Y734629D01*
G01X1684264Y735819D01*
G01X1684894Y738175D01*
G01X1685925Y740510D01*
G01X1696674Y740510D01*
G01X1696712Y739651D01*
G01X1697921Y738741D01*
G01X1700573Y737395D01*
G01X1705905Y734286D01*
G01X1710611Y730448D01*
G01X1714726Y725822D01*
G01X1718281Y720349D01*
G01X1721310Y713969D01*
G01X1723846Y706623D01*
G01X1725922Y698253D01*
G01X1727570Y688798D01*
G01X1732409Y657301D01*
G01X1734072Y646389D01*
G01X1735755Y635115D01*
G01X1737489Y622963D01*
G01X1740335Y604828D01*
G01X1743791Y587116D01*
G01X1747252Y575192D01*
G01X1751767Y563382D01*
G01X1756789Y552962D01*
G01X1759319Y548670D01*
G01X1761771Y545203D01*
G01X1769797Y535729D01*
G01X1773499Y532009D01*
G01X1777330Y528699D01*
G01X1786393Y522501D01*
G01X1799007Y515523D01*
G01X1810113Y510043D01*
G01X1820942Y505415D01*
G01X1831519Y501641D01*
G01X1841872Y498724D01*
G01X1852026Y496667D01*
G01X1862008Y495472D01*
G01X1862008Y495472D01*
G01X1871843Y495142D01*
G01X1881559Y495680D01*
G01X1891182Y497088D01*
G01X1900738Y499369D01*
G01X1910252Y502526D01*
G01X1919752Y506561D01*
G01X1929264Y511477D01*
G01X1938814Y517276D01*
G01X1948428Y523961D01*
G01X1958133Y531535D01*
G01X1965115Y538120D01*
G01X1972428Y546564D01*
G01X1979710Y556419D01*
G01X1986605Y567234D01*
G01X1993831Y580649D01*
G01X2000139Y594997D01*
G01X2005756Y610849D01*
G01X2010910Y628781D01*
G01X2015870Y645645D01*
G01X2018078Y653829D01*
G01X2020091Y662757D01*
G01X2021253Y667966D01*
G01X2022752Y675251D01*
G01X2025164Y688264D01*
G01X2027500Y703810D01*
G01X2029647Y721049D01*
G01X2031489Y739143D01*
G01X2034459Y767663D01*
G01X2035111Y775850D01*
G01X2035565Y786874D01*
G01X2035733Y797593D01*
G01X2035523Y804864D01*
G01X2034475Y836608D01*
G01X2033542Y871226D01*
G01X2032243Y893036D01*
G01X2031246Y904562D01*
G01X2029731Y919806D01*
G01X2028213Y931346D01*
G01X2022727Y958196D01*
G01X2016811Y981532D01*
G01X2010061Y1002778D01*
G01X2002071Y1023356D01*
G01X1997461Y1033040D01*
G01X1991651Y1043553D01*
G01X1985694Y1053104D01*
G01X1980639Y1059899D01*
G01X1972809Y1067915D01*
G01X1964347Y1074638D01*
G01X1954252Y1080759D01*
G01X1941526Y1086970D01*
G01X1930481Y1091433D01*
G01X1918627Y1095223D01*
G01X1906004Y1098329D01*
G01X1892649Y1100740D01*
G01X1876253Y1101668D01*
G01X1860476Y1101690D01*
G01X1848056Y1100199D01*
G01X1840464Y1098972D01*
G01X1834776Y1097390D01*
G01X1828070Y1094836D01*
G01X1819995Y1091380D01*
G01X1813707Y1087618D01*
G01X1806892Y1081871D01*
G01X1797238Y1072460D01*
G01X1789096Y1063967D01*
G01X1781601Y1055332D01*
G01X1774679Y1046441D01*
G01X1768253Y1037178D01*
G01X1762249Y1027428D01*
G01X1756589Y1017073D01*
G01X1751200Y1006000D01*
G01X1746005Y994091D01*
G01X1743182Y987418D01*
G01X1739145Y977298D01*
G01X1734811Y964683D01*
G01X1730850Y951649D01*
G01X1727936Y940274D01*
G01X1723290Y916509D01*
G01X1718843Y888990D01*
G01X1715028Y860638D01*
G01X1712275Y834376D01*
G01X1711171Y803195D01*
G01X1710944Y785864D01*
G01X1711124Y776872D01*
G01X1711391Y773260D01*
G01X1711027Y769244D01*
G01X1710066Y764913D01*
G01X1708543Y760358D01*
G01X1706494Y755670D01*
G01X1703952Y750939D01*
G01X1700954Y746255D01*
G01X1697535Y741709D01*
G01X1696674Y740510D01*
G01X1685925Y740510D01*
G01X1685965Y740601D01*
G01X1687933Y743169D01*
G01X1691816Y748071D01*
G01X1695728Y754119D01*
G01X1699191Y760505D01*
G01X1701725Y766423D01*
G01X1702950Y769895D01*
G01X1702868Y792464D01*
G01X1702941Y808490D01*
G01X1703353Y822386D01*
G01X1704204Y836326D01*
G01X1705592Y852481D01*
G01X1708767Y878273D01*
G01X1710283Y888689D01*
G01X1712854Y904810D01*
G01X1714738Y918698D01*
G01X1715804Y926418D01*
G01X1718445Y937298D01*
G01X1720478Y945234D01*
G01X1725707Y964448D01*
G01X1732114Y983276D01*
G01X1739604Y1001540D01*
G01X1748086Y1019065D01*
G01X1757468Y1035673D01*
G01X1767657Y1051188D01*
G01X1778559Y1065434D01*
G01X1790084Y1078233D01*
G01X1799758Y1088233D01*
G01X1802422Y1090710D01*
G01X1805795Y1093146D01*
G01X1814730Y1097937D01*
G01X1824950Y1102782D01*
G01X1829763Y1104462D01*
G01X1837895Y1106357D01*
G01X1847941Y1108178D01*
G01X1858493Y1109639D01*
G01X1865970Y1110177D01*
G01X1874127Y1110229D01*
G01X1882147Y1109814D01*
G01X1889209Y1108951D01*
G01X1896416Y1107913D01*
G01X1908205Y1106135D01*
G01X1919293Y1103871D01*
G01X1929709Y1101099D01*
G01X1939484Y1097792D01*
G01X1948647Y1093926D01*
G01X1957228Y1089477D01*
G01X1965256Y1084419D01*
G01X1972762Y1078730D01*
G01X1979774Y1072383D01*
G01X1986323Y1065354D01*
G01X1992438Y1057619D01*
G01X1998149Y1049152D01*
G01X2003486Y1039930D01*
G01X2008478Y1029928D01*
G01X2013155Y1019120D01*
G01X2017547Y1007483D01*
G01X2022574Y992590D01*
G01X2026794Y978753D01*
G01X2029987Y966747D01*
G01X2031930Y957344D01*
G01X2033205Y952419D01*
G01X2034334Y948686D01*
G01X2035492Y942288D01*
G01X2038660Y916466D01*
G01X2040413Y899692D01*
G01X2041868Y879915D01*
G01X2043151Y848852D01*
G01X2043263Y812640D01*
G01X2042246Y774872D01*
G01X2040146Y739143D01*
G01X2037094Y711898D01*
G01X2033201Y684830D01*
G01X2028529Y662509D01*
G01X2026611Y655069D01*
G01X2021558Y636703D01*
G01X2020593Y632808D01*
G01X2019709Y628642D01*
G01X2017340Y620246D01*
G01X2009860Y596540D01*
G01X2006793Y588142D01*
G01X2003237Y579891D01*
G01X1999219Y571817D01*
G01X1994764Y563947D01*
G01X1989899Y556310D01*
G01X1984649Y548934D01*
G01X1979041Y541848D01*
G01X1973101Y535078D01*
G01X1966854Y528654D01*
G01X1960327Y522603D01*
G01X1953546Y516955D01*
G01X1946537Y511736D01*
G01X1939326Y506976D01*
G01X1931939Y502702D01*
G01X1924402Y498943D01*
G01X1916740Y495727D01*
G01X1907544Y492646D01*
G01X1897892Y490190D01*
G01X1887976Y488374D01*
G01X1877987Y487215D01*
G37*
G36*
G01X1884167Y758160D02*
G01X1882947Y755922D01*
G01X1881517Y755019D01*
G01X1879951Y755644D01*
G01X1878322Y757991D01*
G01X1877083Y760471D01*
G01X1877083Y835864D01*
G01X1878169Y837848D01*
G01X1880715Y841521D01*
G01X1883067Y843194D01*
G01X1884079Y843253D01*
G01X1884932Y842779D01*
G01X1885589Y841761D01*
G01X1886012Y840189D01*
G01X1886819Y836112D01*
G01X1887113Y830788D01*
G01X1886982Y819496D01*
G01X1886630Y805112D01*
G01X1888544Y802757D01*
G01X1890001Y803524D01*
G01X1894171Y807429D01*
G01X1906430Y820725D01*
G01X1918553Y832904D01*
G01X1924341Y838989D01*
G01X1927443Y842157D01*
G01X1929794Y844036D01*
G01X1931934Y844643D01*
G01X1933790Y844232D01*
G01X1935276Y843025D01*
G01X1936304Y841246D01*
G01X1936790Y839119D01*
G01X1936645Y836866D01*
G01X1935784Y834711D01*
G01X1934120Y832877D01*
G01X1925832Y824315D01*
G01X1913687Y811486D01*
G01X1907067Y804523D01*
G01X1905295Y802158D01*
G01X1904511Y800337D01*
G01X1904688Y798912D01*
G01X1905798Y797734D01*
G01X1910703Y795521D01*
G01X1915764Y793433D01*
G01X1920305Y790961D01*
G01X1924794Y787814D01*
G01X1929696Y783702D01*
G01X1934924Y779105D01*
G01X1937799Y775839D01*
G01X1940001Y771932D01*
G01X1941121Y768308D01*
G01X1941149Y766892D01*
G01X1940754Y765892D01*
G01X1939311Y764975D01*
G01X1937393Y765249D01*
G01X1934890Y766758D01*
G01X1931691Y769547D01*
G01X1924598Y775538D01*
G01X1916762Y780720D01*
G01X1908687Y784798D01*
G01X1900877Y787479D01*
G01X1896701Y788321D01*
G01X1893211Y788564D01*
G01X1890385Y788193D01*
G01X1888201Y787193D01*
G01X1886637Y785547D01*
G01X1885674Y783242D01*
G01X1885287Y780262D01*
G01X1885457Y776591D01*
G01X1885821Y770948D01*
G01X1885678Y765866D01*
G01X1885102Y761539D01*
G01X1884167Y758160D01*
G37*
G36*
G01X1820087Y757735D02*
G01X1816263Y757267D01*
G01X1812594Y757199D01*
G01X1809134Y757552D01*
G01X1805938Y758344D01*
G01X1803060Y759595D01*
G01X1800556Y761323D01*
G01X1797960Y763843D01*
G01X1795708Y766630D01*
G01X1793800Y769662D01*
G01X1792236Y772912D01*
G01X1791018Y776358D01*
G01X1790143Y779973D01*
G01X1789787Y783784D01*
G01X1797272Y783784D01*
G01X1798907Y780311D01*
G01X1800717Y777153D01*
G01X1802909Y774494D01*
G01X1805440Y772328D01*
G01X1808266Y770650D01*
G01X1811345Y769454D01*
G01X1814633Y768735D01*
G01X1814633Y768735D01*
G01X1818088Y768488D01*
G01X1821665Y768708D01*
G01X1825321Y769389D01*
G01X1829014Y770525D01*
G01X1832701Y772111D01*
G01X1836338Y774143D01*
G01X1839881Y776614D01*
G01X1843289Y779519D01*
G01X1846516Y782853D01*
G01X1849522Y786610D01*
G01X1854995Y794370D01*
G01X1856942Y798168D01*
G01X1859157Y805087D01*
G01X1860282Y811393D01*
G01X1860332Y817036D01*
G01X1859326Y821967D01*
G01X1857279Y826136D01*
G01X1854209Y829492D01*
G01X1850132Y831986D01*
G01X1845064Y833568D01*
G01X1840519Y833981D01*
G01X1837439Y833728D01*
G01X1833390Y833176D01*
G01X1829208Y832508D01*
G01X1825208Y831382D01*
G01X1821385Y829795D01*
G01X1817735Y827743D01*
G01X1814252Y825224D01*
G01X1810932Y822234D01*
G01X1807771Y818771D01*
G01X1804763Y814831D01*
G01X1800974Y808959D01*
G01X1798740Y803880D01*
G01X1797660Y798313D01*
G01X1797337Y790976D01*
G01X1797272Y783784D01*
G01X1789787Y783784D01*
G01X1789429Y787616D01*
G01X1790095Y795645D01*
G01X1792140Y803864D01*
G01X1795566Y812076D01*
G01X1800374Y820084D01*
G01X1805333Y827133D01*
G01X1807546Y829855D01*
G01X1810254Y832506D01*
G01X1816796Y837370D01*
G01X1824243Y841275D01*
G01X1828082Y842727D01*
G01X1831877Y843772D01*
G01X1837471Y844586D01*
G01X1842687Y844538D01*
G01X1847497Y843688D01*
G01X1851869Y842097D01*
G01X1855775Y839828D01*
G01X1859183Y836941D01*
G01X1862065Y833498D01*
G01X1864390Y829560D01*
G01X1866128Y825188D01*
G01X1867249Y820443D01*
G01X1867723Y815388D01*
G01X1867521Y810083D01*
G01X1866611Y804589D01*
G01X1864965Y798968D01*
G01X1862553Y793282D01*
G01X1859343Y787590D01*
G01X1854776Y780274D01*
G01X1852418Y776846D01*
G01X1849668Y773629D01*
G01X1846579Y770640D01*
G01X1843207Y767899D01*
G01X1835831Y763238D01*
G01X1827978Y759799D01*
G01X1820087Y757735D01*
G37*
G04 Image End*

G04 Text Start*
G54D10*
G01X107620Y2144234D02*
G01X107620Y2079210D01*
G01X137846Y2144234D02*
G01X137846Y2079210D01*
G01X137846Y2144234D02*
G01X181026Y2079210D01*
G01X181026Y2144234D02*
G01X181026Y2079210D01*
G01X2556162Y2104234D02*
G01X2550066Y2101186D01*
G01X2543716Y2095090D01*
G01X2540668Y2088740D01*
G01X2537620Y2079596D01*
G01X2537620Y2064102D01*
G01X2540668Y2054704D01*
G01X2543716Y2048608D01*
G01X2550066Y2042512D01*
G01X2556162Y2039210D01*
G01X2568608Y2039210D01*
G01X2574704Y2042512D01*
G01X2581054Y2048608D01*
G01X2584102Y2054704D01*
G01X2587150Y2064102D01*
G01X2587150Y2079596D01*
G01X2584102Y2088740D01*
G01X2581054Y2095090D01*
G01X2574704Y2101186D01*
G01X2568608Y2104234D01*
G01X2556162Y2104234D01*
G01X2617376Y2104234D02*
G01X2617376Y2057752D01*
G01X2620424Y2048608D01*
G01X2626520Y2042512D01*
G01X2635918Y2039210D01*
G01X2642014Y2039210D01*
G01X2651412Y2042512D01*
G01X2657508Y2048608D01*
G01X2660556Y2057752D01*
G01X2660556Y2104234D01*
G01X2712372Y2104234D02*
G01X2712372Y2039210D01*
G01X2690782Y2104234D02*
G01X2733962Y2104234D01*
G01X2764188Y2104234D02*
G01X2764188Y2039210D01*
G01X2764188Y2104234D02*
G01X2791874Y2104234D01*
G01X2801272Y2101186D01*
G01X2804320Y2098138D01*
G01X2807368Y2091788D01*
G01X2807368Y2082644D01*
G01X2804320Y2076548D01*
G01X2801272Y2073246D01*
G01X2791874Y2070198D01*
G01X2764188Y2070198D01*
G01X2837594Y2104234D02*
G01X2837594Y2057752D01*
G01X2840642Y2048608D01*
G01X2846738Y2042512D01*
G01X2856136Y2039210D01*
G01X2862232Y2039210D01*
G01X2871630Y2042512D01*
G01X2877726Y2048608D01*
G01X2880774Y2057752D01*
G01X2880774Y2104234D01*
G01X2932590Y2104234D02*
G01X2932590Y2039210D01*
G01X2911000Y2104234D02*
G01X2954180Y2104234D01*
G01X1277620Y1964234D02*
G01X1277620Y1899210D01*
G01X1277620Y1964234D02*
G01X1305560Y1964234D01*
G01X1314704Y1961186D01*
G01X1317752Y1958138D01*
G01X1321054Y1951788D01*
G01X1321054Y1942644D01*
G01X1317752Y1936548D01*
G01X1314704Y1933246D01*
G01X1305560Y1930198D01*
G01X1277620Y1930198D01*
G01X1369822Y1964234D02*
G01X1363472Y1961186D01*
G01X1357376Y1955090D01*
G01X1354328Y1948740D01*
G01X1351280Y1939596D01*
G01X1351280Y1924102D01*
G01X1354328Y1914704D01*
G01X1357376Y1908608D01*
G01X1363472Y1902512D01*
G01X1369822Y1899210D01*
G01X1382268Y1899210D01*
G01X1388364Y1902512D01*
G01X1394460Y1908608D01*
G01X1397508Y1914704D01*
G01X1400810Y1924102D01*
G01X1400810Y1939596D01*
G01X1397508Y1948740D01*
G01X1394460Y1955090D01*
G01X1388364Y1961186D01*
G01X1382268Y1964234D01*
G01X1369822Y1964234D01*
G01X1431036Y1964234D02*
G01X1446530Y1899210D01*
G01X1462024Y1964234D02*
G01X1446530Y1899210D01*
G01X1462024Y1964234D02*
G01X1477264Y1899210D01*
G01X1492758Y1964234D02*
G01X1477264Y1899210D01*
G01X1522984Y1964234D02*
G01X1522984Y1899210D01*
G01X1522984Y1964234D02*
G01X1563116Y1964234D01*
G01X1522984Y1933246D02*
G01X1547622Y1933246D01*
G01X1522984Y1899210D02*
G01X1563116Y1899210D01*
G01X1593342Y1964234D02*
G01X1593342Y1899210D01*
G01X1593342Y1964234D02*
G01X1621028Y1964234D01*
G01X1630426Y1961186D01*
G01X1633474Y1958138D01*
G01X1636522Y1951788D01*
G01X1636522Y1945692D01*
G01X1633474Y1939596D01*
G01X1630426Y1936548D01*
G01X1621028Y1933246D01*
G01X1593342Y1933246D01*
G01X1614932Y1933246D02*
G01X1636522Y1899210D01*
G01X1367620Y1854234D02*
G01X1367620Y1789210D01*
G01X1367620Y1789210D02*
G01X1404704Y1789210D01*
G01X1434930Y1854234D02*
G01X1434930Y1789210D01*
G01X1434930Y1854234D02*
G01X1475062Y1854234D01*
G01X1434930Y1823246D02*
G01X1459568Y1823246D01*
G01X1434930Y1789210D02*
G01X1475062Y1789210D01*
G01X1505288Y1854234D02*
G01X1505288Y1789210D01*
G01X1505288Y1854234D02*
G01X1526878Y1854234D01*
G01X1536276Y1851186D01*
G01X1542372Y1845090D01*
G01X1545420Y1838740D01*
G01X1548468Y1829596D01*
G01X1548468Y1814102D01*
G01X1545420Y1804704D01*
G01X1542372Y1798608D01*
G01X1536276Y1792512D01*
G01X1526878Y1789210D01*
G01X1505288Y1789210D01*
G54D11*
G01X2045250Y1900218D02*
G01X2045250Y1759756D01*
G01X1974892Y1830114D02*
G01X2115608Y1830114D01*
G01X1974892Y1130114D02*
G01X2115608Y1130114D01*
G54D12*
G01X1044986Y2681206D02*
G01X1044986Y2504168D01*
G01X1044986Y2681206D02*
G01X1120932Y2681206D01*
G01X1146332Y2672824D01*
G01X1154714Y2664442D01*
G01X1163096Y2647424D01*
G01X1163096Y2622278D01*
G01X1154714Y2605260D01*
G01X1146332Y2596878D01*
G01X1120932Y2588496D01*
G01X1044986Y2588496D01*
G01X1233708Y2681206D02*
G01X1233708Y2504168D01*
G01X1233708Y2681206D02*
G01X1309654Y2681206D01*
G01X1334800Y2672824D01*
G01X1343182Y2664442D01*
G01X1351818Y2647424D01*
G01X1351818Y2630660D01*
G01X1343182Y2613642D01*
G01X1334800Y2605260D01*
G01X1309654Y2596878D01*
G01X1233708Y2596878D01*
G01X1292636Y2596878D02*
G01X1351818Y2504168D01*
G01X1422430Y2681206D02*
G01X1422430Y2504168D01*
G01X1493042Y2681206D02*
G01X1493042Y2504168D01*
G01X1493042Y2681206D02*
G01X1611152Y2504168D01*
G01X1611152Y2681206D02*
G01X1611152Y2504168D01*
G01X1808256Y2639042D02*
G01X1799874Y2656060D01*
G01X1782856Y2672824D01*
G01X1766092Y2681206D01*
G01X1732310Y2681206D01*
G01X1715292Y2672824D01*
G01X1698528Y2656060D01*
G01X1690146Y2639042D01*
G01X1681764Y2613642D01*
G01X1681764Y2571478D01*
G01X1690146Y2546332D01*
G01X1698528Y2529314D01*
G01X1715292Y2512550D01*
G01X1732310Y2504168D01*
G01X1766092Y2504168D01*
G01X1782856Y2512550D01*
G01X1799874Y2529314D01*
G01X1808256Y2546332D01*
G01X1878868Y2681206D02*
G01X1878868Y2504168D01*
G01X1878868Y2681206D02*
G01X1988342Y2681206D01*
G01X1878868Y2596878D02*
G01X1946178Y2596878D01*
G01X1878868Y2504168D02*
G01X1988342Y2504168D01*
G54D13*
G01X704102Y1828740D02*
G01X701054Y1835090D01*
G01X694704Y1841186D01*
G01X688608Y1844234D01*
G01X676162Y1844234D01*
G01X670066Y1841186D01*
G01X663716Y1835090D01*
G01X660668Y1828740D01*
G01X657620Y1819596D01*
G01X657620Y1804102D01*
G01X660668Y1794704D01*
G01X663716Y1788608D01*
G01X670066Y1782258D01*
G01X676162Y1779210D01*
G01X688608Y1779210D01*
G01X694704Y1782258D01*
G01X701054Y1788608D01*
G01X704102Y1794704D01*
G01X734328Y1831788D02*
G01X740424Y1835090D01*
G01X749568Y1844234D01*
G01X749568Y1779210D01*
G01X704102Y1228740D02*
G01X701054Y1235090D01*
G01X694704Y1241186D01*
G01X688608Y1244234D01*
G01X676162Y1244234D01*
G01X670066Y1241186D01*
G01X663716Y1235090D01*
G01X660668Y1228740D01*
G01X657620Y1219596D01*
G01X657620Y1204102D01*
G01X660668Y1194704D01*
G01X663716Y1188608D01*
G01X670066Y1182258D01*
G01X676162Y1179210D01*
G01X688608Y1179210D01*
G01X694704Y1182258D01*
G01X701054Y1188608D01*
G01X704102Y1194704D01*
G01X737376Y1228740D02*
G01X737376Y1231788D01*
G01X740424Y1238138D01*
G01X743472Y1241186D01*
G01X749568Y1244234D01*
G01X762014Y1244234D01*
G01X768364Y1241186D01*
G01X771412Y1238138D01*
G01X774460Y1231788D01*
G01X774460Y1225692D01*
G01X771412Y1219596D01*
G01X765062Y1210198D01*
G01X734328Y1179210D01*
G01X777508Y1179210D01*
G01X1871260Y1504102D02*
G01X1864910Y1501054D01*
G01X1858814Y1494704D01*
G01X1855766Y1488608D01*
G01X1855766Y1476162D01*
G01X1858814Y1470066D01*
G01X1864910Y1463716D01*
G01X1871260Y1460668D01*
G01X1880404Y1457620D01*
G01X1895898Y1457620D01*
G01X1905296Y1460668D01*
G01X1911392Y1463716D01*
G01X1917742Y1470066D01*
G01X1920790Y1476162D01*
G01X1920790Y1488608D01*
G01X1917742Y1494704D01*
G01X1911392Y1501054D01*
G01X1905296Y1504102D01*
G01X1855766Y1540424D02*
G01X1855766Y1574460D01*
G01X1880404Y1555918D01*
G01X1880404Y1565062D01*
G01X1883452Y1571412D01*
G01X1886754Y1574460D01*
G01X1895898Y1577508D01*
G01X1902248Y1577508D01*
G01X1911392Y1574460D01*
G01X1917742Y1568364D01*
G01X1920790Y1558966D01*
G01X1920790Y1549568D01*
G01X1917742Y1540424D01*
G01X1914440Y1537376D01*
G01X1908344Y1534328D01*
G01X2855766Y868608D02*
G01X2905296Y868608D01*
G01X2914440Y865560D01*
G01X2917742Y862512D01*
G01X2920790Y856162D01*
G01X2920790Y850066D01*
G01X2917742Y843716D01*
G01X2914440Y840668D01*
G01X2905296Y837620D01*
G01X2898946Y837620D01*
G01X2871260Y901882D02*
G01X2868212Y901882D01*
G01X2861862Y904930D01*
G01X2858814Y907978D01*
G01X2855766Y914074D01*
G01X2855766Y926520D01*
G01X2858814Y932870D01*
G01X2861862Y935918D01*
G01X2868212Y938966D01*
G01X2874308Y938966D01*
G01X2880404Y935918D01*
G01X2889802Y929568D01*
G01X2920790Y898834D01*
G01X2920790Y942014D01*
G01X1294234Y1592380D02*
G01X1229210Y1592380D01*
G01X1229210Y1592380D02*
G01X1229210Y1555296D01*
G01X1294234Y1525070D02*
G01X1229210Y1525070D01*
G01X1294234Y1525070D02*
G01X1294234Y1484938D01*
G01X1263246Y1525070D02*
G01X1263246Y1500432D01*
G01X1229210Y1525070D02*
G01X1229210Y1484938D01*
G01X1294234Y1454712D02*
G01X1229210Y1454712D01*
G01X1294234Y1454712D02*
G01X1294234Y1433122D01*
G01X1291186Y1423978D01*
G01X1285090Y1417628D01*
G01X1278740Y1414580D01*
G01X1269596Y1411532D01*
G01X1254102Y1411532D01*
G01X1244704Y1414580D01*
G01X1238608Y1417628D01*
G01X1232258Y1423978D01*
G01X1229210Y1433122D01*
G01X1229210Y1454712D01*
G01X1281788Y1381306D02*
G01X1285090Y1375210D01*
G01X1294234Y1366066D01*
G01X1229210Y1366066D01*
G01X1605766Y1207620D02*
G01X1670790Y1207620D01*
G01X1605766Y1207620D02*
G01X1605766Y1235560D01*
G01X1608814Y1244704D01*
G01X1611862Y1247752D01*
G01X1618212Y1251054D01*
G01X1624308Y1251054D01*
G01X1630404Y1247752D01*
G01X1633452Y1244704D01*
G01X1636754Y1235560D01*
G01X1636754Y1207620D01*
G01X1636754Y1229210D02*
G01X1670790Y1251054D01*
G01X1618212Y1281280D02*
G01X1614910Y1287376D01*
G01X1605766Y1296520D01*
G01X1670790Y1296520D01*
G01X657620Y1444234D02*
G01X657620Y1379210D01*
G01X657620Y1444234D02*
G01X685560Y1444234D01*
G01X694704Y1441186D01*
G01X697752Y1438138D01*
G01X701054Y1431788D01*
G01X701054Y1425692D01*
G01X697752Y1419596D01*
G01X694704Y1416548D01*
G01X685560Y1413246D01*
G01X657620Y1413246D01*
G01X679210Y1413246D02*
G01X701054Y1379210D01*
G01X734328Y1428740D02*
G01X734328Y1431788D01*
G01X737376Y1438138D01*
G01X740424Y1441186D01*
G01X746520Y1444234D01*
G01X758966Y1444234D01*
G01X765316Y1441186D01*
G01X768364Y1438138D01*
G01X771412Y1431788D01*
G01X771412Y1425692D01*
G01X768364Y1419596D01*
G01X762014Y1410198D01*
G01X731280Y1379210D01*
G01X774460Y1379210D01*
G01X657620Y1644234D02*
G01X657620Y1579210D01*
G01X657620Y1644234D02*
G01X685560Y1644234D01*
G01X694704Y1641186D01*
G01X697752Y1638138D01*
G01X701054Y1631788D01*
G01X701054Y1625692D01*
G01X697752Y1619596D01*
G01X694704Y1616548D01*
G01X685560Y1613246D01*
G01X657620Y1613246D01*
G01X679210Y1613246D02*
G01X701054Y1579210D01*
G01X737376Y1644234D02*
G01X771412Y1644234D01*
G01X752870Y1619596D01*
G01X762014Y1619596D01*
G01X768364Y1616548D01*
G01X771412Y1613246D01*
G01X774460Y1604102D01*
G01X774460Y1597752D01*
G01X771412Y1588608D01*
G01X765316Y1582258D01*
G01X755918Y1579210D01*
G01X746520Y1579210D01*
G01X737376Y1582258D01*
G01X734328Y1585560D01*
G01X731280Y1591656D01*
G01X144234Y911392D02*
G01X94704Y911392D01*
G01X85560Y914440D01*
G01X82258Y917488D01*
G01X79210Y923838D01*
G01X79210Y929934D01*
G01X82258Y936284D01*
G01X85560Y939332D01*
G01X94704Y942380D01*
G01X101054Y942380D01*
G01X131788Y881166D02*
G01X135090Y875070D01*
G01X144234Y865926D01*
G01X79210Y865926D01*
G04 Text End*

G04 PolygonModel Start*
G01X818880Y1709639D02*
G01X959881Y1709639D01*
G01X959881Y1890360D02*
G01X818880Y1890360D01*
G01X803640Y1875120D02*
G01X803640Y1724879D01*
G01X1181120Y1709639D02*
G01X1040119Y1709639D01*
G01X1040119Y1890360D02*
G01X1181120Y1890360D01*
G01X1196360Y1875120D02*
G01X1196360Y1724879D01*
G01X818880Y1890360D02*
G03X803640Y1875120I0J-15240D01*
G01X803640Y1724879D02*
G03X818880Y1709639I15240J0D01*
G01X1181120Y1890360D02*
G02X1196360Y1875120I0J-15240D01*
G01X1196360Y1724879D02*
G02X1181120Y1709639I-15240J0D01*
G01X818880Y1109639D02*
G01X959881Y1109639D01*
G01X959881Y1290360D02*
G01X818880Y1290360D01*
G01X803640Y1275120D02*
G01X803640Y1124879D01*
G01X1181120Y1109639D02*
G01X1040119Y1109639D01*
G01X1040119Y1290360D02*
G01X1181120Y1290360D01*
G01X1196360Y1275120D02*
G01X1196360Y1124879D01*
G01X818880Y1290360D02*
G03X803640Y1275120I0J-15240D01*
G01X803640Y1124879D02*
G03X818880Y1109639I15240J0D01*
G01X1181120Y1290360D02*
G02X1196360Y1275120I0J-15240D01*
G01X1196360Y1124879D02*
G02X1181120Y1109639I-15240J0D01*
G01X1959639Y1681120D02*
G01X1959639Y1540119D01*
G01X2140360Y1540119D02*
G01X2140360Y1681120D01*
G01X2125120Y1696360D02*
G01X1974879Y1696360D01*
G01X1959639Y1318880D02*
G01X1959639Y1459881D01*
G01X2140360Y1459881D02*
G01X2140360Y1318880D01*
G01X2125120Y1303640D02*
G01X1974879Y1303640D01*
G01X2140360Y1681120D02*
G03X2125120Y1696360I-15240J0D01*
G01X1974879Y1696360D02*
G03X1959639Y1681120I0J-15240D01*
G01X2140360Y1318880D02*
G02X2125120Y1303640I-15240J0D01*
G01X1974879Y1303640D02*
G02X1959639Y1318880I0J15240D01*
G54D14*
G01X3014998Y1654285D02*
G01X2810000Y1654285D01*
G01X2810000Y1654285D02*
G01X2810000Y1854000D01*
G01X2810000Y1854000D02*
G01X3014998Y1854000D01*
G01X3014998Y1146285D02*
G01X2810000Y1146285D01*
G01X2810000Y1146285D02*
G01X2810000Y1346000D01*
G01X2810000Y1346000D02*
G01X3014998Y1346000D01*
G01X2360001Y2008000D02*
G01X2360001Y992000D01*
G01X2205002Y992000D02*
G01X3014998Y992000D01*
G01X3014998Y992000D02*
G01X3014998Y1730635D01*
G01X3014998Y1730635D02*
G01X3014874Y2008000D01*
G01X3014874Y2008000D02*
G01X2205002Y2008000D01*
G01X2205002Y2008000D02*
G01X2205002Y1638981D01*
G01X2205002Y1638981D02*
G01X2205002Y992000D01*
G36*
G01X3014998Y1246000D02*
G01X3014998Y1226000D01*
G01X2910000Y1226000D01*
G01X2910000Y1186000D01*
G01X2850000Y1246000D01*
G01X2910000Y1306000D01*
G01X2910000Y1266000D01*
G01X3014998Y1266000D01*
G01X3014998Y1246000D01*
G37*
G36*
G01X3014998Y1754000D02*
G01X3014998Y1734000D01*
G01X2910000Y1734000D01*
G01X2910000Y1694000D01*
G01X2850000Y1754000D01*
G01X2910000Y1814000D01*
G01X2910000Y1774000D01*
G01X3014998Y1774000D01*
G01X3014998Y1754000D01*
G37*
G01X1501397Y1468443D02*
G01X1461397Y1508443D01*
G01X1461397Y1508443D02*
G01X1451397Y1518443D01*
G01X1451397Y1518443D02*
G01X1441372Y1508443D01*
G01X1441372Y1508443D02*
G01X1401372Y1468443D01*
G01X1501397Y1468443D02*
G01X1401372Y1468443D01*
G01X1349670Y1444120D02*
G01X1349670Y1289180D01*
G01X1349670Y1289180D02*
G01X1552870Y1289180D01*
G01X1552870Y1289180D02*
G01X1552870Y1444120D01*
G01X1347130Y1522860D02*
G01X1347130Y1670180D01*
G01X1347130Y1670180D02*
G01X1387770Y1710820D01*
G01X1387770Y1710820D02*
G01X1514770Y1710820D01*
G01X1514770Y1710820D02*
G01X1552870Y1672720D01*
G01X1552870Y1672720D02*
G01X1552870Y1520320D01*
G54D13*
G01X1741709Y1547620D02*
G01X1741709Y1676113D01*
G01X1741709Y1676113D02*
G01X1558291Y1676113D01*
G01X1558291Y1676113D02*
G01X1558291Y1547620D01*
G01X1741709Y1452380D02*
G01X1741709Y1323887D01*
G01X1741709Y1323887D02*
G01X1558291Y1323887D01*
G01X1558291Y1323887D02*
G01X1558291Y1452380D01*
G01X952380Y1491709D02*
G01X823887Y1491709D01*
G01X823887Y1491709D02*
G01X823887Y1308291D01*
G01X823887Y1308291D02*
G01X952380Y1308291D01*
G01X1047620Y1491709D02*
G01X1176113Y1491709D01*
G01X1176113Y1491709D02*
G01X1176113Y1308291D01*
G01X1176113Y1308291D02*
G01X1047620Y1308291D01*
G01X952380Y1691709D02*
G01X823887Y1691709D01*
G01X823887Y1691709D02*
G01X823887Y1508291D01*
G01X823887Y1508291D02*
G01X952380Y1508291D01*
G01X1047620Y1691709D02*
G01X1176113Y1691709D01*
G01X1176113Y1691709D02*
G01X1176113Y1508291D01*
G01X1176113Y1508291D02*
G01X1047620Y1508291D01*
G54D14*
G01X547503Y1166892D02*
G01X547503Y1145919D01*
G01X547503Y1832910D02*
G01X547503Y1833098D01*
G54D16*
G01X547503Y1167085D02*
G01X547503Y1145919D01*
G01X547503Y1854068D02*
G01X547503Y1832910D01*
G01X387501Y1949994D02*
G01X391712Y1949994D01*
G01X387501Y1949994D02*
G01X243274Y1949994D01*
G01X247503Y1049993D02*
G01X392510Y1049993D01*
G01X7382Y1950068D02*
G01X9668Y1950068D01*
G01X9668Y1950068D02*
G01X-132575Y1950068D01*
G01X-132575Y1950068D02*
G01X-132575Y1049894D01*
G01X-132575Y1049894D02*
G01X7382Y1049894D01*

M02*

