G04 Layer: TopLayer*
G04 EasyEDA Pro v2.2.46.11, 2026-03-15 16:51:15*
G04 Gerber Generator version 0.3*
G04 Scale: 100 percent, Rotated: No, Reflected: No*
G04 Dimensions in millimeters*
G04 Leading zeros omitted, absolute positions, 4 integers and 5 decimals*
G04 Generated by one-click*
%FSLAX45Y45*%
%MOMM*%
%ADD10C,0.2032*%
%ADD11C,0.8*%
%ADD12R,1.41X1.35001*%
%ADD13R,1.35001X1.41*%
%ADD14R,2.2X2.2*%
%ADD15C,2.2*%
%ADD16R,1.39954X1.0*%
%ADD17C,7.5069*%
%ADD18C,7.5*%
%ADD19R,1.37701X1.13254*%
%ADD20R,1.13254X1.37701*%
%ADD21R,1.2X0.8*%
%ADD22R,1.2X0.7*%
%ADD23O,1.7X1.0*%
%ADD24C,0.61*%
%ADD25C,0.3*%
%ADD26C,0.254*%
%ADD27C,0.7*%
G75*


G04 Copper Start*
G36*
G01X500160Y1320160D02*
G01X500160Y1379186D01*
G01X612509Y1379186D01*
G01X622955Y1380743D01*
G01X632492Y1385280D01*
G01X640292Y1392400D01*
G01X645675Y1401486D01*
G01X679905Y1401486D01*
G01X715695Y1365696D01*
G01X725743Y1357986D01*
G01X737444Y1353139D01*
G01X750000Y1351486D01*
G01X807559Y1351486D01*
G01X807559Y1331149D01*
G01X809312Y1320082D01*
G01X814399Y1310099D01*
G01X822323Y1302175D01*
G01X832306Y1297088D01*
G01X843373Y1295335D01*
G01X949466Y1295335D01*
G01X949466Y1086960D01*
G01X950861Y1081753D01*
G01X954673Y1077941D01*
G01X959880Y1076546D01*
G01X1047620Y1076546D01*
G01X1052827Y1077941D01*
G01X1056639Y1081753D01*
G01X1058034Y1086960D01*
G01X1058034Y1096685D01*
G01X1170500Y1096685D01*
G01X1180934Y1098239D01*
G01X1190463Y1102765D01*
G01X1198260Y1109872D01*
G01X1203648Y1118941D01*
G01X1206161Y1129187D01*
G01X1257746Y1129187D01*
G01X1273503Y1130963D01*
G01X1288471Y1136200D01*
G01X1301898Y1144636D01*
G01X1313110Y1155849D01*
G01X1321547Y1169276D01*
G01X1326784Y1184244D01*
G01X1328560Y1200001D01*
G01X1326784Y1215759D01*
G01X1321547Y1230726D01*
G01X1313110Y1244153D01*
G01X1301898Y1255366D01*
G01X1288471Y1263802D01*
G01X1273503Y1269040D01*
G01X1257746Y1270815D01*
G01X1206160Y1270815D01*
G01X1203365Y1281733D01*
G01X1197315Y1291241D01*
G01X1188610Y1298398D01*
G01X1178112Y1302496D01*
G01X1185427Y1309861D01*
G01X1190322Y1319014D01*
G01X1192387Y1329187D01*
G01X1257250Y1329187D01*
G01X1273008Y1330963D01*
G01X1287976Y1336200D01*
G01X1301402Y1344637D01*
G01X1312615Y1355849D01*
G01X1321052Y1369276D01*
G01X1326289Y1384244D01*
G01X1328065Y1400001D01*
G01X1326289Y1415759D01*
G01X1321052Y1430726D01*
G01X1312615Y1444153D01*
G01X1301402Y1455366D01*
G01X1287976Y1463803D01*
G01X1273008Y1469040D01*
G01X1257250Y1470815D01*
G01X1192387Y1470815D01*
G01X1189776Y1482406D01*
G01X1183518Y1492504D01*
G01X1174300Y1500000D01*
G01X1183518Y1507496D01*
G01X1189777Y1517596D01*
G01X1192387Y1529187D01*
G01X1257250Y1529187D01*
G01X1273008Y1530963D01*
G01X1287976Y1536200D01*
G01X1301402Y1544637D01*
G01X1303426Y1546660D01*
G01X1336716Y1546660D01*
G01X1336716Y1444120D01*
G01X1337867Y1439360D01*
G01X1341067Y1435653D01*
G01X1345608Y1433818D01*
G01X1345606Y1433414D01*
G01X1345606Y1433414D01*
G01X1345606Y1333414D01*
G01X1347359Y1322347D01*
G01X1352446Y1312363D01*
G01X1360369Y1304440D01*
G01X1370353Y1299353D01*
G01X1381420Y1297600D01*
G01X1521374Y1297600D01*
G01X1531732Y1299131D01*
G01X1541204Y1303591D01*
G01X1548982Y1310601D01*
G01X1554400Y1319560D01*
G01X1562057Y1313073D01*
G01X1571213Y1308965D01*
G01X1581149Y1307559D01*
G01X1718851Y1307559D01*
G01X1729918Y1309312D01*
G01X1739901Y1314399D01*
G01X1747825Y1322323D01*
G01X1752912Y1332306D01*
G01X1754665Y1343373D01*
G01X1754665Y1433706D01*
G01X1946685Y1433706D01*
G01X1946685Y1329500D01*
G01X1948239Y1319066D01*
G01X1952766Y1309537D01*
G01X1959872Y1301740D01*
G01X1968941Y1296352D01*
G01X1979187Y1293840D01*
G01X1979187Y1242254D01*
G01X1980963Y1226497D01*
G01X1986200Y1211529D01*
G01X1994637Y1198102D01*
G01X2005849Y1186890D01*
G01X2019276Y1178453D01*
G01X2034244Y1173216D01*
G01X2050001Y1171440D01*
G01X2065759Y1173216D01*
G01X2080726Y1178453D01*
G01X2094153Y1186890D01*
G01X2105366Y1198102D01*
G01X2113802Y1211529D01*
G01X2119040Y1226497D01*
G01X2120815Y1242254D01*
G01X2120815Y1293840D01*
G01X2131061Y1296352D01*
G01X2140129Y1301741D01*
G01X2147235Y1309538D01*
G01X2151761Y1319066D01*
G01X2153314Y1329500D01*
G01X2153314Y1356000D01*
G01X2464186Y1356000D01*
G01X2464186Y1136000D01*
G01X2465939Y1124933D01*
G01X2471026Y1114949D01*
G01X2478949Y1107026D01*
G01X2488933Y1101939D01*
G01X2500000Y1100186D01*
G01X2720000Y1100186D01*
G01X2731067Y1101939D01*
G01X2741051Y1107026D01*
G01X2748974Y1114949D01*
G01X2754061Y1124933D01*
G01X2755814Y1136000D01*
G01X2755814Y1356000D01*
G01X2755814Y1356000D01*
G01X2754061Y1367067D01*
G01X2748974Y1377051D01*
G01X2741051Y1384974D01*
G01X2731067Y1390061D01*
G01X2720000Y1391814D01*
G01X2500000Y1391814D01*
G01X2488933Y1390061D01*
G01X2478949Y1384974D01*
G01X2471026Y1377051D01*
G01X2465939Y1367067D01*
G01X2464186Y1356000D01*
G01X2153314Y1356000D01*
G01X2153314Y1433706D01*
G01X2163300Y1433706D01*
G01X2168507Y1435101D01*
G01X2172319Y1438913D01*
G01X2173714Y1444120D01*
G01X2173714Y1546660D01*
G01X2172319Y1551867D01*
G01X2168507Y1555679D01*
G01X2163300Y1557074D01*
G01X1557188Y1557074D01*
G01X1557188Y1643472D01*
G01X1555486Y1654380D01*
G01X1550544Y1664251D01*
G01X1542829Y1672148D01*
G01X1533076Y1677320D01*
G01X1522211Y1679276D01*
G01X1522211Y1700000D01*
G01X1520435Y1715758D01*
G01X1515198Y1730725D01*
G01X1506762Y1744152D01*
G01X1496913Y1754000D01*
G01X2459586Y1754000D01*
G01X2461438Y1730470D01*
G01X2466948Y1707520D01*
G01X2475981Y1685714D01*
G01X2488313Y1665589D01*
G01X2503642Y1647641D01*
G01X2521589Y1632313D01*
G01X2541714Y1619980D01*
G01X2563520Y1610948D01*
G01X2586470Y1605438D01*
G01X2610000Y1603586D01*
G01X2610000Y1603586D01*
G01X2633530Y1605438D01*
G01X2656481Y1610948D01*
G01X2678287Y1619980D01*
G01X2698411Y1632313D01*
G01X2716359Y1647641D01*
G01X2731687Y1665589D01*
G01X2744020Y1685714D01*
G01X2753052Y1707520D01*
G01X2758562Y1730470D01*
G01X2760414Y1754000D01*
G01X2758562Y1777530D01*
G01X2753052Y1800480D01*
G01X2744020Y1822286D01*
G01X2731687Y1842411D01*
G01X2716359Y1860359D01*
G01X2698411Y1875687D01*
G01X2678287Y1888020D01*
G01X2656481Y1897052D01*
G01X2633530Y1902562D01*
G01X2610000Y1904414D01*
G01X2586470Y1902562D01*
G01X2563520Y1897052D01*
G01X2541714Y1888020D01*
G01X2521589Y1875687D01*
G01X2503642Y1860359D01*
G01X2488313Y1842411D01*
G01X2475981Y1822286D01*
G01X2466948Y1800480D01*
G01X2461438Y1777530D01*
G01X2459586Y1754000D01*
G01X1496913Y1754000D01*
G01X1495549Y1755365D01*
G01X1482122Y1763801D01*
G01X1467155Y1769039D01*
G01X1451397Y1770814D01*
G01X1435639Y1769039D01*
G01X1420672Y1763801D01*
G01X1407245Y1755365D01*
G01X1396032Y1744152D01*
G01X1387596Y1730725D01*
G01X1382358Y1715758D01*
G01X1380583Y1700000D01*
G01X1380583Y1679276D01*
G01X1369718Y1677320D01*
G01X1359965Y1672148D01*
G01X1352250Y1664251D01*
G01X1347307Y1654380D01*
G01X1345606Y1643472D01*
G01X1345606Y1556962D01*
G01X1341066Y1555127D01*
G01X1337867Y1551420D01*
G01X1336716Y1546660D01*
G01X1303426Y1546660D01*
G01X1312615Y1555850D01*
G01X1321052Y1569276D01*
G01X1326289Y1584244D01*
G01X1328065Y1600001D01*
G01X1326289Y1615759D01*
G01X1321052Y1630726D01*
G01X1312615Y1644153D01*
G01X1301402Y1655366D01*
G01X1287976Y1663803D01*
G01X1273008Y1669040D01*
G01X1257250Y1670815D01*
G01X1192387Y1670815D01*
G01X1190322Y1680987D01*
G01X1185426Y1690139D01*
G01X1178112Y1697504D01*
G01X1188611Y1701602D01*
G01X1197316Y1708760D01*
G01X1203365Y1718268D01*
G01X1206160Y1729186D01*
G01X1250000Y1729186D01*
G01X1265758Y1730961D01*
G01X1280725Y1736199D01*
G01X1294152Y1744635D01*
G01X1305365Y1755848D01*
G01X1313801Y1769275D01*
G01X1319039Y1784242D01*
G01X1320814Y1800000D01*
G01X1319039Y1815758D01*
G01X1313801Y1830725D01*
G01X1305365Y1844152D01*
G01X1294152Y1855365D01*
G01X1280725Y1863801D01*
G01X1265758Y1869039D01*
G01X1250000Y1870814D01*
G01X1206160Y1870814D01*
G01X1203648Y1881060D01*
G01X1198260Y1890129D01*
G01X1190463Y1897235D01*
G01X1180934Y1901761D01*
G01X1170500Y1903314D01*
G01X1058034Y1903314D01*
G01X1058034Y1916440D01*
G01X1056639Y1921647D01*
G01X1052827Y1925459D01*
G01X1047620Y1926854D01*
G01X959880Y1926854D01*
G01X954673Y1925459D01*
G01X950861Y1921647D01*
G01X949466Y1916440D01*
G01X949466Y1704665D01*
G01X843373Y1704665D01*
G01X832306Y1702912D01*
G01X822323Y1697825D01*
G01X814399Y1689902D01*
G01X809312Y1679918D01*
G01X807559Y1668851D01*
G01X807559Y1650814D01*
G01X750000Y1650814D01*
G01X736848Y1649083D01*
G01X724593Y1644006D01*
G01X714069Y1635931D01*
G01X678952Y1600814D01*
G01X644643Y1600814D01*
G01X639060Y1609035D01*
G01X631434Y1615406D01*
G01X622350Y1619435D01*
G01X612509Y1620814D01*
G01X500160Y1620814D01*
G01X500160Y1684217D01*
G01X694377Y1684217D01*
G01X698265Y1684990D01*
G01X701561Y1687193D01*
G01X757184Y1742816D01*
G01X759387Y1746112D01*
G01X760160Y1750000D01*
G01X760160Y1945792D01*
G01X854208Y2039840D01*
G01X2795792Y2039840D01*
G01X2889840Y1945792D01*
G01X2889840Y1054208D01*
G01X2795792Y960160D01*
G01X854208Y960160D01*
G01X760160Y1054208D01*
G01X760160Y1250000D01*
G01X759387Y1253888D01*
G01X757184Y1257184D01*
G01X697184Y1317184D01*
G01X693888Y1319387D01*
G01X690000Y1320160D01*
G01X500160Y1320160D01*
G37*
G54D10*
G01X500160Y1320160D02*
G01X500160Y1379186D01*
G01X612509Y1379186D01*
G03X645675Y1401486I0J35814D01*
G01X679905Y1401486D01*
G01X715695Y1365696D01*
G03X750000Y1351486I34305J34304D01*
G01X807559Y1351486D01*
G01X807559Y1331149D01*
G03X843373Y1295335I35814J0D01*
G01X949466Y1295335D01*
G01X949466Y1086960D01*
G03X959880Y1076546I10414J0D01*
G01X1047620Y1076546D01*
G03X1058034Y1086960I0J10414D01*
G01X1058034Y1096685D01*
G01X1170500Y1096685D01*
G03X1206161Y1129187I0J35814D01*
G01X1257746Y1129187D01*
G03X1257746Y1270815I0J70814D01*
G01X1206160Y1270815D01*
G03X1178112Y1302496I-35660J-3315D01*
G03X1192387Y1329187I-21485J28653D01*
G01X1257250Y1329187D01*
G03X1257250Y1470815I0J70814D01*
G01X1192387Y1470815D01*
G03X1174300Y1500000I-35760J-1965D01*
G03X1192387Y1529187I-17673J31150D01*
G01X1257250Y1529187D01*
G03X1257250Y1670815I0J70814D01*
G01X1192387Y1670815D01*
G03X1178112Y1697504I-35760J-1965D01*
G03X1206160Y1729186I-7612J34996D01*
G01X1250000Y1729186D01*
G03X1250000Y1870814I0J70814D01*
G01X1206160Y1870814D01*
G03X1170500Y1903314I-35660J-3314D01*
G01X1058034Y1903314D01*
G01X1058034Y1916440D01*
G03X1047620Y1926854I-10414J0D01*
G01X959880Y1926854D01*
G03X949466Y1916440I0J-10414D01*
G01X949466Y1704665D01*
G01X843373Y1704665D01*
G03X807559Y1668851I0J-35814D01*
G01X807559Y1650814D01*
G01X750000Y1650814D01*
G03X714069Y1635931I0J-50814D01*
G01X678952Y1600814D01*
G01X644643Y1600814D01*
G03X612509Y1620814I-32133J-15814D01*
G01X500160Y1620814D01*
G01X500160Y1684217D01*
G01X694377Y1684217D01*
G03X701561Y1687193I0J10160D01*
G01X757184Y1742816D01*
G03X760160Y1750000I-7184J7184D01*
G01X760160Y1945792D01*
G01X854208Y2039840D01*
G01X2795792Y2039840D01*
G01X2889840Y1945792D01*
G01X2889840Y1054208D01*
G01X2795792Y960160D01*
G01X854208Y960160D01*
G01X760160Y1054208D01*
G01X760160Y1250000D01*
G03X757184Y1257184I-10160J0D01*
G01X697184Y1317184D01*
G03X690000Y1320160I-7184J-7184D01*
G01X500160Y1320160D01*
G01X1345606Y1433414D02*
G01X1345606Y1333414D01*
G03X1381420Y1297600I35814J0D01*
G01X1521374Y1297600D01*
G03X1554400Y1319560I0J35814D01*
G03X1581149Y1307559I26750J23814D01*
G01X1718851Y1307559D01*
G03X1754665Y1343373I0J35814D01*
G01X1754665Y1433706D01*
G01X1946685Y1433706D01*
G01X1946685Y1329500D01*
G03X1979187Y1293840I35814J0D01*
G01X1979187Y1242254D01*
G03X2120815Y1242254I70814J0D01*
G01X2120815Y1293840D01*
G03X2153314Y1329500I-3315J35660D01*
G01X2153314Y1433706D01*
G01X2163300Y1433706D01*
G03X2173714Y1444120I0J10414D01*
G01X2173714Y1546660D01*
G03X2163300Y1557074I-10414J0D01*
G01X1557188Y1557074D01*
G01X1557188Y1643472D01*
G03X1522211Y1679276I-35814J0D01*
G01X1522211Y1700000D01*
G03X1380583Y1700000I-70814J0D01*
G01X1380583Y1679276D01*
G03X1345606Y1643472I837J-35804D01*
G01X1345606Y1556962D01*
G03X1336716Y1546660I1524J-10302D01*
G01X1336716Y1444120D01*
G03X1345608Y1433818I10414J0D01*
G01X1345606Y1433414D01*
G01X2610000Y1603586D02*
G03X2610000Y1904414I0J150414D01*
G03X2610000Y1603586I0J-150414D01*
G01X2755814Y1356000D02*
G03X2720000Y1391814I-35814J0D01*
G01X2500000Y1391814D01*
G03X2464186Y1356000I0J-35814D01*
G01X2464186Y1136000D01*
G03X2500000Y1100186I35814J0D01*
G01X2720000Y1100186D01*
G03X2755814Y1136000I0J35814D01*
G01X2755814Y1356000D01*
G54D11*
G01X2610000Y1644254D02*
G01X2610000Y1613746D01*
G01X2610000Y1863746D02*
G01X2610000Y1894254D01*
G01X2500254Y1754000D02*
G01X2469746Y1754000D01*
G01X2719746Y1754000D02*
G01X2750254Y1754000D01*
G04 Copper End*

G04 Pad Start*
G54D12*
G01X900000Y1800000D03*
G01X1100000Y1800000D03*
G01X900000Y1200000D03*
G01X1100000Y1200000D03*
G54D13*
G01X2050000Y1600000D03*
G01X2050000Y1400000D03*
G54D14*
G01X2610000Y1246000D03*
G54D15*
G01X2610000Y1754000D03*
G54D16*
G01X1451397Y1593472D03*
G01X1451397Y1383414D03*
G54D18*
G01X500000Y500000D03*
G01X2500000Y500000D03*
G01X2500000Y2500000D03*
G01X500000Y2500000D03*
G54D19*
G01X1650000Y1600000D03*
G01X1650000Y1400000D03*
G54D20*
G01X900000Y1400000D03*
G01X1100000Y1400000D03*
G01X900000Y1600000D03*
G01X1100000Y1600000D03*
G54D21*
G01X552509Y1224994D03*
G54D22*
G01X552509Y1348001D03*
G01X552509Y1450000D03*
G01X552509Y1550000D03*
G01X552509Y1651999D03*
G54D21*
G01X552509Y1774993D03*
G54D23*
G01X507500Y1931991D03*
G01X507500Y1068010D03*
G01X127491Y1931991D03*
G01X127491Y1068010D03*
G04 Pad End*

G04 Via Start*
G54D24*
G01X1250000Y1800000D03*
G01X1257250Y1600001D03*
G01X1257250Y1400001D03*
G01X1257746Y1200001D03*
G01X1451397Y1700000D03*
G01X2050001Y1242254D03*
G01X350000Y1774993D03*
G01X422502Y1774993D03*
G01X350000Y1224994D03*
G01X421654Y1224994D03*
G04 Via End*

G04 Track Start*
G54D25*
G01X700000Y1550000D02*
G01X750000Y1600000D01*
G01X900000Y1600000D01*
G54D26*
G01X700000Y1450000D02*
G01X750000Y1400000D01*
G01X900000Y1400000D01*
G54D27*
G01X1100000Y1800000D02*
G01X1250000Y1800000D01*
G01X1107250Y1600001D02*
G01X1257250Y1600001D01*
G01X1107250Y1400001D02*
G01X1257250Y1400001D01*
G01X1107746Y1200001D02*
G01X1257746Y1200001D01*
G01X1451397Y1593472D02*
G01X1451397Y1700000D01*
G01X2050001Y1392255D02*
G01X2050001Y1242254D01*
G54D25*
G01X552509Y1550000D02*
G01X700000Y1550000D01*
G54D26*
G01X552509Y1450000D02*
G01X700000Y1450000D01*
G54D27*
G01X552509Y1774993D02*
G01X422502Y1774993D01*
G01X350000Y1774993D01*
G01X552509Y1224994D02*
G01X421654Y1224994D01*
G01X350000Y1224994D01*
G54D26*
G01X1451397Y1383414D02*
G01X1633414Y1383414D01*
G01X1650000Y1400000D01*
G04 Track End*

M02*

