G04 Layer: BottomSilkscreenLayer*
G04 EasyEDA Pro v2.2.46.11, 2026-03-15 16:51:15*
G04 Gerber Generator version 0.3*
G04 Scale: 100 percent, Rotated: No, Reflected: No*
G04 Dimensions in millimeters*
G04 Leading zeros omitted, absolute positions, 4 integers and 5 decimals*
G04 Generated by one-click*
%FSLAX45Y45*%
%MOMM*%
%ADD10C,0.16*%
%ADD11C,0.3525*%
G75*


G04 Text Start*
G54D10*
G01X2032126Y2415222D02*
G01X2011044Y2327338D01*
G01X1990216Y2415222D02*
G01X2011044Y2327338D01*
G01X1990216Y2415222D02*
G01X1969134Y2327338D01*
G01X1948306Y2415222D02*
G01X1969134Y2327338D01*
G01X1912238Y2360866D02*
G01X1861946Y2360866D01*
G01X1861946Y2369248D01*
G01X1866264Y2377630D01*
G01X1870328Y2381694D01*
G01X1878710Y2386012D01*
G01X1891156Y2386012D01*
G01X1899538Y2381694D01*
G01X1907920Y2373312D01*
G01X1912238Y2360866D01*
G01X1912238Y2352484D01*
G01X1907920Y2339784D01*
G01X1899538Y2331402D01*
G01X1891156Y2327338D01*
G01X1878710Y2327338D01*
G01X1870328Y2331402D01*
G01X1861946Y2339784D01*
G01X1825878Y2415222D02*
G01X1825878Y2327338D01*
G01X1789810Y2415222D02*
G01X1789810Y2327338D01*
G01X1745360Y2344102D02*
G01X1749424Y2339784D01*
G01X1753742Y2344102D01*
G01X1749424Y2348166D01*
G01X1745360Y2344102D01*
G01X1745360Y2335720D01*
G01X1753742Y2327338D01*
G01X1615566Y2386012D02*
G01X1598802Y2327338D01*
G01X1582038Y2386012D02*
G01X1598802Y2327338D01*
G01X1582038Y2386012D02*
G01X1565274Y2327338D01*
G01X1548510Y2386012D02*
G01X1565274Y2327338D01*
G01X1512442Y2360866D02*
G01X1462150Y2360866D01*
G01X1462150Y2369248D01*
G01X1466468Y2377630D01*
G01X1470532Y2381694D01*
G01X1478914Y2386012D01*
G01X1491360Y2386012D01*
G01X1499742Y2381694D01*
G01X1508124Y2373312D01*
G01X1512442Y2360866D01*
G01X1512442Y2352484D01*
G01X1508124Y2339784D01*
G01X1499742Y2331402D01*
G01X1491360Y2327338D01*
G01X1478914Y2327338D01*
G01X1470532Y2331402D01*
G01X1462150Y2339784D01*
G01X1426082Y2415222D02*
G01X1426082Y2327338D01*
G01X1390014Y2415222D02*
G01X1390014Y2327338D01*
G01X1345564Y2344102D02*
G01X1349628Y2339784D01*
G01X1353946Y2344102D01*
G01X1349628Y2348166D01*
G01X1345564Y2344102D01*
G01X1345564Y2335720D01*
G01X1353946Y2327338D01*
G01X1215770Y2386012D02*
G01X1199006Y2327338D01*
G01X1182242Y2386012D02*
G01X1199006Y2327338D01*
G01X1182242Y2386012D02*
G01X1165478Y2327338D01*
G01X1148714Y2386012D02*
G01X1165478Y2327338D01*
G01X1112646Y2360866D02*
G01X1062354Y2360866D01*
G01X1062354Y2369248D01*
G01X1066672Y2377630D01*
G01X1070736Y2381694D01*
G01X1079118Y2386012D01*
G01X1091564Y2386012D01*
G01X1099946Y2381694D01*
G01X1108328Y2373312D01*
G01X1112646Y2360866D01*
G01X1112646Y2352484D01*
G01X1108328Y2339784D01*
G01X1099946Y2331402D01*
G01X1091564Y2327338D01*
G01X1079118Y2327338D01*
G01X1070736Y2331402D01*
G01X1062354Y2339784D01*
G01X1026286Y2415222D02*
G01X1026286Y2327338D01*
G01X990218Y2415222D02*
G01X990218Y2327338D01*
G01X1938146Y2265362D02*
G01X1938146Y2177224D01*
G01X1880996Y2235898D02*
G01X1889378Y2231834D01*
G01X1897760Y2223452D01*
G01X1902078Y2210752D01*
G01X1902078Y2202370D01*
G01X1897760Y2189924D01*
G01X1889378Y2181542D01*
G01X1880996Y2177224D01*
G01X1868550Y2177224D01*
G01X1860168Y2181542D01*
G01X1851786Y2189924D01*
G01X1847722Y2202370D01*
G01X1847722Y2210752D01*
G01X1851786Y2223452D01*
G01X1860168Y2231834D01*
G01X1868550Y2235898D01*
G01X1880996Y2235898D01*
G01X1790572Y2235898D02*
G01X1798954Y2231834D01*
G01X1807336Y2223452D01*
G01X1811654Y2210752D01*
G01X1811654Y2202370D01*
G01X1807336Y2189924D01*
G01X1798954Y2181542D01*
G01X1790572Y2177224D01*
G01X1778126Y2177224D01*
G01X1769744Y2181542D01*
G01X1761362Y2189924D01*
G01X1757298Y2202370D01*
G01X1757298Y2210752D01*
G01X1761362Y2223452D01*
G01X1769744Y2231834D01*
G01X1778126Y2235898D01*
G01X1790572Y2235898D01*
G01X1721230Y2265362D02*
G01X1721230Y2177224D01*
G01X1679320Y2235898D02*
G01X1721230Y2193988D01*
G01X1704466Y2210752D02*
G01X1675256Y2177224D01*
G01X1545462Y2235898D02*
G01X1528698Y2177224D01*
G01X1511934Y2235898D02*
G01X1528698Y2177224D01*
G01X1511934Y2235898D02*
G01X1495170Y2177224D01*
G01X1478406Y2235898D02*
G01X1495170Y2177224D01*
G01X1442338Y2265362D02*
G01X1442338Y2177224D01*
G01X1442338Y2219134D02*
G01X1429638Y2231834D01*
G01X1421256Y2235898D01*
G01X1408810Y2235898D01*
G01X1400428Y2231834D01*
G01X1396364Y2219134D01*
G01X1396364Y2177224D01*
G01X1339214Y2235898D02*
G01X1347596Y2231834D01*
G01X1355978Y2223452D01*
G01X1360296Y2210752D01*
G01X1360296Y2202370D01*
G01X1355978Y2189924D01*
G01X1347596Y2181542D01*
G01X1339214Y2177224D01*
G01X1326768Y2177224D01*
G01X1318386Y2181542D01*
G01X1310004Y2189924D01*
G01X1305940Y2202370D01*
G01X1305940Y2210752D01*
G01X1310004Y2223452D01*
G01X1318386Y2231834D01*
G01X1326768Y2235898D01*
G01X1339214Y2235898D01*
G01X1176146Y2235898D02*
G01X1159382Y2177224D01*
G01X1142618Y2235898D02*
G01X1159382Y2177224D01*
G01X1142618Y2235898D02*
G01X1125854Y2177224D01*
G01X1109090Y2235898D02*
G01X1125854Y2177224D01*
G01X1073022Y2210752D02*
G01X1022730Y2210752D01*
G01X1022730Y2219134D01*
G01X1027048Y2227516D01*
G01X1031112Y2231834D01*
G01X1039494Y2235898D01*
G01X1051940Y2235898D01*
G01X1060322Y2231834D01*
G01X1068704Y2223452D01*
G01X1073022Y2210752D01*
G01X1073022Y2202370D01*
G01X1068704Y2189924D01*
G01X1060322Y2181542D01*
G01X1051940Y2177224D01*
G01X1039494Y2177224D01*
G01X1031112Y2181542D01*
G01X1022730Y2189924D01*
G01X1844420Y2115248D02*
G01X1844420Y2027364D01*
G01X1844420Y2069274D02*
G01X1831720Y2081720D01*
G01X1823338Y2086038D01*
G01X1810892Y2086038D01*
G01X1802510Y2081720D01*
G01X1798446Y2069274D01*
G01X1798446Y2027364D01*
G01X1712086Y2086038D02*
G01X1712086Y2027364D01*
G01X1712086Y2073338D02*
G01X1720468Y2081720D01*
G01X1728850Y2086038D01*
G01X1741296Y2086038D01*
G01X1749678Y2081720D01*
G01X1758060Y2073338D01*
G01X1762378Y2060892D01*
G01X1762378Y2052510D01*
G01X1758060Y2039810D01*
G01X1749678Y2031428D01*
G01X1741296Y2027364D01*
G01X1728850Y2027364D01*
G01X1720468Y2031428D01*
G01X1712086Y2039810D01*
G01X1676018Y2086038D02*
G01X1650872Y2027364D01*
G01X1625726Y2086038D02*
G01X1650872Y2027364D01*
G01X1589658Y2060892D02*
G01X1539366Y2060892D01*
G01X1539366Y2069274D01*
G01X1543684Y2077656D01*
G01X1547748Y2081720D01*
G01X1556130Y2086038D01*
G01X1568576Y2086038D01*
G01X1576958Y2081720D01*
G01X1585340Y2073338D01*
G01X1589658Y2060892D01*
G01X1589658Y2052510D01*
G01X1585340Y2039810D01*
G01X1576958Y2031428D01*
G01X1568576Y2027364D01*
G01X1556130Y2027364D01*
G01X1547748Y2031428D01*
G01X1539366Y2039810D01*
G01X1409572Y2115248D02*
G01X1409572Y2027364D01*
G01X1409572Y2069274D02*
G01X1396872Y2081720D01*
G01X1388490Y2086038D01*
G01X1376044Y2086038D01*
G01X1367662Y2081720D01*
G01X1363344Y2069274D01*
G01X1363344Y2027364D01*
G01X1327276Y2060892D02*
G01X1276984Y2060892D01*
G01X1276984Y2069274D01*
G01X1281302Y2077656D01*
G01X1285366Y2081720D01*
G01X1293748Y2086038D01*
G01X1306194Y2086038D01*
G01X1314576Y2081720D01*
G01X1322958Y2073338D01*
G01X1327276Y2060892D01*
G01X1327276Y2052510D01*
G01X1322958Y2039810D01*
G01X1314576Y2031428D01*
G01X1306194Y2027364D01*
G01X1293748Y2027364D01*
G01X1285366Y2031428D01*
G01X1276984Y2039810D01*
G01X1240916Y2086038D02*
G01X1240916Y2027364D01*
G01X1240916Y2060892D02*
G01X1236598Y2073338D01*
G01X1228216Y2081720D01*
G01X1219834Y2086038D01*
G01X1207388Y2086038D01*
G01X1171320Y2060892D02*
G01X1121028Y2060892D01*
G01X1121028Y2069274D01*
G01X1125346Y2077656D01*
G01X1129410Y2081720D01*
G01X1137792Y2086038D01*
G01X1150238Y2086038D01*
G01X1158620Y2081720D01*
G01X1167002Y2073338D01*
G01X1171320Y2060892D01*
G01X1171320Y2052510D01*
G01X1167002Y2039810D01*
G01X1158620Y2031428D01*
G01X1150238Y2027364D01*
G01X1137792Y2027364D01*
G01X1129410Y2031428D01*
G01X1121028Y2039810D01*
G04 Text End*

M02*

