G04 Layer: TopSilkscreenLayer*
G04 EasyEDA Pro v2.2.46.11, 2026-03-15 16:51:15*
G04 Gerber Generator version 0.3*
G04 Scale: 100 percent, Rotated: No, Reflected: No*
G04 Dimensions in millimeters*
G04 Leading zeros omitted, absolute positions, 4 integers and 5 decimals*
G04 Generated by one-click*
%FSLAX45Y45*%
%MOMM*%
%ADD10C,0.153*%
%ADD11C,0.5*%
%ADD12C,0.3*%
%ADD13C,0.1524*%
%ADD14C,0.254*%
%ADD15C,0.2558*%
%ADD16C,0.25*%
G75*


G04 Text Start*
G54D10*
G01X107620Y2144234D02*
G01X107620Y2079210D01*
G01X137846Y2144234D02*
G01X137846Y2079210D01*
G01X137846Y2144234D02*
G01X181026Y2079210D01*
G01X181026Y2144234D02*
G01X181026Y2079210D01*
G01X2556162Y2104234D02*
G01X2550066Y2101186D01*
G01X2543716Y2095090D01*
G01X2540668Y2088740D01*
G01X2537620Y2079596D01*
G01X2537620Y2064102D01*
G01X2540668Y2054704D01*
G01X2543716Y2048608D01*
G01X2550066Y2042512D01*
G01X2556162Y2039210D01*
G01X2568608Y2039210D01*
G01X2574704Y2042512D01*
G01X2581054Y2048608D01*
G01X2584102Y2054704D01*
G01X2587150Y2064102D01*
G01X2587150Y2079596D01*
G01X2584102Y2088740D01*
G01X2581054Y2095090D01*
G01X2574704Y2101186D01*
G01X2568608Y2104234D01*
G01X2556162Y2104234D01*
G01X2617376Y2104234D02*
G01X2617376Y2057752D01*
G01X2620424Y2048608D01*
G01X2626520Y2042512D01*
G01X2635918Y2039210D01*
G01X2642014Y2039210D01*
G01X2651412Y2042512D01*
G01X2657508Y2048608D01*
G01X2660556Y2057752D01*
G01X2660556Y2104234D01*
G01X2712372Y2104234D02*
G01X2712372Y2039210D01*
G01X2690782Y2104234D02*
G01X2733962Y2104234D01*
G01X2764188Y2104234D02*
G01X2764188Y2039210D01*
G01X2764188Y2104234D02*
G01X2791874Y2104234D01*
G01X2801272Y2101186D01*
G01X2804320Y2098138D01*
G01X2807368Y2091788D01*
G01X2807368Y2082644D01*
G01X2804320Y2076548D01*
G01X2801272Y2073246D01*
G01X2791874Y2070198D01*
G01X2764188Y2070198D01*
G01X2837594Y2104234D02*
G01X2837594Y2057752D01*
G01X2840642Y2048608D01*
G01X2846738Y2042512D01*
G01X2856136Y2039210D01*
G01X2862232Y2039210D01*
G01X2871630Y2042512D01*
G01X2877726Y2048608D01*
G01X2880774Y2057752D01*
G01X2880774Y2104234D01*
G01X2932590Y2104234D02*
G01X2932590Y2039210D01*
G01X2911000Y2104234D02*
G01X2954180Y2104234D01*
G01X1277620Y1964234D02*
G01X1277620Y1899210D01*
G01X1277620Y1964234D02*
G01X1305560Y1964234D01*
G01X1314704Y1961186D01*
G01X1317752Y1958138D01*
G01X1321054Y1951788D01*
G01X1321054Y1942644D01*
G01X1317752Y1936548D01*
G01X1314704Y1933246D01*
G01X1305560Y1930198D01*
G01X1277620Y1930198D01*
G01X1369822Y1964234D02*
G01X1363472Y1961186D01*
G01X1357376Y1955090D01*
G01X1354328Y1948740D01*
G01X1351280Y1939596D01*
G01X1351280Y1924102D01*
G01X1354328Y1914704D01*
G01X1357376Y1908608D01*
G01X1363472Y1902512D01*
G01X1369822Y1899210D01*
G01X1382268Y1899210D01*
G01X1388364Y1902512D01*
G01X1394460Y1908608D01*
G01X1397508Y1914704D01*
G01X1400810Y1924102D01*
G01X1400810Y1939596D01*
G01X1397508Y1948740D01*
G01X1394460Y1955090D01*
G01X1388364Y1961186D01*
G01X1382268Y1964234D01*
G01X1369822Y1964234D01*
G01X1431036Y1964234D02*
G01X1446530Y1899210D01*
G01X1462024Y1964234D02*
G01X1446530Y1899210D01*
G01X1462024Y1964234D02*
G01X1477264Y1899210D01*
G01X1492758Y1964234D02*
G01X1477264Y1899210D01*
G01X1522984Y1964234D02*
G01X1522984Y1899210D01*
G01X1522984Y1964234D02*
G01X1563116Y1964234D01*
G01X1522984Y1933246D02*
G01X1547622Y1933246D01*
G01X1522984Y1899210D02*
G01X1563116Y1899210D01*
G01X1593342Y1964234D02*
G01X1593342Y1899210D01*
G01X1593342Y1964234D02*
G01X1621028Y1964234D01*
G01X1630426Y1961186D01*
G01X1633474Y1958138D01*
G01X1636522Y1951788D01*
G01X1636522Y1945692D01*
G01X1633474Y1939596D01*
G01X1630426Y1936548D01*
G01X1621028Y1933246D01*
G01X1593342Y1933246D01*
G01X1614932Y1933246D02*
G01X1636522Y1899210D01*
G01X1367620Y1854234D02*
G01X1367620Y1789210D01*
G01X1367620Y1789210D02*
G01X1404704Y1789210D01*
G01X1434930Y1854234D02*
G01X1434930Y1789210D01*
G01X1434930Y1854234D02*
G01X1475062Y1854234D01*
G01X1434930Y1823246D02*
G01X1459568Y1823246D01*
G01X1434930Y1789210D02*
G01X1475062Y1789210D01*
G01X1505288Y1854234D02*
G01X1505288Y1789210D01*
G01X1505288Y1854234D02*
G01X1526878Y1854234D01*
G01X1536276Y1851186D01*
G01X1542372Y1845090D01*
G01X1545420Y1838740D01*
G01X1548468Y1829596D01*
G01X1548468Y1814102D01*
G01X1545420Y1804704D01*
G01X1542372Y1798608D01*
G01X1536276Y1792512D01*
G01X1526878Y1789210D01*
G01X1505288Y1789210D01*
G54D11*
G01X2045250Y1900218D02*
G01X2045250Y1759756D01*
G01X1974892Y1830114D02*
G01X2115608Y1830114D01*
G01X1974892Y1130114D02*
G01X2115608Y1130114D01*
G54D12*
G01X1044986Y2681206D02*
G01X1044986Y2504168D01*
G01X1044986Y2681206D02*
G01X1120932Y2681206D01*
G01X1146332Y2672824D01*
G01X1154714Y2664442D01*
G01X1163096Y2647424D01*
G01X1163096Y2622278D01*
G01X1154714Y2605260D01*
G01X1146332Y2596878D01*
G01X1120932Y2588496D01*
G01X1044986Y2588496D01*
G01X1233708Y2681206D02*
G01X1233708Y2504168D01*
G01X1233708Y2681206D02*
G01X1309654Y2681206D01*
G01X1334800Y2672824D01*
G01X1343182Y2664442D01*
G01X1351818Y2647424D01*
G01X1351818Y2630660D01*
G01X1343182Y2613642D01*
G01X1334800Y2605260D01*
G01X1309654Y2596878D01*
G01X1233708Y2596878D01*
G01X1292636Y2596878D02*
G01X1351818Y2504168D01*
G01X1422430Y2681206D02*
G01X1422430Y2504168D01*
G01X1493042Y2681206D02*
G01X1493042Y2504168D01*
G01X1493042Y2681206D02*
G01X1611152Y2504168D01*
G01X1611152Y2681206D02*
G01X1611152Y2504168D01*
G01X1808256Y2639042D02*
G01X1799874Y2656060D01*
G01X1782856Y2672824D01*
G01X1766092Y2681206D01*
G01X1732310Y2681206D01*
G01X1715292Y2672824D01*
G01X1698528Y2656060D01*
G01X1690146Y2639042D01*
G01X1681764Y2613642D01*
G01X1681764Y2571478D01*
G01X1690146Y2546332D01*
G01X1698528Y2529314D01*
G01X1715292Y2512550D01*
G01X1732310Y2504168D01*
G01X1766092Y2504168D01*
G01X1782856Y2512550D01*
G01X1799874Y2529314D01*
G01X1808256Y2546332D01*
G01X1878868Y2681206D02*
G01X1878868Y2504168D01*
G01X1878868Y2681206D02*
G01X1988342Y2681206D01*
G01X1878868Y2596878D02*
G01X1946178Y2596878D01*
G01X1878868Y2504168D02*
G01X1988342Y2504168D01*
G54D13*
G01X704102Y1828740D02*
G01X701054Y1835090D01*
G01X694704Y1841186D01*
G01X688608Y1844234D01*
G01X676162Y1844234D01*
G01X670066Y1841186D01*
G01X663716Y1835090D01*
G01X660668Y1828740D01*
G01X657620Y1819596D01*
G01X657620Y1804102D01*
G01X660668Y1794704D01*
G01X663716Y1788608D01*
G01X670066Y1782258D01*
G01X676162Y1779210D01*
G01X688608Y1779210D01*
G01X694704Y1782258D01*
G01X701054Y1788608D01*
G01X704102Y1794704D01*
G01X734328Y1831788D02*
G01X740424Y1835090D01*
G01X749568Y1844234D01*
G01X749568Y1779210D01*
G01X704102Y1228740D02*
G01X701054Y1235090D01*
G01X694704Y1241186D01*
G01X688608Y1244234D01*
G01X676162Y1244234D01*
G01X670066Y1241186D01*
G01X663716Y1235090D01*
G01X660668Y1228740D01*
G01X657620Y1219596D01*
G01X657620Y1204102D01*
G01X660668Y1194704D01*
G01X663716Y1188608D01*
G01X670066Y1182258D01*
G01X676162Y1179210D01*
G01X688608Y1179210D01*
G01X694704Y1182258D01*
G01X701054Y1188608D01*
G01X704102Y1194704D01*
G01X737376Y1228740D02*
G01X737376Y1231788D01*
G01X740424Y1238138D01*
G01X743472Y1241186D01*
G01X749568Y1244234D01*
G01X762014Y1244234D01*
G01X768364Y1241186D01*
G01X771412Y1238138D01*
G01X774460Y1231788D01*
G01X774460Y1225692D01*
G01X771412Y1219596D01*
G01X765062Y1210198D01*
G01X734328Y1179210D01*
G01X777508Y1179210D01*
G01X1871260Y1504102D02*
G01X1864910Y1501054D01*
G01X1858814Y1494704D01*
G01X1855766Y1488608D01*
G01X1855766Y1476162D01*
G01X1858814Y1470066D01*
G01X1864910Y1463716D01*
G01X1871260Y1460668D01*
G01X1880404Y1457620D01*
G01X1895898Y1457620D01*
G01X1905296Y1460668D01*
G01X1911392Y1463716D01*
G01X1917742Y1470066D01*
G01X1920790Y1476162D01*
G01X1920790Y1488608D01*
G01X1917742Y1494704D01*
G01X1911392Y1501054D01*
G01X1905296Y1504102D01*
G01X1855766Y1540424D02*
G01X1855766Y1574460D01*
G01X1880404Y1555918D01*
G01X1880404Y1565062D01*
G01X1883452Y1571412D01*
G01X1886754Y1574460D01*
G01X1895898Y1577508D01*
G01X1902248Y1577508D01*
G01X1911392Y1574460D01*
G01X1917742Y1568364D01*
G01X1920790Y1558966D01*
G01X1920790Y1549568D01*
G01X1917742Y1540424D01*
G01X1914440Y1537376D01*
G01X1908344Y1534328D01*
G01X2855766Y868608D02*
G01X2905296Y868608D01*
G01X2914440Y865560D01*
G01X2917742Y862512D01*
G01X2920790Y856162D01*
G01X2920790Y850066D01*
G01X2917742Y843716D01*
G01X2914440Y840668D01*
G01X2905296Y837620D01*
G01X2898946Y837620D01*
G01X2871260Y901882D02*
G01X2868212Y901882D01*
G01X2861862Y904930D01*
G01X2858814Y907978D01*
G01X2855766Y914074D01*
G01X2855766Y926520D01*
G01X2858814Y932870D01*
G01X2861862Y935918D01*
G01X2868212Y938966D01*
G01X2874308Y938966D01*
G01X2880404Y935918D01*
G01X2889802Y929568D01*
G01X2920790Y898834D01*
G01X2920790Y942014D01*
G01X1294234Y1592380D02*
G01X1229210Y1592380D01*
G01X1229210Y1592380D02*
G01X1229210Y1555296D01*
G01X1294234Y1525070D02*
G01X1229210Y1525070D01*
G01X1294234Y1525070D02*
G01X1294234Y1484938D01*
G01X1263246Y1525070D02*
G01X1263246Y1500432D01*
G01X1229210Y1525070D02*
G01X1229210Y1484938D01*
G01X1294234Y1454712D02*
G01X1229210Y1454712D01*
G01X1294234Y1454712D02*
G01X1294234Y1433122D01*
G01X1291186Y1423978D01*
G01X1285090Y1417628D01*
G01X1278740Y1414580D01*
G01X1269596Y1411532D01*
G01X1254102Y1411532D01*
G01X1244704Y1414580D01*
G01X1238608Y1417628D01*
G01X1232258Y1423978D01*
G01X1229210Y1433122D01*
G01X1229210Y1454712D01*
G01X1281788Y1381306D02*
G01X1285090Y1375210D01*
G01X1294234Y1366066D01*
G01X1229210Y1366066D01*
G01X1605766Y1207620D02*
G01X1670790Y1207620D01*
G01X1605766Y1207620D02*
G01X1605766Y1235560D01*
G01X1608814Y1244704D01*
G01X1611862Y1247752D01*
G01X1618212Y1251054D01*
G01X1624308Y1251054D01*
G01X1630404Y1247752D01*
G01X1633452Y1244704D01*
G01X1636754Y1235560D01*
G01X1636754Y1207620D01*
G01X1636754Y1229210D02*
G01X1670790Y1251054D01*
G01X1618212Y1281280D02*
G01X1614910Y1287376D01*
G01X1605766Y1296520D01*
G01X1670790Y1296520D01*
G01X657620Y1444234D02*
G01X657620Y1379210D01*
G01X657620Y1444234D02*
G01X685560Y1444234D01*
G01X694704Y1441186D01*
G01X697752Y1438138D01*
G01X701054Y1431788D01*
G01X701054Y1425692D01*
G01X697752Y1419596D01*
G01X694704Y1416548D01*
G01X685560Y1413246D01*
G01X657620Y1413246D01*
G01X679210Y1413246D02*
G01X701054Y1379210D01*
G01X734328Y1428740D02*
G01X734328Y1431788D01*
G01X737376Y1438138D01*
G01X740424Y1441186D01*
G01X746520Y1444234D01*
G01X758966Y1444234D01*
G01X765316Y1441186D01*
G01X768364Y1438138D01*
G01X771412Y1431788D01*
G01X771412Y1425692D01*
G01X768364Y1419596D01*
G01X762014Y1410198D01*
G01X731280Y1379210D01*
G01X774460Y1379210D01*
G01X657620Y1644234D02*
G01X657620Y1579210D01*
G01X657620Y1644234D02*
G01X685560Y1644234D01*
G01X694704Y1641186D01*
G01X697752Y1638138D01*
G01X701054Y1631788D01*
G01X701054Y1625692D01*
G01X697752Y1619596D01*
G01X694704Y1616548D01*
G01X685560Y1613246D01*
G01X657620Y1613246D01*
G01X679210Y1613246D02*
G01X701054Y1579210D01*
G01X737376Y1644234D02*
G01X771412Y1644234D01*
G01X752870Y1619596D01*
G01X762014Y1619596D01*
G01X768364Y1616548D01*
G01X771412Y1613246D01*
G01X774460Y1604102D01*
G01X774460Y1597752D01*
G01X771412Y1588608D01*
G01X765316Y1582258D01*
G01X755918Y1579210D01*
G01X746520Y1579210D01*
G01X737376Y1582258D01*
G01X734328Y1585560D01*
G01X731280Y1591656D01*
G01X144234Y911392D02*
G01X94704Y911392D01*
G01X85560Y914440D01*
G01X82258Y917488D01*
G01X79210Y923838D01*
G01X79210Y929934D01*
G01X82258Y936284D01*
G01X85560Y939332D01*
G01X94704Y942380D01*
G01X101054Y942380D01*
G01X131788Y881166D02*
G01X135090Y875070D01*
G01X144234Y865926D01*
G01X79210Y865926D01*
G04 Text End*

G04 PolygonModel Start*
G01X818880Y1709639D02*
G01X959881Y1709639D01*
G01X959881Y1890360D02*
G01X818880Y1890360D01*
G01X803640Y1875120D02*
G01X803640Y1724879D01*
G01X1181120Y1709639D02*
G01X1040119Y1709639D01*
G01X1040119Y1890360D02*
G01X1181120Y1890360D01*
G01X1196360Y1875120D02*
G01X1196360Y1724879D01*
G01X818880Y1890360D02*
G03X803640Y1875120I0J-15240D01*
G01X803640Y1724879D02*
G03X818880Y1709639I15240J0D01*
G01X1181120Y1890360D02*
G02X1196360Y1875120I0J-15240D01*
G01X1196360Y1724879D02*
G02X1181120Y1709639I-15240J0D01*
G01X818880Y1109639D02*
G01X959881Y1109639D01*
G01X959881Y1290360D02*
G01X818880Y1290360D01*
G01X803640Y1275120D02*
G01X803640Y1124879D01*
G01X1181120Y1109639D02*
G01X1040119Y1109639D01*
G01X1040119Y1290360D02*
G01X1181120Y1290360D01*
G01X1196360Y1275120D02*
G01X1196360Y1124879D01*
G01X818880Y1290360D02*
G03X803640Y1275120I0J-15240D01*
G01X803640Y1124879D02*
G03X818880Y1109639I15240J0D01*
G01X1181120Y1290360D02*
G02X1196360Y1275120I0J-15240D01*
G01X1196360Y1124879D02*
G02X1181120Y1109639I-15240J0D01*
G01X1959639Y1681120D02*
G01X1959639Y1540119D01*
G01X2140360Y1540119D02*
G01X2140360Y1681120D01*
G01X2125120Y1696360D02*
G01X1974879Y1696360D01*
G01X1959639Y1318880D02*
G01X1959639Y1459881D01*
G01X2140360Y1459881D02*
G01X2140360Y1318880D01*
G01X2125120Y1303640D02*
G01X1974879Y1303640D01*
G01X2140360Y1681120D02*
G03X2125120Y1696360I-15240J0D01*
G01X1974879Y1696360D02*
G03X1959639Y1681120I0J-15240D01*
G01X2140360Y1318880D02*
G02X2125120Y1303640I-15240J0D01*
G01X1974879Y1303640D02*
G02X1959639Y1318880I0J15240D01*
G54D14*
G01X3014998Y1654285D02*
G01X2810000Y1654285D01*
G01X2810000Y1654285D02*
G01X2810000Y1854000D01*
G01X2810000Y1854000D02*
G01X3014998Y1854000D01*
G01X3014998Y1146285D02*
G01X2810000Y1146285D01*
G01X2810000Y1146285D02*
G01X2810000Y1346000D01*
G01X2810000Y1346000D02*
G01X3014998Y1346000D01*
G01X2360001Y2008000D02*
G01X2360001Y992000D01*
G01X2205002Y992000D02*
G01X3014998Y992000D01*
G01X3014998Y992000D02*
G01X3014998Y1730635D01*
G01X3014998Y1730635D02*
G01X3014874Y2008000D01*
G01X3014874Y2008000D02*
G01X2205002Y2008000D01*
G01X2205002Y2008000D02*
G01X2205002Y1638981D01*
G01X2205002Y1638981D02*
G01X2205002Y992000D01*
G36*
G01X3014998Y1246000D02*
G01X3014998Y1226000D01*
G01X2910000Y1226000D01*
G01X2910000Y1186000D01*
G01X2850000Y1246000D01*
G01X2910000Y1306000D01*
G01X2910000Y1266000D01*
G01X3014998Y1266000D01*
G01X3014998Y1246000D01*
G37*
G36*
G01X3014998Y1754000D02*
G01X3014998Y1734000D01*
G01X2910000Y1734000D01*
G01X2910000Y1694000D01*
G01X2850000Y1754000D01*
G01X2910000Y1814000D01*
G01X2910000Y1774000D01*
G01X3014998Y1774000D01*
G01X3014998Y1754000D01*
G37*
G01X1501397Y1468443D02*
G01X1461397Y1508443D01*
G01X1461397Y1508443D02*
G01X1451397Y1518443D01*
G01X1451397Y1518443D02*
G01X1441372Y1508443D01*
G01X1441372Y1508443D02*
G01X1401372Y1468443D01*
G01X1501397Y1468443D02*
G01X1401372Y1468443D01*
G01X1349670Y1444120D02*
G01X1349670Y1289180D01*
G01X1349670Y1289180D02*
G01X1552870Y1289180D01*
G01X1552870Y1289180D02*
G01X1552870Y1444120D01*
G01X1347130Y1522860D02*
G01X1347130Y1670180D01*
G01X1347130Y1670180D02*
G01X1387770Y1710820D01*
G01X1387770Y1710820D02*
G01X1514770Y1710820D01*
G01X1514770Y1710820D02*
G01X1552870Y1672720D01*
G01X1552870Y1672720D02*
G01X1552870Y1520320D01*
G54D13*
G01X1741709Y1547620D02*
G01X1741709Y1676113D01*
G01X1741709Y1676113D02*
G01X1558291Y1676113D01*
G01X1558291Y1676113D02*
G01X1558291Y1547620D01*
G01X1741709Y1452380D02*
G01X1741709Y1323887D01*
G01X1741709Y1323887D02*
G01X1558291Y1323887D01*
G01X1558291Y1323887D02*
G01X1558291Y1452380D01*
G01X952380Y1491709D02*
G01X823887Y1491709D01*
G01X823887Y1491709D02*
G01X823887Y1308291D01*
G01X823887Y1308291D02*
G01X952380Y1308291D01*
G01X1047620Y1491709D02*
G01X1176113Y1491709D01*
G01X1176113Y1491709D02*
G01X1176113Y1308291D01*
G01X1176113Y1308291D02*
G01X1047620Y1308291D01*
G01X952380Y1691709D02*
G01X823887Y1691709D01*
G01X823887Y1691709D02*
G01X823887Y1508291D01*
G01X823887Y1508291D02*
G01X952380Y1508291D01*
G01X1047620Y1691709D02*
G01X1176113Y1691709D01*
G01X1176113Y1691709D02*
G01X1176113Y1508291D01*
G01X1176113Y1508291D02*
G01X1047620Y1508291D01*
G54D14*
G01X547503Y1166892D02*
G01X547503Y1145919D01*
G01X547503Y1832910D02*
G01X547503Y1833098D01*
G54D16*
G01X547503Y1167085D02*
G01X547503Y1145919D01*
G01X547503Y1854068D02*
G01X547503Y1832910D01*
G01X387501Y1949994D02*
G01X391712Y1949994D01*
G01X387501Y1949994D02*
G01X243274Y1949994D01*
G01X247503Y1049993D02*
G01X392510Y1049993D01*
G01X7382Y1950068D02*
G01X9668Y1950068D01*
G01X9668Y1950068D02*
G01X-132575Y1950068D01*
G01X-132575Y1950068D02*
G01X-132575Y1049894D01*
G01X-132575Y1049894D02*
G01X7382Y1049894D01*

M02*

