G04 Layer: BottomLayer*
G04 EasyEDA Pro v2.2.46.11, 2026-03-15 16:51:15*
G04 Gerber Generator version 0.3*
G04 Scale: 100 percent, Rotated: No, Reflected: No*
G04 Dimensions in millimeters*
G04 Leading zeros omitted, absolute positions, 4 integers and 5 decimals*
G04 Generated by one-click*
%FSLAX45Y45*%
%MOMM*%
%ADD10C,0.2032*%
%ADD11C,0.8*%
%ADD12R,2.2X2.2*%
%ADD13C,2.2*%
%ADD14C,7.5*%
%ADD15O,1.7X1.0*%
%ADD16C,0.6194*%
%ADD17C,0.61*%
G75*


G04 Copper Start*
G36*
G01X35814Y500000D02*
G01X84586Y500000D01*
G01X86586Y459282D01*
G01X92568Y418957D01*
G01X102474Y379412D01*
G01X116208Y341028D01*
G01X133638Y304175D01*
G01X154596Y269208D01*
G01X178881Y236464D01*
G01X206258Y206258D01*
G01X236464Y178881D01*
G01X269208Y154596D01*
G01X304175Y133638D01*
G01X341028Y116208D01*
G01X379412Y102474D01*
G01X418957Y92568D01*
G01X459282Y86586D01*
G01X500000Y84586D01*
G01X540718Y86586D01*
G01X581043Y92568D01*
G01X620588Y102474D01*
G01X658972Y116208D01*
G01X695825Y133638D01*
G01X730792Y154596D01*
G01X763536Y178881D01*
G01X793742Y206258D01*
G01X821119Y236464D01*
G01X845404Y269208D01*
G01X866362Y304175D01*
G01X883792Y341028D01*
G01X897526Y379412D01*
G01X907432Y418957D01*
G01X913414Y459282D01*
G01X915414Y500000D01*
G01X2084586Y500000D01*
G01X2086586Y459282D01*
G01X2092568Y418957D01*
G01X2102474Y379412D01*
G01X2116208Y341028D01*
G01X2133638Y304175D01*
G01X2154596Y269208D01*
G01X2178881Y236464D01*
G01X2206258Y206258D01*
G01X2236464Y178881D01*
G01X2269208Y154596D01*
G01X2304175Y133638D01*
G01X2341028Y116208D01*
G01X2379412Y102474D01*
G01X2418957Y92568D01*
G01X2459282Y86586D01*
G01X2500000Y84586D01*
G01X2540718Y86586D01*
G01X2581043Y92568D01*
G01X2620588Y102474D01*
G01X2658972Y116208D01*
G01X2695825Y133638D01*
G01X2730792Y154596D01*
G01X2763536Y178881D01*
G01X2793742Y206258D01*
G01X2821119Y236464D01*
G01X2845404Y269208D01*
G01X2866362Y304175D01*
G01X2883793Y341028D01*
G01X2897526Y379412D01*
G01X2907432Y418957D01*
G01X2913414Y459282D01*
G01X2915414Y500000D01*
G01X2913414Y540718D01*
G01X2907432Y581043D01*
G01X2897526Y620588D01*
G01X2883793Y658972D01*
G01X2866362Y695825D01*
G01X2845404Y730792D01*
G01X2821119Y763536D01*
G01X2793742Y793742D01*
G01X2763536Y821119D01*
G01X2730792Y845404D01*
G01X2695825Y866362D01*
G01X2658972Y883792D01*
G01X2620588Y897526D01*
G01X2581043Y907432D01*
G01X2540718Y913414D01*
G01X2500000Y915414D01*
G01X2459282Y913414D01*
G01X2418957Y907432D01*
G01X2379412Y897526D01*
G01X2341028Y883792D01*
G01X2304175Y866362D01*
G01X2269208Y845404D01*
G01X2236464Y821119D01*
G01X2206258Y793742D01*
G01X2178881Y763536D01*
G01X2154596Y730792D01*
G01X2133638Y695825D01*
G01X2116208Y658972D01*
G01X2102474Y620588D01*
G01X2092568Y581043D01*
G01X2086586Y540718D01*
G01X2084586Y500000D01*
G01X2084586Y500000D01*
G01X915414Y500000D01*
G01X913414Y540718D01*
G01X907432Y581043D01*
G01X897526Y620588D01*
G01X883792Y658972D01*
G01X866362Y695825D01*
G01X845404Y730792D01*
G01X821119Y763536D01*
G01X793742Y793742D01*
G01X763536Y821119D01*
G01X730792Y845404D01*
G01X695825Y866362D01*
G01X658972Y883792D01*
G01X620588Y897526D01*
G01X581043Y907432D01*
G01X540718Y913414D01*
G01X500000Y915414D01*
G01X459282Y913414D01*
G01X418957Y907432D01*
G01X379412Y897526D01*
G01X341028Y883792D01*
G01X304175Y866362D01*
G01X269208Y845404D01*
G01X236464Y821119D01*
G01X206258Y793742D01*
G01X178881Y763536D01*
G01X154596Y730792D01*
G01X133638Y695825D01*
G01X116208Y658972D01*
G01X102474Y620588D01*
G01X92568Y581043D01*
G01X86586Y540718D01*
G01X84586Y500000D01*
G01X84586Y500000D01*
G01X35814Y500000D01*
G01X35814Y997565D01*
G01X48500Y989019D01*
G01X62445Y982734D01*
G01X77250Y978890D01*
G01X92491Y977596D01*
G01X162491Y977596D01*
G01X181289Y979571D01*
G01X199266Y985412D01*
G01X215635Y994863D01*
G01X229681Y1007511D01*
G01X240792Y1022803D01*
G01X248480Y1040070D01*
G01X252409Y1058559D01*
G01X252409Y1077460D01*
G01X252409Y1077460D01*
G01X382582Y1077460D01*
G01X382582Y1058559D01*
G01X386512Y1040070D01*
G01X394200Y1022803D01*
G01X405310Y1007511D01*
G01X419357Y994863D01*
G01X435726Y985412D01*
G01X453702Y979571D01*
G01X472500Y977596D01*
G01X542500Y977596D01*
G01X561298Y979571D01*
G01X579275Y985412D01*
G01X595644Y994863D01*
G01X609691Y1007511D01*
G01X620801Y1022803D01*
G01X628489Y1040070D01*
G01X632419Y1058559D01*
G01X632419Y1077460D01*
G01X628489Y1095949D01*
G01X620801Y1113216D01*
G01X609691Y1128508D01*
G01X595644Y1141156D01*
G01X579275Y1150607D01*
G01X561298Y1156448D01*
G01X542500Y1158423D01*
G01X542500Y1158423D01*
G01X472500Y1158423D01*
G01X453702Y1156448D01*
G01X435726Y1150607D01*
G01X419357Y1141156D01*
G01X405310Y1128508D01*
G01X394200Y1113216D01*
G01X386512Y1095949D01*
G01X382582Y1077460D01*
G01X252409Y1077460D01*
G01X248480Y1095949D01*
G01X240792Y1113216D01*
G01X229681Y1128508D01*
G01X215635Y1141156D01*
G01X199266Y1150607D01*
G01X181289Y1156448D01*
G01X162491Y1158423D01*
G01X92491Y1158423D01*
G01X77250Y1157130D01*
G01X62445Y1153285D01*
G01X48500Y1147000D01*
G01X35814Y1138454D01*
G01X35814Y1356000D01*
G01X2459586Y1356000D01*
G01X2459586Y1136000D01*
G01X2461564Y1123512D01*
G01X2467305Y1112246D01*
G01X2476246Y1103305D01*
G01X2487512Y1097564D01*
G01X2500000Y1095586D01*
G01X2720000Y1095586D01*
G01X2732488Y1097564D01*
G01X2743755Y1103305D01*
G01X2752695Y1112246D01*
G01X2758436Y1123512D01*
G01X2760414Y1136000D01*
G01X2760414Y1356000D01*
G01X2760414Y1356000D01*
G01X2758436Y1368488D01*
G01X2752695Y1379755D01*
G01X2743755Y1388695D01*
G01X2732488Y1394436D01*
G01X2720000Y1396414D01*
G01X2500000Y1396414D01*
G01X2487512Y1394436D01*
G01X2476246Y1388695D01*
G01X2467305Y1379755D01*
G01X2461564Y1368488D01*
G01X2459586Y1356000D01*
G01X35814Y1356000D01*
G01X35814Y1766041D01*
G01X2464684Y1766041D01*
G01X2464684Y1741959D01*
G01X2468648Y1718205D01*
G01X2476468Y1695427D01*
G01X2487930Y1674247D01*
G01X2502721Y1655243D01*
G01X2520439Y1638932D01*
G01X2540600Y1625761D01*
G01X2562654Y1616087D01*
G01X2586000Y1610175D01*
G01X2610000Y1608186D01*
G01X2610000Y1608186D01*
G01X2634000Y1610175D01*
G01X2657346Y1616087D01*
G01X2679400Y1625761D01*
G01X2699561Y1638932D01*
G01X2717279Y1655243D01*
G01X2732071Y1674247D01*
G01X2743532Y1695427D01*
G01X2751352Y1718205D01*
G01X2755316Y1741959D01*
G01X2755316Y1766041D01*
G01X2751352Y1789795D01*
G01X2743532Y1812573D01*
G01X2732071Y1833753D01*
G01X2717279Y1852757D01*
G01X2699561Y1869068D01*
G01X2679400Y1882239D01*
G01X2657346Y1891913D01*
G01X2634000Y1897825D01*
G01X2610000Y1899814D01*
G01X2586000Y1897825D01*
G01X2562654Y1891913D01*
G01X2540600Y1882239D01*
G01X2520439Y1869068D01*
G01X2502721Y1852757D01*
G01X2487930Y1833753D01*
G01X2476468Y1812573D01*
G01X2468648Y1789795D01*
G01X2464684Y1766041D01*
G01X35814Y1766041D01*
G01X35814Y1861546D01*
G01X48500Y1853000D01*
G01X62445Y1846715D01*
G01X77250Y1842871D01*
G01X92491Y1841577D01*
G01X162491Y1841577D01*
G01X181289Y1843552D01*
G01X199266Y1849393D01*
G01X215635Y1858844D01*
G01X229681Y1871492D01*
G01X240792Y1886784D01*
G01X248480Y1904051D01*
G01X252409Y1922540D01*
G01X252409Y1941441D01*
G01X382582Y1941441D01*
G01X382582Y1922540D01*
G01X386512Y1904051D01*
G01X394200Y1886784D01*
G01X405310Y1871492D01*
G01X419357Y1858844D01*
G01X435726Y1849393D01*
G01X453702Y1843552D01*
G01X472500Y1841577D01*
G01X542500Y1841577D01*
G01X561298Y1843552D01*
G01X579275Y1849393D01*
G01X595644Y1858844D01*
G01X609691Y1871492D01*
G01X620801Y1886784D01*
G01X628489Y1904051D01*
G01X632419Y1922540D01*
G01X632419Y1941441D01*
G01X628489Y1959930D01*
G01X620801Y1977197D01*
G01X609691Y1992489D01*
G01X595644Y2005137D01*
G01X579275Y2014588D01*
G01X561298Y2020429D01*
G01X542500Y2022404D01*
G01X542500Y2022404D01*
G01X472500Y2022404D01*
G01X453702Y2020429D01*
G01X435726Y2014588D01*
G01X419357Y2005137D01*
G01X405310Y1992489D01*
G01X394200Y1977197D01*
G01X386512Y1959930D01*
G01X382582Y1941441D01*
G01X252409Y1941441D01*
G01X248480Y1959930D01*
G01X240792Y1977197D01*
G01X229681Y1992489D01*
G01X215635Y2005137D01*
G01X199266Y2014588D01*
G01X181289Y2020429D01*
G01X162491Y2022404D01*
G01X92491Y2022404D01*
G01X77250Y2021111D01*
G01X62445Y2017266D01*
G01X48500Y2010981D01*
G01X35814Y2002435D01*
G01X35814Y2500000D01*
G01X84586Y2500000D01*
G01X86586Y2459282D01*
G01X92568Y2418957D01*
G01X102474Y2379412D01*
G01X116208Y2341028D01*
G01X133638Y2304175D01*
G01X154596Y2269208D01*
G01X178881Y2236464D01*
G01X206258Y2206258D01*
G01X236464Y2178881D01*
G01X269208Y2154596D01*
G01X304175Y2133638D01*
G01X341028Y2116208D01*
G01X379412Y2102474D01*
G01X418957Y2092568D01*
G01X459282Y2086586D01*
G01X500000Y2084586D01*
G01X540718Y2086586D01*
G01X581043Y2092568D01*
G01X620588Y2102474D01*
G01X658972Y2116208D01*
G01X695825Y2133638D01*
G01X730792Y2154596D01*
G01X763536Y2178881D01*
G01X793742Y2206258D01*
G01X821119Y2236464D01*
G01X845404Y2269208D01*
G01X866362Y2304175D01*
G01X883792Y2341028D01*
G01X897526Y2379412D01*
G01X907432Y2418957D01*
G01X913414Y2459282D01*
G01X915414Y2500000D01*
G01X2084586Y2500000D01*
G01X2086586Y2459282D01*
G01X2092568Y2418957D01*
G01X2102474Y2379412D01*
G01X2116208Y2341028D01*
G01X2133638Y2304175D01*
G01X2154596Y2269208D01*
G01X2178881Y2236464D01*
G01X2206258Y2206258D01*
G01X2236464Y2178881D01*
G01X2269208Y2154596D01*
G01X2304175Y2133638D01*
G01X2341028Y2116208D01*
G01X2379412Y2102474D01*
G01X2418957Y2092568D01*
G01X2459282Y2086586D01*
G01X2500000Y2084586D01*
G01X2540718Y2086586D01*
G01X2581043Y2092568D01*
G01X2620588Y2102474D01*
G01X2658972Y2116208D01*
G01X2695825Y2133638D01*
G01X2730792Y2154596D01*
G01X2763536Y2178881D01*
G01X2793742Y2206258D01*
G01X2821119Y2236464D01*
G01X2845404Y2269208D01*
G01X2866362Y2304175D01*
G01X2883793Y2341028D01*
G01X2897526Y2379412D01*
G01X2907432Y2418957D01*
G01X2913414Y2459282D01*
G01X2915414Y2500000D01*
G01X2913414Y2540718D01*
G01X2907432Y2581043D01*
G01X2897526Y2620588D01*
G01X2883793Y2658972D01*
G01X2866362Y2695825D01*
G01X2845404Y2730792D01*
G01X2821119Y2763536D01*
G01X2793742Y2793742D01*
G01X2763536Y2821119D01*
G01X2730792Y2845404D01*
G01X2695825Y2866362D01*
G01X2658972Y2883793D01*
G01X2620588Y2897526D01*
G01X2581043Y2907432D01*
G01X2540718Y2913414D01*
G01X2500000Y2915414D01*
G01X2459282Y2913414D01*
G01X2418957Y2907432D01*
G01X2379412Y2897526D01*
G01X2341028Y2883793D01*
G01X2304175Y2866362D01*
G01X2269208Y2845404D01*
G01X2236464Y2821119D01*
G01X2206258Y2793742D01*
G01X2178881Y2763536D01*
G01X2154596Y2730792D01*
G01X2133638Y2695825D01*
G01X2116208Y2658972D01*
G01X2102474Y2620588D01*
G01X2092568Y2581043D01*
G01X2086586Y2540718D01*
G01X2084586Y2500000D01*
G01X2084586Y2500000D01*
G01X915414Y2500000D01*
G01X913414Y2540718D01*
G01X907432Y2581043D01*
G01X897526Y2620588D01*
G01X883792Y2658972D01*
G01X866362Y2695825D01*
G01X845404Y2730792D01*
G01X821119Y2763536D01*
G01X793742Y2793742D01*
G01X763536Y2821119D01*
G01X730792Y2845404D01*
G01X695825Y2866362D01*
G01X658972Y2883793D01*
G01X620588Y2897526D01*
G01X581043Y2907432D01*
G01X540718Y2913414D01*
G01X500000Y2915414D01*
G01X459282Y2913414D01*
G01X418957Y2907432D01*
G01X379412Y2897526D01*
G01X341028Y2883793D01*
G01X304175Y2866362D01*
G01X269208Y2845404D01*
G01X236464Y2821119D01*
G01X206258Y2793742D01*
G01X178881Y2763536D01*
G01X154596Y2730792D01*
G01X133638Y2695825D01*
G01X116208Y2658972D01*
G01X102474Y2620588D01*
G01X92568Y2581043D01*
G01X86586Y2540718D01*
G01X84586Y2500000D01*
G01X84586Y2500000D01*
G01X35814Y2500000D01*
G01X37794Y2542830D01*
G01X43718Y2585294D01*
G01X53534Y2627031D01*
G01X67159Y2667683D01*
G01X84478Y2706906D01*
G01X105341Y2744363D01*
G01X129572Y2779735D01*
G01X156962Y2812720D01*
G01X187280Y2843038D01*
G01X220265Y2870429D01*
G01X255638Y2894659D01*
G01X293095Y2915522D01*
G01X332317Y2932841D01*
G01X372969Y2946466D01*
G01X414706Y2956282D01*
G01X457170Y2962206D01*
G01X500000Y2964186D01*
G01X2500000Y2964186D01*
G01X2542830Y2962206D01*
G01X2585294Y2956282D01*
G01X2627031Y2946466D01*
G01X2667683Y2932841D01*
G01X2706906Y2915522D01*
G01X2744363Y2894659D01*
G01X2779735Y2870429D01*
G01X2812720Y2843038D01*
G01X2843038Y2812720D01*
G01X2870429Y2779735D01*
G01X2894659Y2744363D01*
G01X2915522Y2706906D01*
G01X2932841Y2667683D01*
G01X2946466Y2627031D01*
G01X2956282Y2585294D01*
G01X2962206Y2542830D01*
G01X2964186Y2500000D01*
G01X2964186Y500000D01*
G01X2962206Y457170D01*
G01X2956282Y414706D01*
G01X2946466Y372969D01*
G01X2932841Y332317D01*
G01X2915522Y293095D01*
G01X2894659Y255638D01*
G01X2870429Y220265D01*
G01X2843038Y187280D01*
G01X2812720Y156962D01*
G01X2779735Y129572D01*
G01X2744363Y105341D01*
G01X2706906Y84478D01*
G01X2667683Y67159D01*
G01X2627031Y53534D01*
G01X2585294Y43718D01*
G01X2542830Y37794D01*
G01X2500000Y35814D01*
G01X500000Y35814D01*
G01X457170Y37794D01*
G01X414706Y43718D01*
G01X372969Y53534D01*
G01X332317Y67159D01*
G01X293095Y84478D01*
G01X255638Y105341D01*
G01X220265Y129572D01*
G01X187280Y156962D01*
G01X156962Y187280D01*
G01X129572Y220265D01*
G01X105341Y255638D01*
G01X84478Y293095D01*
G01X67159Y332317D01*
G01X53534Y372969D01*
G01X43718Y414706D01*
G01X37794Y457170D01*
G01X35814Y500000D01*
G37*
G54D10*
G01X35814Y500000D02*
G01X35814Y997565D01*
G03X92491Y977596I56677J70444D01*
G01X162491Y977596D01*
G03X162491Y1158423I0J90414D01*
G01X92491Y1158423D01*
G03X35814Y1138454I0J-90414D01*
G01X35814Y1861546D01*
G03X92491Y1841577I56677J70444D01*
G01X162491Y1841577D01*
G03X162491Y2022404I0J90414D01*
G01X92491Y2022404D01*
G03X35814Y2002435I0J-90414D01*
G01X35814Y2500000D01*
G02X500000Y2964186I464186J0D01*
G01X2500000Y2964186D01*
G02X2964186Y2500000I0J-464186D01*
G01X2964186Y500000D01*
G02X2500000Y35814I-464186J0D01*
G01X500000Y35814D01*
G02X35814Y500000I0J464186D01*
G01X84586Y2500000D02*
G03X915414Y2500000I415414J0D01*
G03X84586Y2500000I-415414J0D01*
G01X84586Y500000D02*
G03X915414Y500000I415414J0D01*
G03X84586Y500000I-415414J0D01*
G01X542500Y1158423D02*
G01X472500Y1158423D01*
G03X472500Y977596I0J-90414D01*
G01X542500Y977596D01*
G03X542500Y1158423I0J90414D01*
G01X542500Y2022404D02*
G01X472500Y2022404D01*
G03X472500Y1841577I0J-90414D01*
G01X542500Y1841577D01*
G03X542500Y2022404I0J90414D01*
G01X2084586Y2500000D02*
G03X2915414Y2500000I415414J0D01*
G03X2084586Y2500000I-415414J0D01*
G01X2084586Y500000D02*
G03X2915414Y500000I415414J0D01*
G03X2084586Y500000I-415414J0D01*
G01X2760414Y1356000D02*
G03X2720000Y1396414I-40414J0D01*
G01X2500000Y1396414D01*
G03X2459586Y1356000I0J-40414D01*
G01X2459586Y1136000D01*
G03X2500000Y1095586I40414J0D01*
G01X2720000Y1095586D01*
G03X2760414Y1136000I0J40414D01*
G01X2760414Y1356000D01*
G01X2610000Y1608186D02*
G03X2610000Y1899814I0J145814D01*
G03X2610000Y1608186I0J-145814D01*
G54D11*
G01X127491Y1117755D02*
G01X127491Y1148263D01*
G01X127491Y1018264D02*
G01X127491Y987756D01*
G01X212237Y1068010D02*
G01X242745Y1068010D01*
G01X127491Y1981736D02*
G01X127491Y2012244D01*
G01X127491Y1882245D02*
G01X127491Y1851737D01*
G01X212237Y1931991D02*
G01X242745Y1931991D01*
G01X125254Y2500000D02*
G01X94746Y2500000D01*
G01X874746Y2500000D02*
G01X905254Y2500000D01*
G01X500000Y2874746D02*
G01X500000Y2905254D01*
G01X500000Y2125254D02*
G01X500000Y2094746D01*
G01X125254Y500000D02*
G01X94746Y500000D01*
G01X874746Y500000D02*
G01X905254Y500000D01*
G01X500000Y874746D02*
G01X500000Y905254D01*
G01X500000Y125254D02*
G01X500000Y94746D01*
G01X507500Y1117755D02*
G01X507500Y1148263D01*
G01X507500Y1018264D02*
G01X507500Y987756D01*
G01X592246Y1068010D02*
G01X622754Y1068010D01*
G01X422755Y1068010D02*
G01X392247Y1068010D01*
G01X507500Y1981736D02*
G01X507500Y2012244D01*
G01X507500Y1882245D02*
G01X507500Y1851737D01*
G01X592246Y1931991D02*
G01X622754Y1931991D01*
G01X422755Y1931991D02*
G01X392247Y1931991D01*
G01X2125254Y2500000D02*
G01X2094746Y2500000D01*
G01X2874746Y2500000D02*
G01X2905254Y2500000D01*
G01X2500000Y2874746D02*
G01X2500000Y2905254D01*
G01X2500000Y2125254D02*
G01X2500000Y2094746D01*
G01X2125254Y500000D02*
G01X2094746Y500000D01*
G01X2874746Y500000D02*
G01X2905254Y500000D01*
G01X2500000Y874746D02*
G01X2500000Y905254D01*
G01X2500000Y125254D02*
G01X2500000Y94746D01*
G01X2610000Y1136254D02*
G01X2610000Y1105746D01*
G01X2610000Y1355746D02*
G01X2610000Y1386254D01*
G01X2500254Y1246000D02*
G01X2469746Y1246000D01*
G01X2719746Y1246000D02*
G01X2750254Y1246000D01*
G04 Copper End*

G04 Pad Start*
G54D12*
G01X2610000Y1246000D03*
G54D13*
G01X2610000Y1754000D03*
G54D14*
G01X500000Y500000D03*
G01X2500000Y500000D03*
G01X2500000Y2500000D03*
G01X500000Y2500000D03*
G54D15*
G01X507500Y1931991D03*
G01X507500Y1068010D03*
G01X127491Y1931991D03*
G01X127491Y1068010D03*
G04 Pad End*

G04 Via Start*
G54D17*
G01X1250000Y1800000D03*
G01X1257250Y1600001D03*
G01X1257250Y1400001D03*
G01X1257746Y1200001D03*
G01X1451397Y1700000D03*
G01X2050001Y1242254D03*
G01X350000Y1774993D03*
G01X422502Y1774993D03*
G01X350000Y1224994D03*
G01X421654Y1224994D03*
G04 Via End*

M02*

